<svg xmlns="http://www.w3.org/2000/svg" xmlns:xlink="http://www.w3.org/1999/xlink" width="500" zoomAndPan="magnify" viewBox="0 0 375 374.999991" height="500" preserveAspectRatio="xMidYMid meet" version="1.0"><defs><clipPath id="86a8fdbfff"><path d="M 127.429688 151.070312 L 182.433594 151.070312 L 182.433594 217.160156 L 127.429688 217.160156 Z M 127.429688 151.070312 " clip-rule="nonzero"/></clipPath><clipPath id="e509c64353"><path d="M 0.429688 0.0703125 L 55.433594 0.0703125 L 55.433594 66.160156 L 0.429688 66.160156 Z M 0.429688 0.0703125 " clip-rule="nonzero"/></clipPath><clipPath id="e7a4ef0f1b"><rect x="0" width="56" y="0" height="67"/></clipPath><clipPath id="0939a2400c"><path d="M 195.605469 151.070312 L 250.609375 151.070312 L 250.609375 217.160156 L 195.605469 217.160156 Z M 195.605469 151.070312 " clip-rule="nonzero"/></clipPath><clipPath id="94666babae"><path d="M 0.605469 0.0703125 L 55.609375 0.0703125 L 55.609375 66.160156 L 0.605469 66.160156 Z M 0.605469 0.0703125 " clip-rule="nonzero"/></clipPath><clipPath id="6c2a04d3e9"><rect x="0" width="56" y="0" height="67"/></clipPath><clipPath id="b266500e04"><path d="M 194.660156 229.382812 L 249.664062 229.382812 L 249.664062 295.472656 L 194.660156 295.472656 Z M 194.660156 229.382812 " clip-rule="nonzero"/></clipPath><clipPath id="0b7220695c"><path d="M 0.660156 0.382812 L 55.664062 0.382812 L 55.664062 66.472656 L 0.660156 66.472656 Z M 0.660156 0.382812 " clip-rule="nonzero"/></clipPath><clipPath id="197d10365d"><rect x="0" width="56" y="0" height="67"/></clipPath><clipPath id="20cb105fae"><path d="M 127.429688 229.382812 L 182.433594 229.382812 L 182.433594 295.472656 L 127.429688 295.472656 Z M 127.429688 229.382812 " clip-rule="nonzero"/></clipPath><clipPath id="329253df2a"><path d="M 0.429688 0.382812 L 55.433594 0.382812 L 55.433594 66.472656 L 0.429688 66.472656 Z M 0.429688 0.382812 " clip-rule="nonzero"/></clipPath><clipPath id="1904aba0ef"><rect x="0" width="56" y="0" height="67"/></clipPath></defs><rect x="-37.5" width="450" fill="#ffffff" y="-37.499999" height="449.999989" fill-opacity="1"/><rect x="-37.5" width="450" fill="#000000" y="-37.499999" height="449.999989" fill-opacity="1"/><path stroke-linecap="butt" transform="matrix(-0.00742815, -0.749963, 0.749963, -0.00742815, 82.81341, 326.902714)" fill="none" stroke-linejoin="miter" d="M -0.00163108 5.999065 L 234.400522 5.997715 " stroke="#ffffff" stroke-width="12" stroke-opacity="1" stroke-miterlimit="4"/><path stroke-linecap="butt" transform="matrix(-0.749993, -0.00329617, 0.00329617, -0.749993, 294.269457, 328.649628)" fill="none" stroke-linejoin="miter" d="M 0.000236162 6.001645 L 281.560263 5.998593 " stroke="#ffffff" stroke-width="12" stroke-opacity="1" stroke-miterlimit="4"/><path stroke-linecap="butt" transform="matrix(0.53033, -0.53033, 0.53033, 0.53033, 80.682479, 151.505263)" fill="none" stroke-linejoin="miter" d="M -0.00135303 5.999131 L 198.283186 5.999131 " stroke="#ffffff" stroke-width="12" stroke-opacity="1" stroke-miterlimit="4"/><path stroke-linecap="butt" transform="matrix(0.53033, 0.53033, -0.53033, 0.53033, 185.128497, 46.375545)" fill="none" stroke-linejoin="miter" d="M -0.000128079 6.002143 L 198.236534 5.99846 " stroke="#ffffff" stroke-width="12" stroke-opacity="1" stroke-miterlimit="4"/><g clip-path="url(#86a8fdbfff)"><g transform="matrix(1, 0, 0, 1, 127, 151)"><g clip-path="url(#e7a4ef0f1b)"><g clip-path="url(#e509c64353)"><path fill="#ffffff" d="M 0.429688 0.0703125 L 55.433594 0.0703125 L 55.433594 66.25 L 0.429688 66.25 Z M 0.429688 0.0703125 " fill-opacity="1" fill-rule="nonzero"/></g></g></g></g><g clip-path="url(#0939a2400c)"><g transform="matrix(1, 0, 0, 1, 195, 151)"><g clip-path="url(#6c2a04d3e9)"><g clip-path="url(#94666babae)"><path fill="#ffffff" d="M 0.605469 0.0703125 L 55.609375 0.0703125 L 55.609375 66.25 L 0.605469 66.25 Z M 0.605469 0.0703125 " fill-opacity="1" fill-rule="nonzero"/></g></g></g></g><g clip-path="url(#b266500e04)"><g transform="matrix(1, 0, 0, 1, 194, 229)"><g clip-path="url(#197d10365d)"><g clip-path="url(#0b7220695c)"><path fill="#ffffff" d="M 0.660156 0.382812 L 55.664062 0.382812 L 55.664062 66.5625 L 0.660156 66.5625 Z M 0.660156 0.382812 " fill-opacity="1" fill-rule="nonzero"/></g></g></g></g><g clip-path="url(#20cb105fae)"><g transform="matrix(1, 0, 0, 1, 127, 229)"><g clip-path="url(#1904aba0ef)"><g clip-path="url(#329253df2a)"><path fill="#ffffff" d="M 0.429688 0.382812 L 55.433594 0.382812 L 55.433594 66.5625 L 0.429688 66.5625 Z M 0.429688 0.382812 " fill-opacity="1" fill-rule="nonzero"/></g></g></g></g></svg>