<svg xmlns="http://www.w3.org/2000/svg" xmlns:xlink="http://www.w3.org/1999/xlink" width="500" zoomAndPan="magnify" viewBox="0 0 375 374.999991" height="500" preserveAspectRatio="xMidYMid meet" version="1.0"><defs><clipPath id="60af884edb"><path d="M 159.167969 230.171875 L 219.125 230.171875 L 219.125 258.847656 L 159.167969 258.847656 Z M 159.167969 230.171875 " clip-rule="nonzero"/></clipPath><clipPath id="fff49c0474"><path d="M 0.167969 0.171875 L 60.125 0.171875 L 60.125 28.847656 L 0.167969 28.847656 Z M 0.167969 0.171875 " clip-rule="nonzero"/></clipPath><clipPath id="2411dd518d"><rect x="0" width="61" y="0" height="29"/></clipPath><clipPath id="aeff298964"><path d="M 159.167969 260.546875 L 219.125 260.546875 L 219.125 289.226562 L 159.167969 289.226562 Z M 159.167969 260.546875 " clip-rule="nonzero"/></clipPath><clipPath id="e407dfa4fc"><path d="M 0.167969 0.546875 L 60.125 0.546875 L 60.125 29.226562 L 0.167969 29.226562 Z M 0.167969 0.546875 " clip-rule="nonzero"/></clipPath><clipPath id="42cdfc1f4a"><rect x="0" width="61" y="0" height="30"/></clipPath><clipPath id="2872a3de93"><path d="M 164.148438 287.089844 L 172.636719 287.089844 L 172.636719 298.777344 L 164.148438 298.777344 Z M 164.148438 287.089844 " clip-rule="nonzero"/></clipPath><clipPath id="501b0eb01b"><path d="M 0.148438 0.0898438 L 8.636719 0.0898438 L 8.636719 11.777344 L 0.148438 11.777344 Z M 0.148438 0.0898438 " clip-rule="nonzero"/></clipPath><clipPath id="e27bf79c43"><rect x="0" width="9" y="0" height="12"/></clipPath><clipPath id="cea84e82a1"><path d="M 202.03125 287.089844 L 210.519531 287.089844 L 210.519531 298.777344 L 202.03125 298.777344 Z M 202.03125 287.089844 " clip-rule="nonzero"/></clipPath><clipPath id="9c9d0e2bb2"><path d="M 0.03125 0.0898438 L 8.519531 0.0898438 L 8.519531 11.777344 L 0.03125 11.777344 Z M 0.03125 0.0898438 " clip-rule="nonzero"/></clipPath><clipPath id="f1668519c3"><rect x="0" width="9" y="0" height="12"/></clipPath><clipPath id="a9c571c751"><path d="M 178.152344 271.738281 L 200.140625 271.738281 L 200.140625 274.886719 L 178.152344 274.886719 Z M 178.152344 271.738281 " clip-rule="nonzero"/></clipPath><clipPath id="2b89d7640d"><path d="M 0.152344 0.738281 L 22.140625 0.738281 L 22.140625 3.886719 L 0.152344 3.886719 Z M 0.152344 0.738281 " clip-rule="nonzero"/></clipPath><clipPath id="f4f19dafe3"><rect x="0" width="23" y="0" height="4"/></clipPath><clipPath id="5d8502d4db"><path d="M 178.152344 242.9375 L 200.140625 242.9375 L 200.140625 246.082031 L 178.152344 246.082031 Z M 178.152344 242.9375 " clip-rule="nonzero"/></clipPath><clipPath id="ac894d0bbc"><path d="M 0.152344 0.9375 L 22.140625 0.9375 L 22.140625 4.082031 L 0.152344 4.082031 Z M 0.152344 0.9375 " clip-rule="nonzero"/></clipPath><clipPath id="2d919e1278"><rect x="0" width="23" y="0" height="5"/></clipPath><clipPath id="709a918f1d"><path d="M 166.429688 154.378906 L 211.953125 154.378906 L 211.953125 188.453125 L 166.429688 188.453125 Z M 166.429688 154.378906 " clip-rule="nonzero"/></clipPath><clipPath id="dece2b8c22"><path d="M 177.789062 154.378906 L 200.503906 154.378906 L 211.863281 188.453125 L 166.429688 188.453125 Z M 177.789062 154.378906 " clip-rule="nonzero"/></clipPath><clipPath id="a5fdc426e3"><path d="M 0.429688 0.378906 L 45.921875 0.378906 L 45.921875 34.453125 L 0.429688 34.453125 Z M 0.429688 0.378906 " clip-rule="nonzero"/></clipPath><clipPath id="3382023187"><path d="M 11.789062 0.378906 L 34.503906 0.378906 L 45.863281 34.453125 L 0.429688 34.453125 Z M 11.789062 0.378906 " clip-rule="nonzero"/></clipPath><clipPath id="7ed0b7d14c"><rect x="0" width="46" y="0" height="35"/></clipPath><clipPath id="b5d78ae22e"><path d="M 179.671875 193.445312 L 198.625 193.445312 L 198.625 223.875 L 179.671875 223.875 Z M 179.671875 193.445312 " clip-rule="nonzero"/></clipPath><clipPath id="d23323c33e"><path d="M 189.148438 193.445312 C 194.378906 193.445312 198.625 197.6875 198.625 202.921875 L 198.625 214.394531 C 198.625 219.628906 194.378906 223.871094 189.148438 223.871094 C 183.914062 223.871094 179.671875 219.628906 179.671875 214.394531 L 179.671875 202.921875 C 179.671875 197.6875 183.914062 193.445312 189.148438 193.445312 Z M 189.148438 193.445312 " clip-rule="nonzero"/></clipPath><clipPath id="6ebbd97069"><path d="M 0.671875 0.445312 L 19.625 0.445312 L 19.625 30.875 L 0.671875 30.875 Z M 0.671875 0.445312 " clip-rule="nonzero"/></clipPath><clipPath id="8dc6233003"><path d="M 10.148438 0.445312 C 15.378906 0.445312 19.625 4.6875 19.625 9.921875 L 19.625 21.394531 C 19.625 26.628906 15.378906 30.871094 10.148438 30.871094 C 4.914062 30.871094 0.671875 26.628906 0.671875 21.394531 L 0.671875 9.921875 C 0.671875 4.6875 4.914062 0.445312 10.148438 0.445312 Z M 10.148438 0.445312 " clip-rule="nonzero"/></clipPath><clipPath id="df560fcc0c"><rect x="0" width="20" y="0" height="31"/></clipPath></defs><rect x="-37.5" width="450" fill="#ffffff" y="-37.499999" height="449.999989" fill-opacity="1"/><rect x="-37.5" width="450" fill="#000000" y="-37.499999" height="449.999989" fill-opacity="1"/><path stroke-linecap="butt" transform="matrix(-0.00742815, -0.749963, 0.749963, -0.00742815, 74.564678, 340.148123)" fill="none" stroke-linejoin="miter" d="M -0.00227061 6.497393 L 252.843441 6.501629 " stroke="#ffffff" stroke-width="13" stroke-opacity="1" stroke-miterlimit="4"/><path stroke-linecap="butt" transform="matrix(-0.749993, -0.00329617, 0.00329617, -0.749993, 302.67898, 342.050133)" fill="none" stroke-linejoin="miter" d="M 0.00157804 6.499192 L 303.71287 6.497746 " stroke="#ffffff" stroke-width="13" stroke-opacity="1" stroke-miterlimit="4"/><path stroke-linecap="butt" transform="matrix(0.53033, -0.53033, 0.53033, 0.53033, 72.268073, 150.927338)" fill="none" stroke-linejoin="miter" d="M -0.000839774 6.500134 L 213.884243 6.500134 " stroke="#ffffff" stroke-width="13" stroke-opacity="1" stroke-miterlimit="4"/><path stroke-linecap="butt" transform="matrix(0.53033, 0.53033, -0.53033, 0.53033, 184.963308, 37.528672)" fill="none" stroke-linejoin="miter" d="M 0.000196265 6.501209 L 213.837402 6.497526 " stroke="#ffffff" stroke-width="13" stroke-opacity="1" stroke-miterlimit="4"/><g clip-path="url(#60af884edb)"><g transform="matrix(1, 0, 0, 1, 159, 230)"><g clip-path="url(#2411dd518d)"><g clip-path="url(#fff49c0474)"><path fill="#ffffff" d="M 0.167969 0.171875 L 60.097656 0.171875 L 60.097656 28.847656 L 0.167969 28.847656 Z M 0.167969 0.171875 " fill-opacity="1" fill-rule="nonzero"/></g></g></g></g><g clip-path="url(#aeff298964)"><g transform="matrix(1, 0, 0, 1, 159, 260)"><g clip-path="url(#42cdfc1f4a)"><g clip-path="url(#e407dfa4fc)"><path fill="#ffffff" d="M 0.167969 0.546875 L 60.097656 0.546875 L 60.097656 29.222656 L 0.167969 29.222656 Z M 0.167969 0.546875 " fill-opacity="1" fill-rule="nonzero"/></g></g></g></g><g clip-path="url(#2872a3de93)"><g transform="matrix(1, 0, 0, 1, 164, 287)"><g clip-path="url(#e27bf79c43)"><g clip-path="url(#501b0eb01b)"><path fill="#ffffff" d="M 0.148438 0.0898438 L 8.636719 0.0898438 L 8.636719 11.761719 L 0.148438 11.761719 Z M 0.148438 0.0898438 " fill-opacity="1" fill-rule="nonzero"/></g></g></g></g><g clip-path="url(#cea84e82a1)"><g transform="matrix(1, 0, 0, 1, 202, 287)"><g clip-path="url(#f1668519c3)"><g clip-path="url(#9c9d0e2bb2)"><path fill="#ffffff" d="M 0.03125 0.0898438 L 8.519531 0.0898438 L 8.519531 11.761719 L 0.03125 11.761719 Z M 0.03125 0.0898438 " fill-opacity="1" fill-rule="nonzero"/></g></g></g></g><g clip-path="url(#a9c571c751)"><g transform="matrix(1, 0, 0, 1, 178, 271)"><g clip-path="url(#f4f19dafe3)"><g clip-path="url(#2b89d7640d)"><path fill="#000000" d="M 0.152344 0.738281 L 22.140625 0.738281 L 22.140625 3.886719 L 0.152344 3.886719 Z M 0.152344 0.738281 " fill-opacity="1" fill-rule="nonzero"/></g></g></g></g><g clip-path="url(#5d8502d4db)"><g transform="matrix(1, 0, 0, 1, 178, 242)"><g clip-path="url(#2d919e1278)"><g clip-path="url(#ac894d0bbc)"><path fill="#000000" d="M 0.152344 0.9375 L 22.140625 0.9375 L 22.140625 4.082031 L 0.152344 4.082031 Z M 0.152344 0.9375 " fill-opacity="1" fill-rule="nonzero"/></g></g></g></g><g clip-path="url(#709a918f1d)"><g clip-path="url(#dece2b8c22)"><g transform="matrix(1, 0, 0, 1, 166, 154)"><g clip-path="url(#7ed0b7d14c)"><g clip-path="url(#a5fdc426e3)"><g clip-path="url(#3382023187)"><path fill="#ffffff" d="M 0.429688 0.378906 L 45.820312 0.378906 L 45.820312 34.453125 L 0.429688 34.453125 Z M 0.429688 0.378906 " fill-opacity="1" fill-rule="nonzero"/></g></g></g></g></g></g><g clip-path="url(#b5d78ae22e)"><g clip-path="url(#d23323c33e)"><g transform="matrix(1, 0, 0, 1, 179, 193)"><g clip-path="url(#df560fcc0c)"><g clip-path="url(#6ebbd97069)"><g clip-path="url(#8dc6233003)"><path fill="#ffffff" d="M 0.671875 0.445312 L 19.625 0.445312 L 19.625 30.875 L 0.671875 30.875 Z M 0.671875 0.445312 " fill-opacity="1" fill-rule="nonzero"/></g></g></g></g></g></g></svg>