<svg xmlns="http://www.w3.org/2000/svg" width="672" height="480" viewBox="0 0 504 360"><defs><clipPath id="b"><path d="M.84 29H88v244.84H.84Zm0 0"/></clipPath><clipPath id="c"><path d="M.84 189h210.719v84.84H.839Zm0 0"/></clipPath><clipPath id="d"><path d="M.84 0H182v182H.84Zm0 0"/></clipPath><clipPath id="e"><path d="M27 0h184.559v182H27Zm0 0"/></clipPath><clipPath id="a"><path d="M0 0h212v274H0z"/></clipPath><clipPath id="f"><path d="M41.309 173.656h432.546V283.02H41.31Zm0 0"/></clipPath><clipPath id="h"><path d="M.309.656h432.546V110.02H.31Zm0 0"/></clipPath><clipPath id="g"><path d="M0 0h433v111H0z"/></clipPath><clipPath id="i"><path d="M0 0h438v73H0z"/></clipPath></defs><path fill="#fff" d="M-50.4-36h604.8v432H-50.4z"/><path fill="#fff" d="M-50.4-36h604.8v432H-50.4z"/><g clip-path="url(#a)" transform="translate(147 42)"><g clip-path="url(#b)"><path fill="none" stroke="#383434" stroke-width="13.091" d="m13.684 266.645-1.61-162.688"/></g><g clip-path="url(#c)"><path fill="none" stroke="#383434" stroke-width="13.091" d="m204.434 264.09-195.95-.86"/></g><g clip-path="url(#d)"><path fill="none" stroke="#383434" stroke-width="13.091" d="m10.496 107.309 97.317-97.32"/></g><g clip-path="url(#e)"><path fill="none" stroke="#383434" stroke-width="13.091" d="m101.266 10.02 97.297 97.296"/></g></g><g clip-path="url(#f)"><g clip-path="url(#g)" transform="translate(41 173)"><g clip-path="url(#h)"><path fill="#fff" d="M.309.656h432.336V110.02H.309Zm0 0"/></g></g></g><g clip-path="url(#i)" transform="translate(35 165)"><path d="m31.348 38.457-1.61 3.766a247 247 0 0 1-4.156 9.86 74 74 0 0 1-5.156 9.656 53 53 0 0 1-2.922 4.125 19 19 0 0 1-3.703 3.593q-2.204 1.594-4.594 1.922a4.5 4.5 0 0 1-.906.094c-1.5 0-2.758-.477-3.766-1.422q-1.657-1.563-1.797-4.094-.234-3.487.985-6.172a31 31 0 0 1 2.828-4.984q7.435-10.516 20.156-14.781a7 7 0 0 0 1.172-.594q.574-.373.844-1.156a405 405 0 0 0 1.812-4.313q.903-2.155 1.828-4.328 1.045-2.512 2.078-5.031 1.045-2.532 2.094-5.063.544-1.372.953-2.89.422-1.513.375-3.266-.095-1.559-.86-2.297-.75-.733-2.296-.781h-.188q-1.751.002-3.25.438-1.489.439-2.812.937Q20.5 14.85 14.863 19.77q-.925.784-1.36 1.36-.437.562-.343 1.155.14.597.844 1.297.714.692 1.875 1.64l.375.313q.215.159.437.329.608.374 1.157.843.545.456.687.86a.78.78 0 0 1-.094.734q-.235.282-.547.281-.421 0-1.015-.39a17 17 0 0 1-1.14-.813 17 17 0 0 0-.47-.328c-.148-.113-.28-.219-.406-.312q-3.455-2.25-3.906-4.22-.41-1.92 2.016-3.812 8.185-6.386 18.468-9.281.187-.045.344-.062.155-.031.297-.032a14 14 0 0 1 1.797-.125c1.832 0 3.191.461 4.078 1.375q1.606 1.66 1.156 5.422a25.8 25.8 0 0 1-1.156 5.156 125 125 0 0 1-1.734 4.797q-.235.518-.422 1a31 31 0 0 0-.36.938 288 288 0 0 1-1.328 3.437q-.657 1.706-1.39 3.547Zm-4.407 3.39q-.235-.264-.547-.265c-.218 0-.43.047-.625.14a5 5 0 0 0-.53.267l-.282.14a62 62 0 0 0-4.453 2.156c-2.906 1.625-5.508 3.493-7.797 5.61a36.9 36.9 0 0 0-7.266 9q-2.015 3.433-1.828 6.797.093 2.201 1.375 3.39 1.014 1.015 2.578 1.016.732 0 1.563-.281 2.466-.83 4.312-2.891a47.8 47.8 0 0 0 6.22-8.875c1.726-3.18 3.237-6.234 4.53-9.172l.813-1.86q.42-.934.828-1.859a4 4 0 0 1 .234-.5q.591-1.153.86-1.843.28-.687.015-.97m23.637-1.967q.375.045.421.14.031.268-.343.5a3.6 3.6 0 0 1-.813.39 6 6 0 0 1-.687.204 7.9 7.9 0 0 1-2.391.375q-1.096 0-2.156-.235a4 4 0 0 0-.969-.14q-1.094 0-1.61 1.156-1.329 2.938-4.218 4.812-.364.234-.844.438a2.7 2.7 0 0 1-1.031.203q-.704-.001-1.344-.406c-.601-.395-.953-.883-1.047-1.47a8.5 8.5 0 0 1-.093-1.796c.18-3.113 1.398-5.836 3.671-8.172l.813-.812.844-.844q.684-.593 1.515-.594.545 0 1.094.235 1.293.598 1.75 2.343.404 1.471.047 2.844-.187.784.14 1.14.357.422 1.329.47h1.14q1.342 0 2.438-.188c.156 0 .304-.031.453-.094q.234-.092.469-.219.28-.092.578-.203a1.6 1.6 0 0 1 .61-.125q.14 0 .234.047m-9.5.452v-.265a2 2 0 0 0-.282-.375l-.281-.282q-.314-.31-.64-.609c-.212-.195-.438-.406-.688-.625q-.095-.044-.266-.266a3 3 0 0 0-.406-.421q-.205-.188-.422-.188-.281 0-.515.281A24 24 0 0 0 35.39 41.3q-.844 1.844-.89 4.047 0 .737.421 1.14c.188.157.414.235.688.235.219 0 .445-.063.687-.188 1.313-.644 2.32-1.515 3.032-2.609a21.4 21.4 0 0 0 1.703-3.172q.046-.093.047-.422m.359-1.828q.14-.59.14-1.219 0-.621-.64-1.218a.56.56 0 0 0-.453-.235.95.95 0 0 0-.672.282q-.299.281-.39.5-.237.69.171 1.171.42.487.922.891.14.095.297.219.171.11.312.25l.172.187.047-.187q0-.187.047-.344a1 1 0 0 0 .047-.297m0 0"/><path d="M74.953 39.598q.281.188.328.375a.38.38 0 0 1-.078.344 2 2 0 0 1-.25.297 1.4 1.4 0 0 0-.219.28q-3.813 5.877-10.797 9.813-.738.422-1.875.422h-.093q-1.16-.002-1.75-.594c-.43-.398-.641-.996-.641-1.796q-.002-1.049.406-1.891.42-.855.875-1.64l.469-.735c.082-.188.176-.367.281-.547q.171-.281.313-.562l.047-.141q.092-.171.156-.453c.039-.188-.043-.383-.25-.594a1.2 1.2 0 0 0-.875-.375q-.188 0-.422.094-.909.19-1.813.437-.891.251-1.812.532-1.142.408-2.219.968-1.08.55-2.094 1.14-.456.237-.89.485-.439.25-.906.485l-.172.093a1.8 1.8 0 0 1-.422.235 1.3 1.3 0 0 1-.453.078c-.282 0-.57-.117-.875-.36q-.499-.467-.5-.859 0-.386.093-.797l.032-.187c.554-2.508 1.488-4.742 2.812-6.703l.094-.141a1.3 1.3 0 0 1 .219-.328q.14-.17.328-.172.14 0 .281.094.312.142.406.36c.157.312.16.679.016 1.093q-.205.61-.422 1.031c-.094.18-.14.297-.14.36l-1.61 4.187a1.2 1.2 0 0 0-.094.297q-.046.204.141.344a.77.77 0 0 0 .453.125 2.2 2.2 0 0 0 .64-.11q.376-.107.516-.203a4 4 0 0 0 .407-.203q.188-.122.375-.25a5 5 0 0 1 .421-.328q.217-.141.438-.234.733-.357 1.484-.672.762-.33 1.547-.657 1.888-.78 3.547-1.015.265-.047.5-.047 1.186.001 1.89.781.781.878.407 2.172a12 12 0 0 1-.484 1.516q-.299.737-.579 1.468c-.117.274-.23.54-.343.813q-.158.42-.344.828l-.047.188c-.086.156-.14.335-.172.546q-.048.329.219.61c.25.238.523.36.828.36.125 0 .242-.016.36-.048l.374-.093q2.156-.643 3.766-1.907a33 33 0 0 0 2.89-2.547 73 73 0 0 0 2.282-2.359A12.7 12.7 0 0 0 74 40.332l.094-.093q.076-.217.234-.47.17-.264.406-.265c.063 0 .133.031.219.094m0 0"/><path d="M89.645 40.52c.219-.125.46-.188.734-.188q.047.237-.187.438-.222.203-.407.39l-.28.235A98 98 0 0 1 86.16 43.8a18 18 0 0 1-3.656 1.938c-1.305.5-2.75.75-4.344.75h-.171q-2.346 0-3.641-1.422-1.138-1.325-.781-3.22 1.295-6.28 8.187-8.124a3 3 0 0 1 .735-.094q1.09 0 1.78.969.563.738.345 1.266-.205.532-.61 1.078-1.844 2.25-6.062 2.89-1.517.236-1.985 1.203a9 9 0 0 0-.687 2.063l-.047.312q-.141.643.234 1.204.497.689 1.61 1 .824.234 1.75.234.73 0 1.422-.14.684-.14 1.468-.36 2.422-.685 4.86-2.344a15.5 15.5 0 0 0 2.109-1.656.7.7 0 0 0 .188-.14l.187-.188.266-.235q.14-.123.328-.265m-11.156-2.344-.329.375.516-.14c1.07-.25 1.984-.57 2.734-.97q1.124-.591 1.938-1.921l.187-.375-.406.14q-1.33.411-2.484 1.032-1.142.628-2.156 1.859m0 0"/><path d="m105.206 39.192.094.187c0 .117-.149.203-.438.266q-.44.094-.703.14a4 4 0 0 1-.328.047q-.644.19-1.281.344-.644.157-1.282.39-2.44.738-4.187 1.61-1.33.69-2.485 1.61-1.141.908-1.468 2.796-.646 3.435-4.078 6.422-1.325 1.156-2.72 1.156-.948-.001-1.64-.593-.92-.785-.922-2.078.002-1.285.953-2.422a12.4 12.4 0 0 1 2.844-2.61 33 33 0 0 1 3.313-1.984q1.061-.544 1.156-1.328.092-.78-.734-2.031a9 9 0 0 1-.61-.844q-.268-.434-.547-.89l-.312-.563q-1.06-1.686 0-2.75 3.526-3.577 8.86-3.907h.234q1.183 0 1.828.735.685.784.422 2.11-.332 1.394-1.704 2.39a1.2 1.2 0 0 1-.265.187.64.64 0 0 1-.328.094q-.188 0-.422-.187-.27-.185-.235-.407.047-.234.188-.562.28-.498.531-.985c.164-.32.344-.632.531-.937.094-.188.16-.367.204-.547q.077-.28-.157-.656a.9.9 0 0 0-.781-.406q-.093 0-.328.046h-.14c-2.938.305-5.294 1.422-7.063 3.36q-.879.954.234 2.25.591.69 1.094 1.515.497.863.953 1.438c.313.387.711.578 1.203.578.281 0 .617-.094 1.016-.281a38 38 0 0 1 3.562-1.375q1.81-.593 3.422-1.063.264-.077.844-.218.574-.141 1.078-.141c.188 0 .32.016.406.047a.8.8 0 0 0 .188.047M87.58 52.926q3.668-1.94 4.5-7.172l-.281-.14q-.048.19-.516.437-.456.251-.813.438-.47.234-.546.328a29 29 0 0 0-1.985 1.515l-.312.266q-.734.64-1.532 1.484-.81.855-.906 1.828-.046.594.266.97.33.31.969.312.377 0 .671-.094.299-.095.485-.172m34.158 7.063q-.784-.002-1.375-.735c-.468-.555-.586-1.043-.343-1.469q.375-.644.937-1.234.17-.187.328-.375.17-.188.313-.36 1.012-1.517 2.64-4.202a619 619 0 0 0 3.578-6.016q1.952-3.329 3.97-6.89 2.026-3.563 3.937-6.907 1.906-3.356 3.453-6.062a376 376 0 0 1 2.484-4.282c1.352-2.258 2.735-4.562 4.14-6.906a229 229 0 0 1 4.313-6.906 98 98 0 0 1 1.953-2.938 249 249 0 0 0 1.86-2.718q.14-.218.344-.422.2-.219.437-.22.233 0 .453.142.733.55.328 1.703a21 21 0 0 1-1.61 3.437q-.972 1.66-1.921 3.219l-.375.594a196 196 0 0 0-2.594 4.14 828 828 0 0 0-2.547 4.172 95 95 0 0 0-1.703 2.89 1348 1348 0 0 0-2.64 4.688 2747 2747 0 0 1-6.266 11.125 666 666 0 0 1-2.687 4.672 121 121 0 0 1-1.72 2.89l-1.109 1.75q-.784 1.187-1.562 2.407a83 83 0 0 1-1.61 2.406 43 43 0 0 1-2.374 3.078q-.047.047-.329.282-.595.59-1.109 1.187-.502.593-.406 1.156.047.265.234.5.265.188.688.188h.187q.31-.047.578-.094.281-.046.61-.094c.156-.03.304-.062.453-.093q.234-.048.515-.094 1.56-.174 3.032-.313a60 60 0 0 1 5.593-.28h.563q3.48.044 6.61.546 1.512.233 3.03.531 1.513.295 3.079.907l.172.078q.093.046.234.093.14.048.14.094-.187.282-.687.281-.328 0-.75-.078a5.4 5.4 0 0 1-.719-.156l-.422-.094a10 10 0 0 1-.734-.125 30 30 0 0 1-.734-.14q-.955-.187-1.97-.375a24 24 0 0 0-1.968-.282 53 53 0 0 0-4.875-.218h-.781q-5.05.092-10.563 1.14a4 4 0 0 0-.562.14 4 4 0 0 0-.531.235l-.813.266q-.393.14-.797.14m0 0"/><path d="M156.028 40.52c.22-.125.461-.188.735-.188q.046.237-.188.438-.22.203-.406.39l-.281.235a98 98 0 0 1-3.344 2.406 18 18 0 0 1-3.656 1.938c-1.305.5-2.75.75-4.344.75h-.172q-2.344 0-3.64-1.422-1.138-1.325-.782-3.22 1.296-6.28 8.188-8.124a3 3 0 0 1 .734-.094q1.09 0 1.781.969.562.738.344 1.266-.205.532-.61 1.078-1.844 2.25-6.062 2.89-1.517.236-1.984 1.203a9 9 0 0 0-.688 2.063l-.047.312q-.14.643.235 1.204.497.689 1.61 1 .824.234 1.75.234.73 0 1.421-.14.684-.14 1.469-.36 2.42-.685 4.86-2.344a15.5 15.5 0 0 0 2.109-1.656.7.7 0 0 0 .187-.14l.188-.188.265-.235q.14-.123.328-.265m-11.156-2.344-.328.375.516-.14c1.07-.25 1.984-.57 2.734-.97q1.124-.591 1.937-1.921l.188-.375-.406.14q-1.33.411-2.485 1.032-1.142.628-2.156 1.859m0 0"/><path d="M179.683 39.051q.218 0 .313.047a.4.4 0 0 0 .14.047c.031.18-.117.328-.437.453q-.486.188-.797.281a1.5 1.5 0 0 0-.281.094 41 41 0 0 0-3.157 1.281 11 11 0 0 0-2.718 1.797q-2.3 1.97-3.672 5.14-3.55 8.263-10.985 15.844-.83.825-1.797 1.563-.95.732-2.328.953a7 7 0 0 1-.78.047 2.6 2.6 0 0 1-1.892-.781q-.638-.645-.656-1.313-.03-.657.11-1.25a7.9 7.9 0 0 1 1.312-2.765 28 28 0 0 1 1.906-2.282c2.688-3 5.258-5.746 7.72-8.234a56.6 56.6 0 0 1 8.124-6.75 3.35 3.35 0 0 0 1.406-1.875q.375-1.184.61-2.438l.14-.687q.095-.593-.234-.922-.094-.14-.328-.25c-.149-.07-.36-.11-.64-.11h-.22q-1.019.095-2.03.876a7.1 7.1 0 0 0-1.673 1.859q-.673 1.08-.625 2.078-.001.563-.218.656h-.188q-.234 0-.281-.187a5 5 0 0 0-.375-.688q-.222-.375-.531-.375a.5.5 0 0 0-.36.172 3 3 0 0 0-.297.344 1.7 1.7 0 0 1-.172.266l-.578.484q-.297.251-.578.484-.83.69-1.672 1.375a9.6 9.6 0 0 1-1.859 1.188l-.813.36a2.1 2.1 0 0 1-.796.156q-.738.002-1.422-.547-.922-.75-.922-1.547 0-.795.14-1.531c.68-2.946 2.239-4.954 4.688-6.016q.949-.422 1.734-.422 1.748 0 3.453 2.203.186.282.391.469a.65.65 0 0 0 .438.172c.093 0 .242-.07.453-.219l.187-.094q.685-.513 1.422-.968.731-.453 1.563-.829.637-.311 1.14-.312.607 0 1.063.36.593.456.687 1.077.094.627.047 1.313 0 .314-.047.672-.047.346-.14.703l-.141.922.281.094q.046-.093.578-.297.528-.217.797-.297.375-.095.469-.14.497-.235.953-.438c.313-.133.617-.266.922-.391q1.06-.42 2.625-.781.124 0 .36-.047.234-.047.468-.047m-15.797 1.703a3 3 0 0 0 .469-.531q.218-.293-.25-.938a4.6 4.6 0 0 0-.89-.937q-.533-.437-1.454-.438h-.047q-3.985 1.05-5.234 5.094-.095.364-.14.844-.036.486.468.89a.98.98 0 0 0 .734.329c.157 0 .305-.032.454-.094q.234-.094.421-.188a12 12 0 0 0 2.36-1.468 119 119 0 0 0 2-1.641q.232-.187.453-.39l.422-.391q.047-.047.234-.14m-8.594 23.188a40.3 40.3 0 0 0 7.579-8.485 141 141 0 0 0 5.828-9.515l-.235-.188a24.4 24.4 0 0 0-3.953 2.906 83 83 0 0 0-3.39 3.297q-.597.592-1.188 1.188a53 53 0 0 1-1.25 1.203 96 96 0 0 0-3.344 3.344 19.6 19.6 0 0 0-2.843 3.859l-.235.375q-.42.64-.672 1.39-.247.762.532 1.454.47.405 1.015.406.55-.002 1.031-.344.487-.346.891-.703Zm0 0"/><path d="M202.544 38.364q.217.046.265.093c.094.149.035.344-.172.594q-4.734 4.956-11.531 8.719l-.328.14a2.3 2.3 0 0 1-.531.329q-.3.14-.61.14-.469 0-.968-.422c-.399-.367-.59-.707-.579-1.031q.03-.48.22-1.031.03-.094.077-.188a.4.4 0 0 0 .047-.187q.422-1.465 1.031-2.813.621-1.359 1.266-2.593l.297-.547q.31-.563.656-1.172l.469-.86q0-.046.187-.28.422-.592.72-1.235c.194-.426.25-.766.155-1.016a.6.6 0 0 0-.28-.312.7.7 0 0 0-.22-.047q-.47.001-1.015.5l-.547.5q-.329.375-.656.937a2.8 2.8 0 0 0-.36 1.235v.172q0 .187-.031.421-.017.235-.156.235a.7.7 0 0 1-.203-.063q-.157-.076-.438-.36l-.14-.14-.266.328q-.142.094-.266.235c-.074.086-.14.156-.203.219q-.55.598-1.031 1.171-.486.58-.984 1.125-1.095 1.283-2.25 2.547a23.5 23.5 0 0 1-2.485 2.375l-.312.266q-.424.375-.875.703c-.305.21-.641.313-1.016.313-.305 0-.617-.11-.953-.329q-.968-.685-.922-1.593.047-.92.266-1.797l.047-.281c.742-2.938 2.054-5.461 3.953-7.579q1.969-2.202 4.687-2.203h.14q.592.002 1.141.078.546.064.829.438.825 1.188 1.562 1.187.373.002.64-.218c.188-.157.383-.328.594-.516l.141-.14q.42-.406.922-.641.233-.094.437-.156.201-.078.391-.079.312 0 .64.235.375.328.344.656-.016.315-.203.672a310 310 0 0 1-1.562 3.344q-.784 1.629-1.563 3.234l-.828 1.734q-.282.517-.484 1.063l-.39 1.047-.22.687q-.187.47-.046.703.076.127.265.22.14.045.328.046.45.002 1.047-.266.607-.281.828-.421 1.467-1.015 2.89-2.047 1.437-1.031 2.767-2.032.449-.327.859-.671c.281-.227.57-.454.875-.672q.28-.217.578-.47a6 6 0 0 1 .625-.483q.139-.14.266-.25.14-.125.328-.22c.156-.155.32-.3.5-.437q.281-.201.562-.437l.172-.094q.14-.075.297-.187a.56.56 0 0 1 .313-.125m-13.422-1.75q.467-.498-.032-1.188-.61-.78-1.437-.781h-.172q-1.16.235-2.031.734-2.017 1.191-3.266 2.985a34 34 0 0 0-2.14 3.53q-.095.188-.22.376a4 4 0 0 0-.202.36 9 9 0 0 0-.516.874c-.148.305-.266.64-.36 1.016q-.046.22-.046.828 0 .596.328.86a.43.43 0 0 0 .36.187q.186 0 .468-.14a16.6 16.6 0 0 0 3.5-2.923 81 81 0 0 0 2.969-3.453l1.375-1.656q.685-.825 1.422-1.61m0 0"/><path d="M219.792 40.473q.092.142.015.39a.85.85 0 0 1-.281.438 70 70 0 0 1-4.125 3.078 36 36 0 0 1-4.703 2.766 24.2 24.2 0 0 1-5.453 1.875 8 8 0 0 1-1.563.172q-1.846-.002-3.219-1.282-1.966-1.827-.968-4.5 2.67-6.983 10.203-10.656.872-.451 1.75-.453 1.372.002 2.375 1.188.733.785.781 1.593a3.7 3.7 0 0 1-.203 1.485q-.252.689-.578 1.109a4.6 4.6 0 0 1-.844 1.031 7.4 7.4 0 0 1-.89.703l-.094.094q-.143.095-.344.266a.64.64 0 0 1-.39.156.6.6 0 0 1-.282-.14q-.142-.234.11-.735a8 8 0 0 1 .656-1.031q.386-.528.656-.89c.375-.438.57-.696.594-.782q0-.14.093-.328a2.6 2.6 0 0 0 .188-.735q.045-.405-.406-.828-.47-.358-.97-.36c-.304 0-.655.106-1.062.313q-6.564 3.503-9.64 10.282-.732 1.658.469 2.672.855.78 2.25.78.358 0 .734-.046 2.515-.282 4.578-1.219c1.383-.625 2.582-1.242 3.594-1.86q1.513-.872 3.39-2.25.281-.185.532-.39l.484-.39q.45-.404.953-.766a8 8 0 0 1 1.063-.656.84.84 0 0 1 .422-.141q.076 0 .125.047m0 0"/><path d="M243.172 39.598c.063.062.035.18-.078.344a2.2 2.2 0 0 1-.297.39c-.304.25-.648.477-1.03.672-.388.2-.778.39-1.173.578a6 6 0 0 0-.562.297c-.18.106-.344.203-.5.297q-.91.502-1.813 1.016a48 48 0 0 0-1.765 1.047q-3.814 2.343-6.657 4.687a6.1 6.1 0 0 0-1.562 2.016l-1.094 2.343q-1.471 3.028-2.984 6.157a73 73 0 0 1-3.313 6.062 55 55 0 0 1-1.765 2.547q-1.031 1.405-2.5 2.594c-.22.156-.457.316-.72.484a2.5 2.5 0 0 1-.89.344q-.42.14-.687.14-.687 0-1.203-.515-.406-.363-.454-.75a4.2 4.2 0 0 1 0-.89q.143-1.067.532-1.97.392-.89.797-1.718 3.531-6.703 10.28-12.985 2.17-2.032 3.36-4.593a145 145 0 0 1 1.61-3.22q.824-1.606 1.656-3.218l1.515-3.031-.421.14a12 12 0 0 0-2.735 1.5 31 31 0 0 0-2.312 1.86q-.457.41-.938.797a25 25 0 0 1-1 .765l-.734.547q-.909.738-1.922 1.407-1.02.655-2.203 1.078c-.336.086-.64.125-.922.125q-.684.002-1.328-.5-1.062-.78-.922-2.157.282-2.108 1.437-3.578a19.4 19.4 0 0 1 2.516-2.672.78.78 0 0 1 .547-.218q.327.001.64.265.328.33.297.578-.016.251-.25.579-.221.313-.437.64-.204.315-.438.64-.313.458-.64.891a13 13 0 0 0-.594.907 5 5 0 0 0-.203.297 2 2 0 0 1-.25.296c-.188.243-.367.5-.547.782a2.35 2.35 0 0 0-.375.922q-.14.596.14.906.316.328.954.328a3.6 3.6 0 0 0 1.297-.234 5.6 5.6 0 0 0 1-.516q.466-.31.922-.625 1.06-.78 2.109-1.578a539 539 0 0 0 3.75-2.89 56 56 0 0 1 1.672-1.282q.14-.076.328-.266.264-.233.562-.437.31-.201.672-.203.374 0 .828.359.5.47.407.969a4 4 0 0 1-.313 1.015c-.094.18-.156.313-.187.407q-.187.55-.375 1.078a9 9 0 0 1-.407 1.031q-.313.88-.64 1.781-.33.893-.594 1.844l.266.14q.045-.185.39-.359.343-.187.625-.281.33-.187.422-.234l1.547-.953a64 64 0 0 1 4.688-2.72q1.248-.637 2.437-1.187c.094-.062.195-.125.313-.187q.187-.094.328-.188c.312-.113.601-.238.875-.375q.405-.217.875-.36zM214.97 69.676a28.4 28.4 0 0 0 5-7.031 163 163 0 0 0 3.735-7.844l-.235-.281a45.6 45.6 0 0 0-7.672 8.265q-.825 1.2-1.61 2.5-.777 1.312-1.187 2.922a3 3 0 0 0-.093.375q-.141.404-.188.86c-.031.312.125.601.469.875q.314.234.64.234c.212 0 .391-.07.547-.203a2.7 2.7 0 0 0 .407-.438q.14-.187.187-.234m60.007-12.172q-6.064 0-10.515-3.797-2.391-2.08-3.97-5.093-1.58-2.999-2.14-6.532-1.002-6.388 1.375-13c3.469-9.52 9.211-16.941 17.235-22.265q3.293-2.204 6.656-2.203h.406q2.937.092 5.14 2.156 2.122 2.015 2.344 4.781.375 4.861-2.437 9.594-2.66 4.549-6.188 8.125a.5.5 0 0 0-.171.14q-.064.094-.11.141c-.187.21-.383.402-.578.578q-.299.251-.61.25c-.28 0-.574-.156-.874-.469q-.47-.451-.516-.78 0-.311.297-.563.31-.263.625-.485.329-.187.422-.234 5.777-4.265 8.437-10.281.515-1.154.907-2.72c.257-1.038.25-2.233-.032-3.577-.398-1.813-1.218-3.235-2.468-4.266Q286.6 5.661 284.54 5.66q-.878 0-1.797.282c-2.086.586-3.89 1.507-5.422 2.765a45 45 0 0 0-4.36 4.078q-4.687 4.911-7.578 9.797-2.894 4.893-4.265 10.219a33 33 0 0 0-.844 4.672q-.27 2.502.14 5.25.422 2.753 1.985 5.734a14.5 14.5 0 0 0 4.688 5.266q2.982 2.044 6.421 2.406 1.155.094 2.297.094 3.622-.001 6.547-1.016 2.919-1.003 5.188-2.515a47 47 0 0 0 4.062-3.032q2.89-2.53 5.703-6.484l.625-.812c.219-.282.453-.555.703-.829l.188-.28c.082-.095.16-.18.234-.266q.124-.141.266-.282a.46.46 0 0 1 .234-.093q.03 0 .094.03.077.017.125.204.046.221-.078.484a2.3 2.3 0 0 1-.234.422l-.094.188q-.377.645-.828 1.265-.456.627-.922 1.219l-.313.406c-.375.461-.758.922-1.14 1.39q-.563.692-1.11 1.376c-2.023 2.351-4.152 4.281-6.39 5.781-3.649 2.383-7.766 3.75-12.36 4.094q-.643.03-1.328.031m0 0"/><path d="M318.863 40.192q.281.046.329.14.046.14-.188.328-.833.456-1.875.454-1.3.002-2.672-.688a7.6 7.6 0 0 1-2.344-1.781 52 52 0 0 0-1.328-1.422q-.455-.47-.968-.469-.315.002-.735.25-.409.25-1 .672a36 36 0 0 0-4.14 3.422 139 139 0 0 0-3.72 3.734l-1.14 1.157a2 2 0 0 1-.234.312 4 4 0 0 1-.297.36.52.52 0 0 1-.39.156q-.28 0-.688-.282-.516-.357-.469-.75a6 6 0 0 1 .14-.765l.094-.188c1.231-3.883 2.727-7.312 4.5-10.281l.094-.094c.094-.187.211-.367.36-.547q.234-.28.515-.28a.77.77 0 0 1 .406.14q.33.235.422.453a.65.65 0 0 1 0 .484 3 3 0 0 1-.234.485q-.095.28-.14.375l-.36.859q-.284.705-.578 1.422-.298.704-.625 1.39-.174.456-.406.922-.235.456-.422.907-.047 0-.188.375-.128.361-.25.78c-.074.274-.078.454-.015.548l.187.094c.3-.063.555-.18.766-.36a5.6 5.6 0 0 0 .61-.61l.202-.202.25-.25 1.938-1.61q.92-.78 1.828-1.531.918-.762 1.844-1.5 1.23-.92 1.875-.922c.406 0 .796.18 1.171.531q.575.535 1.454 1.579.965 1.207 2.218 1.875 1.264.656 2.563.656.404 0 .812-.094.142 0 .375-.094c.22-.093.368-.14.453-.14m0 0"/><path d="M333.923 40.52c.22-.125.461-.188.735-.188q.047.237-.188.438-.22.203-.406.39l-.281.235a98 98 0 0 1-3.344 2.406 18 18 0 0 1-3.656 1.938c-1.305.5-2.75.75-4.344.75h-.172q-2.344 0-3.64-1.422-1.138-1.325-.782-3.22 1.296-6.28 8.188-8.124a3 3 0 0 1 .734-.094q1.09 0 1.781.969.562.738.344 1.266-.205.532-.61 1.078-1.845 2.25-6.062 2.89-1.516.236-1.984 1.203a9 9 0 0 0-.688 2.063l-.046.312q-.141.643.234 1.204.497.689 1.61 1 .824.234 1.75.234.73 0 1.421-.14.684-.14 1.469-.36 2.42-.685 4.86-2.344a15.5 15.5 0 0 0 2.109-1.656.7.7 0 0 0 .187-.14l.188-.188.265-.235q.14-.123.328-.265m-11.156-2.344-.328.375.516-.14c1.07-.25 1.984-.57 2.734-.97q1.124-.591 1.938-1.921l.187-.375-.406.14q-1.33.411-2.485 1.032-1.142.628-2.156 1.859m0 0"/><path d="M357.484 38.364q.218.046.266.093c.094.149.035.344-.172.594q-4.734 4.956-11.531 8.719l-.328.14a2.3 2.3 0 0 1-.531.329q-.3.14-.61.14-.47 0-.969-.422c-.398-.367-.59-.707-.578-1.031q.03-.48.219-1.031.03-.094.078-.188a.4.4 0 0 0 .047-.187q.422-1.465 1.031-2.813.621-1.359 1.266-2.593l.297-.547q.31-.563.656-1.172l.469-.86q0-.046.187-.28.422-.592.719-1.235c.195-.426.25-.766.156-1.016a.6.6 0 0 0-.281-.312.7.7 0 0 0-.219-.047q-.47.001-1.015.5l-.547.5q-.329.375-.656.937-.315.55-.36 1.235v.172q-.001.187-.031.421-.017.235-.156.235a.7.7 0 0 1-.203-.063q-.158-.076-.438-.36l-.14-.14-.266.328q-.142.094-.266.235c-.074.086-.14.156-.203.219q-.55.598-1.031 1.171-.486.58-.985 1.125-1.095 1.283-2.25 2.547a23.5 23.5 0 0 1-2.484 2.375l-.312.266q-.424.375-.875.703c-.305.21-.641.313-1.016.313-.305 0-.617-.11-.953-.329q-.968-.685-.922-1.593.048-.92.266-1.797l.046-.281c.743-2.938 2.055-5.461 3.954-7.579q1.969-2.202 4.687-2.203h.14q.591.002 1.141.078.546.064.828.438.825 1.188 1.563 1.187c.25 0 .46-.07.64-.218.188-.157.383-.328.594-.516l.14-.14c.282-.27.587-.485.923-.641q.233-.094.437-.156c.133-.051.266-.079.39-.079q.313 0 .642.235.374.328.343.656-.016.315-.203.672a310 310 0 0 1-1.562 3.344q-.784 1.629-1.563 3.234l-.828 1.734a8 8 0 0 0-.484 1.063l-.391 1.047-.219.687q-.187.47-.047.703.077.127.266.22.14.045.328.046.45.002 1.047-.266.608-.281.828-.421 1.467-1.015 2.89-2.047 1.437-1.031 2.766-2.032.45-.327.86-.671c.281-.227.57-.454.875-.672q.28-.217.578-.47a6 6 0 0 1 .625-.483c.094-.094.18-.176.266-.25q.14-.125.328-.22c.156-.155.32-.3.5-.437q.281-.201.562-.437l.172-.094q.14-.075.297-.187a.56.56 0 0 1 .312-.125m-13.421-1.75q.467-.498-.032-1.188-.61-.78-1.437-.781h-.172q-1.16.235-2.031.734-2.017 1.191-3.266 2.985a34 34 0 0 0-2.14 3.53q-.095.188-.22.376c-.074.117-.14.234-.202.36a9 9 0 0 0-.516.874c-.149.305-.266.64-.36 1.016q-.045.22-.046.828 0 .596.328.86a.43.43 0 0 0 .36.187q.186 0 .468-.14a16.6 16.6 0 0 0 3.5-2.923 81 81 0 0 0 2.969-3.453l1.375-1.656q.685-.825 1.422-1.61m0 0"/><path d="M382.732 24.77q.141.142.188.406a.5.5 0 0 1-.078.266q-.064.11-.39.109a3 3 0 0 1-.298-.016 1.6 1.6 0 0 0-.297-.03l-.234-.048a52 52 0 0 0-4.984-.406 125 125 0 0 0-4.75-.094l-2.344.047q-.598 0-1.219-.015-.61-.031-1.203-.032c-.492 0-.906.063-1.25.188q-.502.174-.781.765l-.828 1.563a331 331 0 0 0-5.828 11.906 72 72 0 0 0-4.547 12.813q-1.326 5.233-1.235 9.593v.36q.001.42.032.781.017.373.28.688.424.421 1.25.515.175-.001.266.125a.84.84 0 0 1 .235.469q.046.31-.14.422a.66.66 0 0 1-.36.125h-.047q-2.028 0-2.578-1.922a6 6 0 0 1-.281-1.953 29 29 0 0 1 .093-1.86l.047-.375q.376-4.127 1.39-7.984a68 68 0 0 1 2.407-7.484c.93-2.414 1.867-4.805 2.828-7.172l.266-.594a43 43 0 0 1 1.515-3.422 215 215 0 0 0 1.61-3.328q.405-.78.797-1.562c.257-.52.515-1.04.765-1.563q.093-.217.11-.516.03-.31-.344-.953l-.094-.093h-4.266a49 49 0 0 0-2.14-.047h-2.172q-3.403 0-6.016.093-.544.047-1.093.047h-1.11c-.945.032-1.906.074-2.875.125q-1.451.064-2.781.39c-.27.056-.5.079-.687.079q-.312.001-.547-.125-.14-.14-.235-.469-.094-.405.422-.406.094.001.375.031c.18.012.266.016.266.016h.14a78 78 0 0 1 5.079-.297q2.501-.077 4.468-.078h4.266q1.064.047 2.14.047h4.157q1.014 0 2.015-.047.969-.046 1.72-.344.76-.292 1.218-1.219 1.934-4.029 5.328-7.718.047-.077.188-.22.138-.184.296-.358a.48.48 0 0 1 .391-.188q.232.001.547.266.421.375.328.75a2.4 2.4 0 0 1-.375.765q-.361.502-.687.969-.315.456-.641.875a82 82 0 0 0-2.031 2.875 27 27 0 0 0-1.875 3.281l-.125.219h4.078q4.875.001 11.015.734h.329q.233 0 .484.047.248.047.437.188m0 0"/><path d="M380.113 40.02q.14.094.14.406-.001.328-.39.61c-.262.18-.469.328-.625.453q-.784.69-1.61 1.328-.83.644-1.656 1.234a26 26 0 0 1-3.687 2.219 23.4 23.4 0 0 1-4.156 1.547 8 8 0 0 1-1.938.234q-1.002-.001-2.015-.922-1.014-.874-1.125-1.86-.106-.981.156-1.905a25 25 0 0 1 2.344-5.829 26.5 26.5 0 0 1 3.625-5 2.9 2.9 0 0 1 .578-.593q.34-.281.937.172c.426.343.563.648.406.906-.148.25-.28.484-.406.703q-1.471 2.343-2.844 4.687a40 40 0 0 0-2.437 4.907 7 7 0 0 1-.453.968q-.281.504-.281 1.032 0 .533.515 1.03c.54.587 1.149.829 1.828.735q1.014-.138 1.844-.312a13 13 0 0 0 3.297-1.25 27 27 0 0 0 2.89-1.828c.126-.094.43-.352.922-.782q.732-.636 1.61-1.375a14 14 0 0 1 1.61-1.187q.732-.47.921-.328m-7.39-10.063c-.712.063-1.157-.258-1.344-.968q-.223-.904.187-1.297c.281-.258.68-.407 1.203-.438q.545-.047.953.235c.282.18.477.496.594.953.031.523-.105.89-.406 1.109q-.457.314-1.188.406m0 0"/><path d="M395.763 39.88q.375.045.422.14c.02.18-.094.344-.344.5a3.6 3.6 0 0 1-.813.39 6 6 0 0 1-.687.204 7.9 7.9 0 0 1-2.39.375q-1.096 0-2.157-.235a4 4 0 0 0-.969-.14q-1.094 0-1.61 1.156-1.329 2.938-4.218 4.812-.363.234-.844.438a2.7 2.7 0 0 1-1.03.203q-.706-.001-1.345-.406c-.601-.395-.953-.883-1.046-1.47a8.5 8.5 0 0 1-.094-1.796c.18-3.113 1.398-5.836 3.672-8.172l.812-.812.844-.844q.684-.593 1.516-.594.543 0 1.093.235 1.295.598 1.75 2.343.404 1.471.047 2.844-.187.784.14 1.14c.24.282.68.438 1.329.47h1.14q1.343 0 2.438-.188.233 0 .453-.094.234-.092.469-.219.28-.092.578-.203a1.6 1.6 0 0 1 .61-.125q.14 0 .234.047m-9.5.452v-.265a2 2 0 0 0-.281-.375l-.282-.282q-.314-.31-.64-.609c-.211-.195-.438-.406-.688-.625-.062-.031-.152-.117-.265-.266a3 3 0 0 0-.407-.421q-.204-.188-.422-.188-.28 0-.515.281a24 24 0 0 0-2.188 3.719q-.844 1.844-.89 4.047 0 .737.422 1.14.279.235.687.235a1.5 1.5 0 0 0 .688-.188q1.967-.967 3.03-2.609a21.4 21.4 0 0 0 1.704-3.172q.047-.093.047-.422m.36-1.828q.14-.59.14-1.219-.001-.621-.64-1.218a.56.56 0 0 0-.454-.235.95.95 0 0 0-.672.282q-.298.281-.39.5-.237.69.171 1.171c.282.325.586.621.922.891q.14.095.297.219.17.11.313.25l.172.187.046-.187q0-.187.047-.344a1 1 0 0 0 .047-.297m0 0"/><path d="M420.138 39.598q.282.188.328.375a.38.38 0 0 1-.078.344 2 2 0 0 1-.25.297 1.4 1.4 0 0 0-.218.28q-3.814 5.877-10.797 9.813-.74.422-1.875.422h-.094q-1.16-.002-1.75-.594c-.43-.398-.64-.996-.64-1.796 0-.7.132-1.329.406-1.891q.419-.855.875-1.64l.468-.735c.082-.188.176-.367.282-.547q.17-.281.312-.562l.047-.141q.092-.171.156-.453c.04-.188-.043-.383-.25-.594a1.2 1.2 0 0 0-.875-.375q-.187 0-.422.094-.908.19-1.812.437-.892.251-1.813.532-1.141.408-2.218.968-1.08.55-2.094 1.14-.458.237-.89.485-.44.25-.907.485l-.172.093a1.8 1.8 0 0 1-.422.235 1.3 1.3 0 0 1-.453.078c-.281 0-.57-.117-.875-.36q-.499-.467-.5-.859 0-.386.094-.797l.031-.187c.555-2.508 1.488-4.742 2.813-6.703l.093-.141a1.3 1.3 0 0 1 .219-.328q.14-.17.328-.172.141 0 .281.094.312.142.407.36c.156.312.16.679.015 1.093q-.204.61-.422 1.031c-.093.18-.14.297-.14.36l-1.61 4.187a1.2 1.2 0 0 0-.093.297q-.048.204.14.344a.77.77 0 0 0 .453.125 2.2 2.2 0 0 0 .641-.11q.375-.107.516-.203a4 4 0 0 0 .406-.203q.188-.122.375-.25a5 5 0 0 1 .422-.328q.216-.141.437-.234.734-.357 1.485-.672.76-.33 1.547-.657 1.886-.78 3.546-1.015.265-.047.5-.047 1.186.001 1.891.781.78.878.406 2.172a12 12 0 0 1-.484 1.516q-.298.737-.578 1.468c-.117.274-.23.54-.344.813q-.157.42-.344.828l-.047.188c-.086.156-.14.335-.171.546q-.05.329.218.61.374.358.828.36.186 0 .36-.048l.375-.093q2.155-.643 3.765-1.907a33 33 0 0 0 2.891-2.547 73 73 0 0 0 2.281-2.359 12.7 12.7 0 0 0 2.047-2.969l.094-.093q.076-.217.234-.47.171-.264.407-.265c.062 0 .132.031.218.094m0 0"/><path d="m434.736 39.192.094.187q-.002.173-.437.266-.44.094-.704.14a4 4 0 0 1-.328.047q-.644.19-1.28.344-.644.157-1.282.39c-1.625.493-3.024 1.028-4.188 1.61q-1.33.69-2.484 1.61-1.142.908-1.469 2.796-.645 3.435-4.078 6.422-1.324 1.156-2.719 1.156-.949-.001-1.64-.593-.921-.785-.922-2.078.002-1.285.953-2.422a12.4 12.4 0 0 1 2.844-2.61 33 33 0 0 1 3.312-1.984q1.062-.544 1.156-1.328.094-.78-.734-2.031a9 9 0 0 1-.61-.844l-.546-.89-.313-.563q-1.06-1.686 0-2.75 3.528-3.577 8.86-3.907h.234q1.185 0 1.828.735.686.784.422 2.11-.33 1.394-1.703 2.39a1.2 1.2 0 0 1-.266.187.64.64 0 0 1-.328.094q-.187 0-.422-.187-.27-.185-.234-.407.047-.234.187-.562.281-.498.532-.985.248-.48.531-.937c.094-.188.16-.367.203-.547q.077-.28-.156-.656a.9.9 0 0 0-.781-.406q-.094 0-.329.046h-.14c-2.938.305-5.293 1.422-7.063 3.36q-.879.954.235 2.25.59.69 1.093 1.515.497.863.954 1.438c.312.387.71.578 1.203.578q.42 0 1.015-.281a38 38 0 0 1 3.563-1.375q1.81-.593 3.422-1.063.263-.077.843-.218.575-.141 1.079-.141.279 0 .406.047a.8.8 0 0 0 .187.047m-17.625 13.734q3.669-1.94 4.5-7.172l-.28-.14q-.048.19-.517.437-.456.251-.812.438-.47.234-.547.328a29 29 0 0 0-1.984 1.515l-.313.266q-.733.64-1.531 1.484-.812.855-.906 1.828-.047.594.265.97.33.31.97.312.377 0 .671-.094.299-.095.484-.172m0 0"/></g><path d="M88.212 270.643h-.875v-8.5h.875Zm6.436-6.265v6.265h-.875v-9.03l4.781 6.78v-6.25h.875v9.032Zm9.645-1.453v-.813h5v.813h-2.062v7.687h-.875v-7.687Zm14.919 7.718h-5.047v-8.5h5.047v.813h-4.172v3.031h4.047v.813h-4.047v3.03h4.172Zm6.436-4.203h1.969c.5 0 .906-.164 1.218-.5a1.8 1.8 0 0 0 .485-1.265q-.001-.733-.453-1.22-.47-.468-1.25-.468h-1.97Zm4.547-1.734q-.001 1.112-.782 1.844a2.63 2.63 0 0 1-1.687.718l2.61 3.375h-1.173l-2.484-3.36h-1.031v3.36h-.875v-8.5h2.719q1.136.002 1.921.72.781.751.782 1.843m5.936 5.937h-.875v-8.5h.875Zm13.045-4.281q-.001-1.434-1.015-2.453a3.4 3.4 0 0 0-2.485-1.031q-1.44 0-2.453 1.03-1.03 1.02-1.031 2.454 0 1.454 1.031 2.484 1.013 1.018 2.453 1.016 1.453.002 2.485-1.016a3.42 3.42 0 0 0 1.015-2.484m.875 0q0 .908-.328 1.703a4.9 4.9 0 0 1-.937 1.39q-.61.6-1.407.938a4.2 4.2 0 0 1-1.703.344 4.2 4.2 0 0 1-1.687-.344 4.3 4.3 0 0 1-1.391-.937 4.3 4.3 0 0 1-.937-1.39 4.2 4.2 0 0 1-.344-1.704q-.001-.89.344-1.687a4.2 4.2 0 0 1 .937-1.391q.594-.592 1.39-.938a4.3 4.3 0 0 1 1.688-.343q.905.002 1.703.343.797.345 1.407.938.573.581.937 1.39.328.797.328 1.688m6.059.078h1.97c.5 0 .906-.164 1.218-.5a1.8 1.8 0 0 0 .484-1.265q0-.733-.453-1.22-.469-.468-1.25-.468h-1.968Zm4.547-1.734q0 1.112-.78 1.844a2.63 2.63 0 0 1-1.688.718l2.61 3.375h-1.173l-2.484-3.36h-1.031v3.36h-.875v-8.5h2.718q1.137.002 1.922.72.78.751.781 1.843m7.421 1.922q-2.594-.591-2.594-2.22-.002-1.2.829-1.796.843-.592 1.968-.594 2.485.002 2.953 1.844h-.953q-.253-1.092-2-1.094-1.219.002-1.718.72a1.2 1.2 0 0 0-.188.687q-.001.796.86 1.218c.257.149.828.328 1.703.547q1.294.345 1.875.75.81.58.812 1.61c0 .867-.336 1.515-1 1.953q-.86.549-2.11.547-2.83.002-3.265-2.141h1.031c.157.898.899 1.344 2.235 1.344.945 0 1.609-.258 1.984-.782q.234-.31.234-.859 0-.515-.421-.86c-.387-.312-1.133-.6-2.235-.874m19.278 1.593h-4.188v-.718h4.188Zm19.948-.171a4.1 4.1 0 0 1-1.547 1.953 4.08 4.08 0 0 1-2.39.765q-1.769.002-3.016-1.297c-.813-.851-1.22-1.875-1.22-3.062q0-.89.329-1.688a4.5 4.5 0 0 1 .89-1.39q1.248-1.296 3.016-1.297 1.296.001 2.375.734a4.17 4.17 0 0 1 1.547 1.97h-.953c-.461-.845-1.14-1.407-2.047-1.688a4 4 0 0 0-1.047-.125q-.581 0-1.203.28a3.4 3.4 0 0 0-1.062.766q-.972 1.02-.97 2.438-.002 1.407.97 2.422.996 1.03 2.39 1.031a3.2 3.2 0 0 0 1.75-.5q.796-.498 1.235-1.312Zm11.153-.22q-.001 1.377-.906 2.173-.845.75-2.266.75-1.423 0-2.265-.75-.907-.796-.906-2.172v-5.688h.875v5.813q0 .972.703 1.469.591.454 1.593.453 1.56 0 2.11-1.047.187-.358.187-.875v-5.813h.875Zm7.723-1.202q-2.594-.591-2.593-2.22c0-.8.273-1.398.828-1.796q.844-.592 1.969-.594 2.484.002 2.953 1.844h-.953q-.253-1.092-2-1.094-1.22.002-1.72.72a1.2 1.2 0 0 0-.187.687q-.001.796.86 1.218c.258.149.828.328 1.703.547q1.294.345 1.875.75.81.58.812 1.61c0 .867-.336 1.515-1 1.953q-.861.549-2.109.547-2.831.002-3.266-2.141h1.032q.232 1.346 2.234 1.344c.945 0 1.61-.258 1.984-.782q.235-.31.235-.859 0-.515-.422-.86c-.387-.312-1.133-.6-2.235-.874m7.812-3.703v-.813h5v.813h-2.063v7.687h-.875v-7.687Zm17.355 3.437q-.001-1.434-1.015-2.453a3.4 3.4 0 0 0-2.485-1.031q-1.44 0-2.453 1.03-1.03 1.02-1.03 2.454 0 1.454 1.03 2.484c.676.68 1.493 1.016 2.453 1.016q1.454.002 2.485-1.016a3.42 3.42 0 0 0 1.015-2.484m.875 0q0 .908-.328 1.703a4.9 4.9 0 0 1-.937 1.39q-.61.6-1.406.938a4.2 4.2 0 0 1-1.704.344 4.2 4.2 0 0 1-1.687-.344 4.3 4.3 0 0 1-1.39-.937 4.3 4.3 0 0 1-.938-1.39 4.2 4.2 0 0 1-.344-1.704q-.001-.89.344-1.687a4.2 4.2 0 0 1 .937-1.391q.594-.592 1.391-.938a4.3 4.3 0 0 1 1.687-.343q.904.002 1.704.343.796.345 1.406.938.574.581.937 1.39.329.797.328 1.688m13.028 4.281-1.327-6.047-2.547 6.547-2.563-6.547-1.312 6.047h-.907l1.985-9.062 2.797 7.281 2.78-7.281 1.97 9.062Zm13.561 0h-.875v-8.5h.875v3.828h3.86v-3.828h.874v8.5h-.875v-3.797h-3.859Zm17.779-4.281q-.001-1.434-1.015-2.453a3.4 3.4 0 0 0-2.484-1.031q-1.441 0-2.453 1.03-1.032 1.02-1.032 2.454 0 1.454 1.032 2.484 1.012 1.018 2.453 1.016 1.454.002 2.484-1.016a3.42 3.42 0 0 0 1.016-2.484m.876 0q0 .908-.328 1.703a4.9 4.9 0 0 1-.938 1.39q-.61.6-1.406.938a4.2 4.2 0 0 1-1.703.344 4.2 4.2 0 0 1-1.688-.344 4.3 4.3 0 0 1-1.39-.937 4.3 4.3 0 0 1-.938-1.39 4.2 4.2 0 0 1-.344-1.704q0-.89.344-1.687a4.2 4.2 0 0 1 .938-1.391q.592-.592 1.39-.938a4.3 4.3 0 0 1 1.688-.343c.601 0 1.172.117 1.703.343q.797.345 1.406.938.574.581.938 1.39.328.797.328 1.688m13.027 4.281-1.328-6.047-2.547 6.547-2.563-6.547-1.312 6.047h-.906l1.984-9.062 2.797 7.281 2.781-7.281 1.969 9.062Zm10.672 0h-5.047v-8.5h5.047v.813h-4.172v3.031h4.047v.813h-4.047v3.03h4.172Zm7.921-4.015q-2.595-.591-2.594-2.22c0-.8.273-1.398.828-1.796q.844-.592 1.969-.594 2.484.002 2.953 1.844h-.953q-.253-1.092-2-1.094-1.22.002-1.72.72a1.2 1.2 0 0 0-.187.687q0 .796.86 1.218c.258.149.828.328 1.703.547q1.295.345 1.875.75.81.58.812 1.61c0 .867-.336 1.515-1 1.953q-.861.549-2.109.547-2.831.002-3.266-2.141h1.032q.232 1.346 2.234 1.344c.945 0 1.61-.258 1.984-.782q.235-.31.235-.859 0-.515-.422-.86c-.387-.312-1.133-.6-2.234-.874m19.277 1.593h-4.187v-.718h4.187Zm13.026-1.781h1.969c.5 0 .906-.164 1.219-.5a1.8 1.8 0 0 0 .484-1.265q0-.733-.453-1.22-.47-.468-1.25-.468h-1.969Zm4.547-1.734q-.001 1.112-.781 1.844a2.63 2.63 0 0 1-1.688.718l2.61 3.375h-1.172l-2.485-3.36h-1.03v3.36h-.876v-8.5h2.719q1.137.002 1.922.72.78.751.781 1.843m10.108 5.937h-5.047v-8.5h5.047v.813h-4.172v3.031h4.047v.813h-4.047v3.03h4.172Zm6.937-3.125h3.093l-1.547-3.906Zm5.28 3.125h-.952l-.922-2.312h-3.735l-.906 2.312h-.953l3.734-9.093Zm5.615-.875h3.03v.875h-3.905v-8.5h.875Zm7.221-6.843v-.813h5v.813h-2.062v7.687h-.875v-7.687Zm13.153 3.718v4h-.875v-4l-3.219-4.5h1.125l2.532 3.64 2.547-3.64h1.109Zm0 0"/></svg>