<svg xmlns="http://www.w3.org/2000/svg" xmlns:xlink="http://www.w3.org/1999/xlink" width="672" zoomAndPan="magnify" viewBox="0 0 504 359.999987" height="480" preserveAspectRatio="xMidYMid meet" version="1.0"><defs><g/><clipPath id="2ae8d7ed96"><path d="M 0.839844 29 L 88 29 L 88 273.839844 L 0.839844 273.839844 Z M 0.839844 29 " clip-rule="nonzero"/></clipPath><clipPath id="a778772164"><path d="M 0.839844 189 L 211.558594 189 L 211.558594 273.839844 L 0.839844 273.839844 Z M 0.839844 189 " clip-rule="nonzero"/></clipPath><clipPath id="ff54ddc76c"><path d="M 0.839844 0 L 182 0 L 182 182 L 0.839844 182 Z M 0.839844 0 " clip-rule="nonzero"/></clipPath><clipPath id="e07b853333"><path d="M 27 0 L 211.558594 0 L 211.558594 182 L 27 182 Z M 27 0 " clip-rule="nonzero"/></clipPath><clipPath id="8e8f2f0fda"><rect x="0" width="212" y="0" height="274"/></clipPath><clipPath id="9c1a611446"><path d="M 41.308594 173.65625 L 473.855469 173.65625 L 473.855469 283.019531 L 41.308594 283.019531 Z M 41.308594 173.65625 " clip-rule="nonzero"/></clipPath><clipPath id="b163adddc0"><path d="M 0.308594 0.65625 L 432.855469 0.65625 L 432.855469 110.019531 L 0.308594 110.019531 Z M 0.308594 0.65625 " clip-rule="nonzero"/></clipPath><clipPath id="95f7a67a1b"><rect x="0" width="433" y="0" height="111"/></clipPath><clipPath id="9517949a56"><rect x="0" width="438" y="0" height="73"/></clipPath></defs><rect x="-50.4" width="604.8" fill="#ffffff" y="-35.999999" height="431.999984" fill-opacity="1"/><rect x="-50.4" width="604.8" fill="#ffffff" y="-35.999999" height="431.999984" fill-opacity="1"/><g transform="matrix(1, 0, 0, 1, 147, 42)"><g clip-path="url(#8e8f2f0fda)"><g clip-path="url(#2ae8d7ed96)"><path stroke-linecap="butt" transform="matrix(-0.00997383, -1.00698, 1.00698, -0.00997383, 7.138635, 266.710024)" fill="none" stroke-linejoin="miter" d="M 0.000662698 6.499596 L 161.560403 6.501577 " stroke="#383434" stroke-width="13" stroke-opacity="1" stroke-miterlimit="4"/></g><g clip-path="url(#a778772164)"><path stroke-linecap="butt" transform="matrix(-1.00702, -0.00442579, 0.00442579, -1.00702, 204.403633, 270.635776)" fill="none" stroke-linejoin="miter" d="M -0.0011836 6.500305 L 194.582048 6.498509 " stroke="#383434" stroke-width="13" stroke-opacity="1" stroke-miterlimit="4"/></g><g clip-path="url(#ff54ddc76c)"><path stroke-linecap="butt" transform="matrix(0.712078, -0.712078, 0.712078, 0.712078, 5.866609, 102.678152)" fill="none" stroke-linejoin="miter" d="M -0.000671903 6.50205 L 136.667533 6.499307 " stroke="#383434" stroke-width="13" stroke-opacity="1" stroke-miterlimit="4"/></g><g clip-path="url(#e07b853333)"><path stroke-linecap="butt" transform="matrix(0.712078, 0.712078, -0.712078, 0.712078, 105.895799, 5.390793)" fill="none" stroke-linejoin="miter" d="M -0.00100849 6.501337 L 136.637025 6.501337 " stroke="#383434" stroke-width="13" stroke-opacity="1" stroke-miterlimit="4"/></g></g></g><g clip-path="url(#9c1a611446)"><g transform="matrix(1, 0, 0, 1, 41, 173)"><g clip-path="url(#95f7a67a1b)"><g clip-path="url(#b163adddc0)"><path fill="#ffffff" d="M 0.308594 0.65625 L 432.644531 0.65625 L 432.644531 110.019531 L 0.308594 110.019531 Z M 0.308594 0.65625 " fill-opacity="1" fill-rule="nonzero"/></g></g></g></g><g transform="matrix(1, 0, 0, 1, 35, 165)"><g clip-path="url(#9517949a56)"><g fill="#000000" fill-opacity="1"><g transform="translate(0.488199, 47.316634)"><g><path d="M 30.859375 -8.859375 L 29.25 -5.09375 C 27.96875 -1.851562 26.582031 1.429688 25.09375 4.765625 C 23.613281 8.109375 21.894531 11.328125 19.9375 14.421875 C 19.039062 15.828125 18.066406 17.203125 17.015625 18.546875 C 15.960938 19.898438 14.726562 21.097656 13.3125 22.140625 C 11.84375 23.203125 10.3125 23.84375 8.71875 24.0625 C 8.414062 24.125 8.113281 24.15625 7.8125 24.15625 C 6.3125 24.15625 5.054688 23.679688 4.046875 22.734375 C 2.941406 21.691406 2.34375 20.328125 2.25 18.640625 C 2.09375 16.316406 2.421875 14.257812 3.234375 12.46875 C 4.046875 10.675781 4.988281 9.015625 6.0625 7.484375 C 11.019531 0.472656 17.738281 -4.453125 26.21875 -7.296875 C 26.613281 -7.453125 27.003906 -7.648438 27.390625 -7.890625 C 27.773438 -8.140625 28.054688 -8.523438 28.234375 -9.046875 C 28.847656 -10.484375 29.453125 -11.921875 30.046875 -13.359375 C 30.648438 -14.796875 31.257812 -16.238281 31.875 -17.6875 C 32.570312 -19.363281 33.265625 -21.039062 33.953125 -22.71875 C 34.648438 -24.40625 35.347656 -26.09375 36.046875 -27.78125 C 36.410156 -28.695312 36.726562 -29.660156 37 -30.671875 C 37.28125 -31.679688 37.40625 -32.769531 37.375 -33.9375 C 37.3125 -34.976562 37.023438 -35.742188 36.515625 -36.234375 C 36.015625 -36.722656 35.25 -36.984375 34.21875 -37.015625 L 34.03125 -37.015625 C 32.863281 -37.015625 31.78125 -36.867188 30.78125 -36.578125 C 29.789062 -36.285156 28.851562 -35.972656 27.96875 -35.640625 C 22.664062 -33.523438 18.132812 -30.828125 14.375 -27.546875 C 13.757812 -27.023438 13.304688 -26.570312 13.015625 -26.1875 C 12.722656 -25.8125 12.609375 -25.425781 12.671875 -25.03125 C 12.765625 -24.632812 13.046875 -24.203125 13.515625 -23.734375 C 13.992188 -23.273438 14.617188 -22.726562 15.390625 -22.09375 C 15.503906 -22 15.628906 -21.894531 15.765625 -21.78125 C 15.910156 -21.675781 16.054688 -21.566406 16.203125 -21.453125 C 16.609375 -21.203125 16.992188 -20.921875 17.359375 -20.609375 C 17.722656 -20.304688 17.953125 -20.019531 18.046875 -19.75 C 18.140625 -19.5 18.109375 -19.253906 17.953125 -19.015625 C 17.796875 -18.828125 17.613281 -18.734375 17.40625 -18.734375 C 17.125 -18.734375 16.785156 -18.863281 16.390625 -19.125 C 15.992188 -19.382812 15.613281 -19.65625 15.25 -19.9375 C 15.09375 -20.050781 14.9375 -20.160156 14.78125 -20.265625 C 14.632812 -20.378906 14.5 -20.484375 14.375 -20.578125 C 12.070312 -22.078125 10.769531 -23.484375 10.46875 -24.796875 C 10.195312 -26.078125 10.867188 -27.347656 12.484375 -28.609375 C 17.941406 -32.867188 24.097656 -35.960938 30.953125 -37.890625 C 31.078125 -37.921875 31.191406 -37.941406 31.296875 -37.953125 C 31.398438 -37.972656 31.5 -37.984375 31.59375 -37.984375 C 32.238281 -38.066406 32.835938 -38.109375 33.390625 -38.109375 C 35.222656 -38.109375 36.582031 -37.648438 37.46875 -36.734375 C 38.539062 -35.628906 38.925781 -33.820312 38.625 -31.3125 C 38.40625 -29.507812 38.019531 -27.789062 37.46875 -26.15625 C 36.914062 -24.519531 36.335938 -22.921875 35.734375 -21.359375 C 35.578125 -21.015625 35.4375 -20.679688 35.3125 -20.359375 C 35.1875 -20.046875 35.066406 -19.734375 34.953125 -19.421875 C 34.515625 -18.265625 34.070312 -17.117188 33.625 -15.984375 C 33.1875 -14.847656 32.722656 -13.664062 32.234375 -12.4375 Z M 26.453125 -5.46875 C 26.296875 -5.644531 26.113281 -5.734375 25.90625 -5.734375 C 25.6875 -5.734375 25.476562 -5.6875 25.28125 -5.59375 C 25.082031 -5.507812 24.90625 -5.421875 24.75 -5.328125 C 24.625 -5.265625 24.53125 -5.21875 24.46875 -5.1875 C 22.914062 -4.507812 21.429688 -3.789062 20.015625 -3.03125 C 17.109375 -1.40625 14.507812 0.460938 12.21875 2.578125 C 9.34375 5.171875 6.921875 8.171875 4.953125 11.578125 C 3.609375 13.867188 3 16.132812 3.125 18.375 C 3.1875 19.84375 3.644531 20.972656 4.5 21.765625 C 5.175781 22.441406 6.035156 22.78125 7.078125 22.78125 C 7.566406 22.78125 8.085938 22.6875 8.640625 22.5 C 10.285156 21.945312 11.722656 20.984375 12.953125 19.609375 C 15.367188 16.878906 17.441406 13.921875 19.171875 10.734375 C 20.898438 7.554688 22.410156 4.5 23.703125 1.5625 C 23.972656 0.945312 24.242188 0.328125 24.515625 -0.296875 C 24.796875 -0.921875 25.070312 -1.539062 25.34375 -2.15625 C 25.375 -2.25 25.453125 -2.414062 25.578125 -2.65625 C 25.972656 -3.425781 26.257812 -4.039062 26.4375 -4.5 C 26.625 -4.957031 26.628906 -5.28125 26.453125 -5.46875 Z M 26.453125 -5.46875 "/></g></g></g><g fill="#000000" fill-opacity="1"><g transform="translate(34.093148, 47.316634)"><g><path d="M 16.484375 -7.4375 C 16.734375 -7.40625 16.875 -7.359375 16.90625 -7.296875 C 16.925781 -7.117188 16.8125 -6.953125 16.5625 -6.796875 C 16.320312 -6.640625 16.050781 -6.507812 15.75 -6.40625 C 15.445312 -6.300781 15.21875 -6.234375 15.0625 -6.203125 C 14.269531 -5.953125 13.472656 -5.828125 12.671875 -5.828125 C 11.941406 -5.828125 11.222656 -5.90625 10.515625 -6.0625 C 10.148438 -6.15625 9.828125 -6.203125 9.546875 -6.203125 C 8.816406 -6.203125 8.28125 -5.816406 7.9375 -5.046875 C 7.050781 -3.085938 5.644531 -1.484375 3.71875 -0.234375 C 3.476562 -0.078125 3.195312 0.0664062 2.875 0.203125 C 2.550781 0.335938 2.207031 0.40625 1.84375 0.40625 C 1.375 0.40625 0.925781 0.269531 0.5 0 C -0.101562 -0.394531 -0.453125 -0.882812 -0.546875 -1.46875 C -0.640625 -2.050781 -0.671875 -2.648438 -0.640625 -3.265625 C -0.460938 -6.378906 0.757812 -9.101562 3.03125 -11.4375 C 3.300781 -11.707031 3.570312 -11.976562 3.84375 -12.25 C 4.125 -12.53125 4.40625 -12.8125 4.6875 -13.09375 C 5.144531 -13.488281 5.648438 -13.6875 6.203125 -13.6875 C 6.566406 -13.6875 6.929688 -13.609375 7.296875 -13.453125 C 8.160156 -13.054688 8.742188 -12.273438 9.046875 -11.109375 C 9.316406 -10.128906 9.332031 -9.179688 9.09375 -8.265625 C 8.96875 -7.742188 9.015625 -7.363281 9.234375 -7.125 C 9.472656 -6.84375 9.914062 -6.6875 10.5625 -6.65625 C 10.957031 -6.65625 11.335938 -6.65625 11.703125 -6.65625 C 12.597656 -6.65625 13.410156 -6.71875 14.140625 -6.84375 C 14.296875 -6.84375 14.445312 -6.875 14.59375 -6.9375 C 14.75 -7 14.90625 -7.070312 15.0625 -7.15625 C 15.25 -7.21875 15.441406 -7.285156 15.640625 -7.359375 C 15.835938 -7.441406 16.039062 -7.484375 16.25 -7.484375 C 16.34375 -7.484375 16.421875 -7.46875 16.484375 -7.4375 Z M 6.984375 -6.984375 C 6.984375 -7.078125 6.984375 -7.164062 6.984375 -7.25 C 6.890625 -7.40625 6.796875 -7.53125 6.703125 -7.625 C 6.609375 -7.71875 6.515625 -7.8125 6.421875 -7.90625 C 6.210938 -8.113281 6 -8.316406 5.78125 -8.515625 C 5.570312 -8.710938 5.34375 -8.921875 5.09375 -9.140625 C 5.03125 -9.171875 4.941406 -9.257812 4.828125 -9.40625 C 4.703125 -9.5625 4.566406 -9.703125 4.421875 -9.828125 C 4.285156 -9.953125 4.144531 -10.015625 4 -10.015625 C 3.8125 -10.015625 3.640625 -9.921875 3.484375 -9.734375 C 2.597656 -8.484375 1.867188 -7.242188 1.296875 -6.015625 C 0.734375 -4.785156 0.4375 -3.4375 0.40625 -1.96875 C 0.40625 -1.476562 0.546875 -1.097656 0.828125 -0.828125 C 1.015625 -0.671875 1.242188 -0.59375 1.515625 -0.59375 C 1.734375 -0.59375 1.960938 -0.65625 2.203125 -0.78125 C 3.515625 -1.425781 4.523438 -2.296875 5.234375 -3.390625 C 5.941406 -4.492188 6.507812 -5.550781 6.9375 -6.5625 C 6.96875 -6.625 6.984375 -6.765625 6.984375 -6.984375 Z M 7.34375 -8.8125 C 7.4375 -9.207031 7.484375 -9.613281 7.484375 -10.03125 C 7.484375 -10.445312 7.269531 -10.851562 6.84375 -11.25 C 6.71875 -11.40625 6.566406 -11.484375 6.390625 -11.484375 C 6.140625 -11.484375 5.914062 -11.390625 5.71875 -11.203125 C 5.519531 -11.015625 5.390625 -10.847656 5.328125 -10.703125 C 5.171875 -10.242188 5.226562 -9.851562 5.5 -9.53125 C 5.78125 -9.207031 6.085938 -8.910156 6.421875 -8.640625 C 6.515625 -8.578125 6.613281 -8.503906 6.71875 -8.421875 C 6.832031 -8.347656 6.9375 -8.265625 7.03125 -8.171875 L 7.203125 -7.984375 L 7.25 -8.171875 C 7.25 -8.296875 7.265625 -8.410156 7.296875 -8.515625 C 7.328125 -8.617188 7.34375 -8.71875 7.34375 -8.8125 Z M 7.34375 -8.8125 "/></g></g></g><g fill="#000000" fill-opacity="1"><g transform="translate(49.656098, 47.316634)"><g><path d="M 25.296875 -7.71875 C 25.484375 -7.59375 25.59375 -7.46875 25.625 -7.34375 C 25.65625 -7.21875 25.628906 -7.101562 25.546875 -7 C 25.472656 -6.894531 25.390625 -6.796875 25.296875 -6.703125 C 25.179688 -6.578125 25.109375 -6.484375 25.078125 -6.421875 C 22.535156 -2.503906 18.9375 0.765625 14.28125 3.390625 C 13.789062 3.671875 13.164062 3.8125 12.40625 3.8125 L 12.3125 3.8125 C 11.539062 3.8125 10.957031 3.613281 10.5625 3.21875 C 10.132812 2.820312 9.921875 2.222656 9.921875 1.421875 C 9.921875 0.722656 10.054688 0.09375 10.328125 -0.46875 C 10.609375 -1.039062 10.898438 -1.585938 11.203125 -2.109375 L 11.671875 -2.84375 C 11.753906 -3.03125 11.847656 -3.210938 11.953125 -3.390625 C 12.066406 -3.578125 12.171875 -3.765625 12.265625 -3.953125 L 12.3125 -4.09375 C 12.375 -4.207031 12.425781 -4.359375 12.46875 -4.546875 C 12.507812 -4.734375 12.425781 -4.929688 12.21875 -5.140625 C 11.96875 -5.390625 11.675781 -5.515625 11.34375 -5.515625 C 11.21875 -5.515625 11.078125 -5.484375 10.921875 -5.421875 C 10.316406 -5.296875 9.710938 -5.148438 9.109375 -4.984375 C 8.515625 -4.816406 7.910156 -4.640625 7.296875 -4.453125 C 6.535156 -4.179688 5.796875 -3.859375 5.078125 -3.484375 C 4.359375 -3.117188 3.660156 -2.738281 2.984375 -2.34375 C 2.679688 -2.1875 2.382812 -2.023438 2.09375 -1.859375 C 1.800781 -1.691406 1.5 -1.53125 1.1875 -1.375 L 1.015625 -1.28125 C 0.890625 -1.1875 0.75 -1.109375 0.59375 -1.046875 C 0.445312 -0.992188 0.296875 -0.96875 0.140625 -0.96875 C -0.140625 -0.96875 -0.429688 -1.085938 -0.734375 -1.328125 C -1.066406 -1.640625 -1.234375 -1.925781 -1.234375 -2.1875 C -1.234375 -2.445312 -1.203125 -2.710938 -1.140625 -2.984375 L -1.109375 -3.171875 C -0.554688 -5.679688 0.378906 -7.914062 1.703125 -9.875 L 1.796875 -10.015625 C 1.847656 -10.128906 1.921875 -10.238281 2.015625 -10.34375 C 2.109375 -10.457031 2.21875 -10.515625 2.34375 -10.515625 C 2.4375 -10.515625 2.53125 -10.484375 2.625 -10.421875 C 2.832031 -10.328125 2.96875 -10.207031 3.03125 -10.0625 C 3.1875 -9.75 3.191406 -9.382812 3.046875 -8.96875 C 2.910156 -8.5625 2.769531 -8.21875 2.625 -7.9375 C 2.53125 -7.757812 2.484375 -7.640625 2.484375 -7.578125 L 0.875 -3.390625 C 0.84375 -3.335938 0.8125 -3.238281 0.78125 -3.09375 C 0.75 -2.957031 0.796875 -2.84375 0.921875 -2.75 C 1.046875 -2.664062 1.195312 -2.625 1.375 -2.625 C 1.5625 -2.625 1.773438 -2.660156 2.015625 -2.734375 C 2.265625 -2.804688 2.4375 -2.875 2.53125 -2.9375 C 2.675781 -3 2.8125 -3.066406 2.9375 -3.140625 C 3.0625 -3.222656 3.1875 -3.304688 3.3125 -3.390625 C 3.457031 -3.515625 3.597656 -3.625 3.734375 -3.71875 C 3.878906 -3.8125 4.023438 -3.890625 4.171875 -3.953125 C 4.660156 -4.191406 5.15625 -4.414062 5.65625 -4.625 C 6.164062 -4.84375 6.679688 -5.0625 7.203125 -5.28125 C 8.460938 -5.800781 9.644531 -6.140625 10.75 -6.296875 C 10.925781 -6.328125 11.09375 -6.34375 11.25 -6.34375 C 12.039062 -6.34375 12.671875 -6.082031 13.140625 -5.5625 C 13.660156 -4.976562 13.796875 -4.253906 13.546875 -3.390625 C 13.421875 -2.878906 13.257812 -2.375 13.0625 -1.875 C 12.863281 -1.382812 12.671875 -0.894531 12.484375 -0.40625 C 12.367188 -0.132812 12.253906 0.132812 12.140625 0.40625 C 12.035156 0.6875 11.921875 0.960938 11.796875 1.234375 L 11.75 1.421875 C 11.664062 1.578125 11.609375 1.757812 11.578125 1.96875 C 11.546875 2.1875 11.617188 2.390625 11.796875 2.578125 C 12.046875 2.816406 12.320312 2.9375 12.625 2.9375 C 12.75 2.9375 12.867188 2.921875 12.984375 2.890625 C 13.109375 2.859375 13.234375 2.828125 13.359375 2.796875 C 14.796875 2.367188 16.050781 1.734375 17.125 0.890625 C 18.195312 0.046875 19.160156 -0.800781 20.015625 -1.65625 C 20.722656 -2.351562 21.484375 -3.140625 22.296875 -4.015625 C 23.109375 -4.890625 23.789062 -5.878906 24.34375 -6.984375 L 24.4375 -7.078125 C 24.488281 -7.222656 24.566406 -7.378906 24.671875 -7.546875 C 24.785156 -7.722656 24.921875 -7.8125 25.078125 -7.8125 C 25.140625 -7.8125 25.210938 -7.78125 25.296875 -7.71875 Z M 25.296875 -7.71875 "/></g></g></g><g fill="#000000" fill-opacity="1"><g transform="translate(73.941643, 47.316634)"><g><path d="M 15.703125 -6.796875 C 15.921875 -6.921875 16.164062 -6.984375 16.4375 -6.984375 C 16.46875 -6.828125 16.40625 -6.679688 16.25 -6.546875 C 16.101562 -6.410156 15.96875 -6.28125 15.84375 -6.15625 L 15.5625 -5.921875 C 14.46875 -5.097656 13.351562 -4.296875 12.21875 -3.515625 C 11.082031 -2.734375 9.863281 -2.085938 8.5625 -1.578125 C 7.257812 -1.078125 5.8125 -0.828125 4.21875 -0.828125 L 4.046875 -0.828125 C 2.484375 -0.828125 1.269531 -1.300781 0.40625 -2.25 C -0.351562 -3.132812 -0.613281 -4.207031 -0.375 -5.46875 C 0.488281 -9.65625 3.21875 -12.363281 7.8125 -13.59375 C 8.050781 -13.65625 8.296875 -13.6875 8.546875 -13.6875 C 9.273438 -13.6875 9.867188 -13.363281 10.328125 -12.71875 C 10.703125 -12.226562 10.816406 -11.804688 10.671875 -11.453125 C 10.535156 -11.097656 10.332031 -10.738281 10.0625 -10.375 C 8.832031 -8.875 6.8125 -7.910156 4 -7.484375 C 2.988281 -7.328125 2.328125 -6.925781 2.015625 -6.28125 C 1.710938 -5.644531 1.484375 -4.957031 1.328125 -4.21875 L 1.28125 -3.90625 C 1.1875 -3.476562 1.265625 -3.078125 1.515625 -2.703125 C 1.847656 -2.242188 2.382812 -1.910156 3.125 -1.703125 C 3.675781 -1.546875 4.257812 -1.46875 4.875 -1.46875 C 5.363281 -1.46875 5.835938 -1.515625 6.296875 -1.609375 C 6.753906 -1.703125 7.242188 -1.820312 7.765625 -1.96875 C 9.378906 -2.425781 11 -3.207031 12.625 -4.3125 C 13.332031 -4.769531 14.035156 -5.320312 14.734375 -5.96875 C 14.796875 -6 14.859375 -6.046875 14.921875 -6.109375 C 14.984375 -6.171875 15.046875 -6.234375 15.109375 -6.296875 C 15.203125 -6.378906 15.289062 -6.457031 15.375 -6.53125 C 15.46875 -6.613281 15.578125 -6.703125 15.703125 -6.796875 Z M 4.546875 -9.140625 L 4.21875 -8.765625 L 4.734375 -8.90625 C 5.804688 -9.15625 6.71875 -9.476562 7.46875 -9.875 C 8.21875 -10.269531 8.863281 -10.910156 9.40625 -11.796875 L 9.59375 -12.171875 L 9.1875 -12.03125 C 8.300781 -11.757812 7.472656 -11.414062 6.703125 -11 C 5.941406 -10.582031 5.222656 -9.960938 4.546875 -9.140625 Z M 4.546875 -9.140625 "/></g></g></g><g fill="#000000" fill-opacity="1"><g transform="translate(89.59641, 47.316634)"><g><path d="M 15.609375 -8.125 L 15.703125 -7.9375 C 15.703125 -7.820312 15.554688 -7.734375 15.265625 -7.671875 C 14.972656 -7.609375 14.738281 -7.5625 14.5625 -7.53125 C 14.375 -7.5 14.265625 -7.484375 14.234375 -7.484375 C 13.804688 -7.359375 13.378906 -7.242188 12.953125 -7.140625 C 12.523438 -7.035156 12.097656 -6.90625 11.671875 -6.75 C 10.046875 -6.257812 8.648438 -5.722656 7.484375 -5.140625 C 6.597656 -4.679688 5.769531 -4.144531 5 -3.53125 C 4.238281 -2.925781 3.75 -1.992188 3.53125 -0.734375 C 3.101562 1.554688 1.742188 3.695312 -0.546875 5.6875 C -1.429688 6.457031 -2.335938 6.84375 -3.265625 6.84375 C -3.898438 6.84375 -4.445312 6.644531 -4.90625 6.25 C -5.519531 5.726562 -5.828125 5.035156 -5.828125 4.171875 C -5.828125 3.316406 -5.507812 2.507812 -4.875 1.75 C -4.070312 0.738281 -3.125 -0.128906 -2.03125 -0.859375 C -0.945312 -1.597656 0.15625 -2.257812 1.28125 -2.84375 C 1.988281 -3.207031 2.375 -3.648438 2.4375 -4.171875 C 2.5 -4.691406 2.253906 -5.367188 1.703125 -6.203125 C 1.484375 -6.472656 1.28125 -6.753906 1.09375 -7.046875 C 0.914062 -7.335938 0.734375 -7.632812 0.546875 -7.9375 L 0.234375 -8.5 C -0.472656 -9.625 -0.472656 -10.539062 0.234375 -11.25 C 2.585938 -13.632812 5.539062 -14.9375 9.09375 -15.15625 L 9.328125 -15.15625 C 10.117188 -15.15625 10.726562 -14.910156 11.15625 -14.421875 C 11.613281 -13.898438 11.753906 -13.195312 11.578125 -12.3125 C 11.359375 -11.382812 10.789062 -10.585938 9.875 -9.921875 C 9.8125 -9.859375 9.722656 -9.796875 9.609375 -9.734375 C 9.503906 -9.671875 9.394531 -9.640625 9.28125 -9.640625 C 9.15625 -9.640625 9.015625 -9.703125 8.859375 -9.828125 C 8.679688 -9.953125 8.601562 -10.085938 8.625 -10.234375 C 8.65625 -10.390625 8.71875 -10.578125 8.8125 -10.796875 C 9 -11.128906 9.175781 -11.457031 9.34375 -11.78125 C 9.507812 -12.101562 9.6875 -12.414062 9.875 -12.71875 C 9.96875 -12.90625 10.035156 -13.085938 10.078125 -13.265625 C 10.128906 -13.453125 10.078125 -13.671875 9.921875 -13.921875 C 9.734375 -14.191406 9.472656 -14.328125 9.140625 -14.328125 C 9.078125 -14.328125 8.96875 -14.3125 8.8125 -14.28125 L 8.671875 -14.28125 C 5.734375 -13.976562 3.378906 -12.859375 1.609375 -10.921875 C 1.023438 -10.285156 1.101562 -9.535156 1.84375 -8.671875 C 2.238281 -8.210938 2.601562 -7.707031 2.9375 -7.15625 C 3.269531 -6.582031 3.585938 -6.101562 3.890625 -5.71875 C 4.203125 -5.332031 4.601562 -5.140625 5.09375 -5.140625 C 5.375 -5.140625 5.710938 -5.234375 6.109375 -5.421875 C 7.273438 -5.941406 8.460938 -6.398438 9.671875 -6.796875 C 10.878906 -7.191406 12.019531 -7.546875 13.09375 -7.859375 C 13.269531 -7.910156 13.550781 -7.984375 13.9375 -8.078125 C 14.320312 -8.171875 14.679688 -8.21875 15.015625 -8.21875 C 15.203125 -8.21875 15.335938 -8.203125 15.421875 -8.171875 C 15.515625 -8.140625 15.578125 -8.125 15.609375 -8.125 Z M -2.015625 5.609375 C 0.429688 4.316406 1.929688 1.925781 2.484375 -1.5625 L 2.203125 -1.703125 C 2.171875 -1.578125 2 -1.429688 1.6875 -1.265625 C 1.382812 -1.097656 1.113281 -0.953125 0.875 -0.828125 C 0.5625 -0.671875 0.378906 -0.5625 0.328125 -0.5 C -0.410156 0.0195312 -1.070312 0.523438 -1.65625 1.015625 L -1.96875 1.28125 C -2.457031 1.707031 -2.96875 2.203125 -3.5 2.765625 C -4.039062 3.335938 -4.34375 3.945312 -4.40625 4.59375 C -4.4375 4.988281 -4.347656 5.3125 -4.140625 5.5625 C -3.921875 5.769531 -3.597656 5.875 -3.171875 5.875 C -2.921875 5.875 -2.695312 5.84375 -2.5 5.78125 C -2.300781 5.71875 -2.140625 5.660156 -2.015625 5.609375 Z M -2.015625 5.609375 "/></g></g></g><g fill="#000000" fill-opacity="1"><g transform="translate(103.965745, 47.316634)"><g/></g></g><g fill="#000000" fill-opacity="1"><g transform="translate(117.738271, 47.316634)"><g><path d="M 4 12.671875 C 3.476562 12.671875 3.019531 12.425781 2.625 11.9375 C 2.15625 11.382812 2.039062 10.894531 2.28125 10.46875 C 2.53125 10.039062 2.84375 9.628906 3.21875 9.234375 C 3.332031 9.109375 3.441406 8.984375 3.546875 8.859375 C 3.660156 8.734375 3.765625 8.613281 3.859375 8.5 C 4.535156 7.488281 5.414062 6.085938 6.5 4.296875 C 7.582031 2.503906 8.773438 0.5 10.078125 -1.71875 C 11.378906 -3.9375 12.703125 -6.234375 14.046875 -8.609375 C 15.398438 -10.984375 16.710938 -13.285156 17.984375 -15.515625 C 19.253906 -17.753906 20.40625 -19.773438 21.4375 -21.578125 C 22.476562 -23.390625 23.304688 -24.816406 23.921875 -25.859375 C 25.273438 -28.117188 26.65625 -30.421875 28.0625 -32.765625 C 29.46875 -35.109375 30.90625 -37.410156 32.375 -39.671875 C 33.019531 -40.679688 33.671875 -41.660156 34.328125 -42.609375 C 34.984375 -43.554688 35.601562 -44.460938 36.1875 -45.328125 C 36.28125 -45.472656 36.394531 -45.613281 36.53125 -45.75 C 36.664062 -45.894531 36.8125 -45.96875 36.96875 -45.96875 C 37.125 -45.96875 37.273438 -45.921875 37.421875 -45.828125 C 37.910156 -45.460938 38.019531 -44.894531 37.75 -44.125 C 37.320312 -42.9375 36.785156 -41.789062 36.140625 -40.6875 C 35.492188 -39.582031 34.851562 -38.507812 34.21875 -37.46875 L 33.84375 -36.875 C 32.957031 -35.5 32.09375 -34.117188 31.25 -32.734375 C 30.40625 -31.359375 29.554688 -29.96875 28.703125 -28.5625 C 28.335938 -27.976562 27.769531 -27.015625 27 -25.671875 C 26.238281 -24.328125 25.359375 -22.765625 24.359375 -20.984375 C 23.367188 -19.210938 22.328125 -17.359375 21.234375 -15.421875 C 20.148438 -13.492188 19.101562 -11.640625 18.09375 -9.859375 C 17.082031 -8.085938 16.1875 -6.53125 15.40625 -5.1875 C 14.625 -3.84375 14.050781 -2.878906 13.6875 -2.296875 L 12.578125 -0.546875 C 12.054688 0.242188 11.535156 1.046875 11.015625 1.859375 C 10.492188 2.671875 9.957031 3.472656 9.40625 4.265625 C 8.582031 5.429688 7.789062 6.457031 7.03125 7.34375 C 7 7.375 6.890625 7.46875 6.703125 7.625 C 6.304688 8.019531 5.9375 8.414062 5.59375 8.8125 C 5.257812 9.207031 5.125 9.59375 5.1875 9.96875 C 5.21875 10.144531 5.296875 10.3125 5.421875 10.46875 C 5.597656 10.59375 5.828125 10.65625 6.109375 10.65625 C 6.171875 10.65625 6.234375 10.65625 6.296875 10.65625 C 6.503906 10.625 6.695312 10.59375 6.875 10.5625 C 7.0625 10.53125 7.265625 10.5 7.484375 10.46875 C 7.640625 10.4375 7.789062 10.40625 7.9375 10.375 C 8.09375 10.34375 8.265625 10.3125 8.453125 10.28125 C 9.492188 10.164062 10.503906 10.0625 11.484375 9.96875 C 13.472656 9.78125 15.335938 9.6875 17.078125 9.6875 L 17.640625 9.6875 C 19.960938 9.71875 22.164062 9.898438 24.25 10.234375 C 25.257812 10.390625 26.269531 10.566406 27.28125 10.765625 C 28.289062 10.960938 29.316406 11.265625 30.359375 11.671875 L 30.53125 11.75 C 30.59375 11.78125 30.671875 11.8125 30.765625 11.84375 C 30.859375 11.875 30.90625 11.90625 30.90625 11.9375 C 30.78125 12.125 30.550781 12.21875 30.21875 12.21875 C 30 12.21875 29.75 12.191406 29.46875 12.140625 C 29.195312 12.097656 28.957031 12.046875 28.75 11.984375 L 28.328125 11.890625 C 28.085938 11.859375 27.84375 11.816406 27.59375 11.765625 C 27.351562 11.722656 27.109375 11.675781 26.859375 11.625 C 26.222656 11.5 25.566406 11.375 24.890625 11.25 C 24.210938 11.125 23.554688 11.03125 22.921875 10.96875 C 21.328125 10.820312 19.703125 10.75 18.046875 10.75 L 17.265625 10.75 C 13.898438 10.8125 10.378906 11.191406 6.703125 11.890625 C 6.515625 11.921875 6.328125 11.96875 6.140625 12.03125 C 5.960938 12.09375 5.785156 12.171875 5.609375 12.265625 C 5.328125 12.359375 5.054688 12.445312 4.796875 12.53125 C 4.535156 12.625 4.269531 12.671875 4 12.671875 Z M 4 12.671875 "/></g></g></g><g fill="#000000" fill-opacity="1"><g transform="translate(140.325211, 47.316634)"><g><path d="M 15.703125 -6.796875 C 15.921875 -6.921875 16.164062 -6.984375 16.4375 -6.984375 C 16.46875 -6.828125 16.40625 -6.679688 16.25 -6.546875 C 16.101562 -6.410156 15.96875 -6.28125 15.84375 -6.15625 L 15.5625 -5.921875 C 14.46875 -5.097656 13.351562 -4.296875 12.21875 -3.515625 C 11.082031 -2.734375 9.863281 -2.085938 8.5625 -1.578125 C 7.257812 -1.078125 5.8125 -0.828125 4.21875 -0.828125 L 4.046875 -0.828125 C 2.484375 -0.828125 1.269531 -1.300781 0.40625 -2.25 C -0.351562 -3.132812 -0.613281 -4.207031 -0.375 -5.46875 C 0.488281 -9.65625 3.21875 -12.363281 7.8125 -13.59375 C 8.050781 -13.65625 8.296875 -13.6875 8.546875 -13.6875 C 9.273438 -13.6875 9.867188 -13.363281 10.328125 -12.71875 C 10.703125 -12.226562 10.816406 -11.804688 10.671875 -11.453125 C 10.535156 -11.097656 10.332031 -10.738281 10.0625 -10.375 C 8.832031 -8.875 6.8125 -7.910156 4 -7.484375 C 2.988281 -7.328125 2.328125 -6.925781 2.015625 -6.28125 C 1.710938 -5.644531 1.484375 -4.957031 1.328125 -4.21875 L 1.28125 -3.90625 C 1.1875 -3.476562 1.265625 -3.078125 1.515625 -2.703125 C 1.847656 -2.242188 2.382812 -1.910156 3.125 -1.703125 C 3.675781 -1.546875 4.257812 -1.46875 4.875 -1.46875 C 5.363281 -1.46875 5.835938 -1.515625 6.296875 -1.609375 C 6.753906 -1.703125 7.242188 -1.820312 7.765625 -1.96875 C 9.378906 -2.425781 11 -3.207031 12.625 -4.3125 C 13.332031 -4.769531 14.035156 -5.320312 14.734375 -5.96875 C 14.796875 -6 14.859375 -6.046875 14.921875 -6.109375 C 14.984375 -6.171875 15.046875 -6.234375 15.109375 -6.296875 C 15.203125 -6.378906 15.289062 -6.457031 15.375 -6.53125 C 15.46875 -6.613281 15.578125 -6.703125 15.703125 -6.796875 Z M 4.546875 -9.140625 L 4.21875 -8.765625 L 4.734375 -8.90625 C 5.804688 -9.15625 6.71875 -9.476562 7.46875 -9.875 C 8.21875 -10.269531 8.863281 -10.910156 9.40625 -11.796875 L 9.59375 -12.171875 L 9.1875 -12.03125 C 8.300781 -11.757812 7.472656 -11.414062 6.703125 -11 C 5.941406 -10.582031 5.222656 -9.960938 4.546875 -9.140625 Z M 4.546875 -9.140625 "/></g></g></g><g fill="#000000" fill-opacity="1"><g transform="translate(155.979979, 47.316634)"><g><path d="M 23.703125 -8.265625 C 23.847656 -8.265625 23.953125 -8.25 24.015625 -8.21875 C 24.078125 -8.1875 24.125 -8.171875 24.15625 -8.171875 C 24.1875 -7.992188 24.039062 -7.84375 23.71875 -7.71875 C 23.394531 -7.59375 23.128906 -7.5 22.921875 -7.4375 C 22.796875 -7.40625 22.703125 -7.375 22.640625 -7.34375 C 21.535156 -6.945312 20.484375 -6.519531 19.484375 -6.0625 C 18.492188 -5.601562 17.585938 -5.003906 16.765625 -4.265625 C 15.234375 -2.953125 14.007812 -1.238281 13.09375 0.875 C 10.726562 6.382812 7.066406 11.664062 2.109375 16.71875 C 1.554688 17.269531 0.957031 17.789062 0.3125 18.28125 C -0.320312 18.769531 -1.097656 19.085938 -2.015625 19.234375 C -2.296875 19.265625 -2.554688 19.28125 -2.796875 19.28125 C -3.535156 19.28125 -4.164062 19.019531 -4.6875 18.5 C -5.113281 18.070312 -5.332031 17.632812 -5.34375 17.1875 C -5.363281 16.75 -5.328125 16.332031 -5.234375 15.9375 C -4.960938 14.894531 -4.523438 13.972656 -3.921875 13.171875 C -3.328125 12.378906 -2.691406 11.617188 -2.015625 10.890625 C 0.671875 7.890625 3.242188 5.144531 5.703125 2.65625 C 8.171875 0.175781 10.878906 -2.070312 13.828125 -4.09375 C 14.523438 -4.550781 14.992188 -5.175781 15.234375 -5.96875 C 15.484375 -6.757812 15.6875 -7.570312 15.84375 -8.40625 L 15.984375 -9.09375 C 16.046875 -9.488281 15.96875 -9.796875 15.75 -10.015625 C 15.6875 -10.109375 15.578125 -10.191406 15.421875 -10.265625 C 15.273438 -10.335938 15.0625 -10.375 14.78125 -10.375 C 14.695312 -10.375 14.625 -10.375 14.5625 -10.375 C 13.882812 -10.3125 13.207031 -10.019531 12.53125 -9.5 C 11.863281 -8.976562 11.304688 -8.359375 10.859375 -7.640625 C 10.410156 -6.921875 10.203125 -6.226562 10.234375 -5.5625 C 10.234375 -5.1875 10.160156 -4.96875 10.015625 -4.90625 C 9.953125 -4.90625 9.890625 -4.90625 9.828125 -4.90625 C 9.671875 -4.90625 9.578125 -4.96875 9.546875 -5.09375 C 9.453125 -5.3125 9.328125 -5.539062 9.171875 -5.78125 C 9.023438 -6.03125 8.847656 -6.15625 8.640625 -6.15625 C 8.515625 -6.15625 8.394531 -6.097656 8.28125 -5.984375 C 8.175781 -5.878906 8.078125 -5.765625 7.984375 -5.640625 C 7.898438 -5.492188 7.84375 -5.40625 7.8125 -5.375 C 7.625 -5.21875 7.429688 -5.054688 7.234375 -4.890625 C 7.035156 -4.722656 6.84375 -4.5625 6.65625 -4.40625 C 6.101562 -3.945312 5.546875 -3.488281 4.984375 -3.03125 C 4.421875 -2.570312 3.800781 -2.175781 3.125 -1.84375 C 2.84375 -1.71875 2.570312 -1.597656 2.3125 -1.484375 C 2.050781 -1.378906 1.785156 -1.328125 1.515625 -1.328125 C 1.023438 -1.328125 0.550781 -1.507812 0.09375 -1.875 C -0.519531 -2.375 -0.828125 -2.890625 -0.828125 -3.421875 C -0.828125 -3.953125 -0.78125 -4.460938 -0.6875 -4.953125 C -0.0078125 -7.898438 1.550781 -9.90625 4 -10.96875 C 4.632812 -11.25 5.210938 -11.390625 5.734375 -11.390625 C 6.898438 -11.390625 8.050781 -10.65625 9.1875 -9.1875 C 9.3125 -9 9.441406 -8.84375 9.578125 -8.71875 C 9.710938 -8.601562 9.859375 -8.546875 10.015625 -8.546875 C 10.109375 -8.546875 10.257812 -8.617188 10.46875 -8.765625 L 10.65625 -8.859375 C 11.113281 -9.203125 11.585938 -9.523438 12.078125 -9.828125 C 12.566406 -10.128906 13.085938 -10.40625 13.640625 -10.65625 C 14.066406 -10.863281 14.445312 -10.96875 14.78125 -10.96875 C 15.1875 -10.96875 15.539062 -10.847656 15.84375 -10.609375 C 16.238281 -10.304688 16.46875 -9.945312 16.53125 -9.53125 C 16.59375 -9.113281 16.609375 -8.675781 16.578125 -8.21875 C 16.578125 -8.007812 16.5625 -7.785156 16.53125 -7.546875 C 16.5 -7.316406 16.453125 -7.082031 16.390625 -6.84375 L 16.25 -5.921875 L 16.53125 -5.828125 C 16.5625 -5.890625 16.753906 -5.988281 17.109375 -6.125 C 17.460938 -6.269531 17.726562 -6.367188 17.90625 -6.421875 C 18.15625 -6.484375 18.3125 -6.53125 18.375 -6.5625 C 18.707031 -6.71875 19.023438 -6.863281 19.328125 -7 C 19.640625 -7.132812 19.945312 -7.265625 20.25 -7.390625 C 20.957031 -7.671875 21.832031 -7.929688 22.875 -8.171875 C 22.957031 -8.171875 23.078125 -8.1875 23.234375 -8.21875 C 23.390625 -8.25 23.546875 -8.265625 23.703125 -8.265625 Z M 7.90625 -6.5625 C 8.082031 -6.71875 8.238281 -6.894531 8.375 -7.09375 C 8.519531 -7.289062 8.4375 -7.601562 8.125 -8.03125 C 7.882812 -8.375 7.585938 -8.6875 7.234375 -8.96875 C 6.878906 -9.257812 6.394531 -9.40625 5.78125 -9.40625 L 5.734375 -9.40625 C 3.078125 -8.707031 1.332031 -7.007812 0.5 -4.3125 C 0.4375 -4.070312 0.390625 -3.789062 0.359375 -3.46875 C 0.335938 -3.144531 0.492188 -2.847656 0.828125 -2.578125 C 1.035156 -2.359375 1.28125 -2.25 1.5625 -2.25 C 1.71875 -2.25 1.867188 -2.28125 2.015625 -2.34375 C 2.171875 -2.40625 2.3125 -2.46875 2.4375 -2.53125 C 3.320312 -2.957031 4.109375 -3.445312 4.796875 -4 C 5.484375 -4.550781 6.148438 -5.097656 6.796875 -5.640625 C 6.953125 -5.765625 7.101562 -5.894531 7.25 -6.03125 C 7.40625 -6.175781 7.546875 -6.304688 7.671875 -6.421875 C 7.703125 -6.453125 7.78125 -6.5 7.90625 -6.5625 Z M -0.6875 16.625 C 2.25 14.144531 4.773438 11.316406 6.890625 8.140625 C 9.003906 4.972656 10.945312 1.800781 12.71875 -1.375 L 12.484375 -1.5625 C 11.046875 -0.707031 9.726562 0.257812 8.53125 1.34375 C 7.34375 2.4375 6.210938 3.535156 5.140625 4.640625 C 4.742188 5.035156 4.347656 5.429688 3.953125 5.828125 C 3.554688 6.222656 3.140625 6.625 2.703125 7.03125 C 1.578125 8.101562 0.460938 9.21875 -0.640625 10.375 C -1.742188 11.539062 -2.691406 12.828125 -3.484375 14.234375 L -3.71875 14.609375 C -4 15.035156 -4.222656 15.5 -4.390625 16 C -4.554688 16.507812 -4.378906 16.992188 -3.859375 17.453125 C -3.546875 17.722656 -3.207031 17.859375 -2.84375 17.859375 C -2.476562 17.859375 -2.132812 17.742188 -1.8125 17.515625 C -1.488281 17.285156 -1.191406 17.050781 -0.921875 16.8125 Z M -0.6875 16.625 "/></g></g></g><g fill="#000000" fill-opacity="1"><g transform="translate(178.934174, 47.316634)"><g><path d="M 23.609375 -8.953125 C 23.753906 -8.921875 23.84375 -8.890625 23.875 -8.859375 C 23.96875 -8.710938 23.910156 -8.515625 23.703125 -8.265625 C 20.546875 -4.960938 16.703125 -2.054688 12.171875 0.453125 L 11.84375 0.59375 C 11.695312 0.71875 11.519531 0.828125 11.3125 0.921875 C 11.113281 1.015625 10.910156 1.0625 10.703125 1.0625 C 10.390625 1.0625 10.066406 0.921875 9.734375 0.640625 C 9.335938 0.273438 9.144531 -0.0664062 9.15625 -0.390625 C 9.175781 -0.710938 9.25 -1.054688 9.375 -1.421875 C 9.394531 -1.484375 9.421875 -1.546875 9.453125 -1.609375 C 9.484375 -1.671875 9.5 -1.734375 9.5 -1.796875 C 9.78125 -2.773438 10.125 -3.710938 10.53125 -4.609375 C 10.945312 -5.515625 11.367188 -6.378906 11.796875 -7.203125 C 11.796875 -7.203125 11.894531 -7.382812 12.09375 -7.75 C 12.300781 -8.125 12.519531 -8.515625 12.75 -8.921875 C 12.976562 -9.335938 13.132812 -9.625 13.21875 -9.78125 C 13.21875 -9.8125 13.28125 -9.90625 13.40625 -10.0625 C 13.6875 -10.457031 13.925781 -10.867188 14.125 -11.296875 C 14.320312 -11.722656 14.375 -12.0625 14.28125 -12.3125 C 14.21875 -12.457031 14.125 -12.5625 14 -12.625 C 13.914062 -12.65625 13.84375 -12.671875 13.78125 -12.671875 C 13.46875 -12.671875 13.128906 -12.503906 12.765625 -12.171875 C 12.398438 -11.835938 12.21875 -11.671875 12.21875 -11.671875 C 12 -11.421875 11.78125 -11.109375 11.5625 -10.734375 C 11.351562 -10.367188 11.234375 -9.957031 11.203125 -9.5 L 11.203125 -9.328125 C 11.203125 -9.203125 11.191406 -9.0625 11.171875 -8.90625 C 11.160156 -8.75 11.109375 -8.671875 11.015625 -8.671875 C 10.984375 -8.671875 10.914062 -8.691406 10.8125 -8.734375 C 10.707031 -8.785156 10.5625 -8.90625 10.375 -9.09375 L 10.234375 -9.234375 L 9.96875 -8.90625 C 9.875 -8.84375 9.785156 -8.765625 9.703125 -8.671875 C 9.628906 -8.585938 9.5625 -8.515625 9.5 -8.453125 C 9.132812 -8.054688 8.789062 -7.664062 8.46875 -7.28125 C 8.144531 -6.894531 7.816406 -6.519531 7.484375 -6.15625 C 6.753906 -5.300781 6.003906 -4.453125 5.234375 -3.609375 C 4.472656 -2.765625 3.644531 -1.972656 2.75 -1.234375 L 2.4375 -0.96875 C 2.15625 -0.71875 1.863281 -0.484375 1.5625 -0.265625 C 1.257812 -0.0546875 0.921875 0.046875 0.546875 0.046875 C 0.242188 0.046875 -0.0703125 -0.0625 -0.40625 -0.28125 C -1.050781 -0.738281 -1.359375 -1.269531 -1.328125 -1.875 C -1.296875 -2.488281 -1.207031 -3.085938 -1.0625 -3.671875 L -1.015625 -3.953125 C -0.273438 -6.890625 1.039062 -9.414062 2.9375 -11.53125 C 4.25 -13 5.8125 -13.734375 7.625 -13.734375 L 7.765625 -13.734375 C 8.160156 -13.734375 8.539062 -13.707031 8.90625 -13.65625 C 9.269531 -13.613281 9.546875 -13.46875 9.734375 -13.21875 C 10.285156 -12.425781 10.804688 -12.03125 11.296875 -12.03125 C 11.546875 -12.03125 11.757812 -12.101562 11.9375 -12.25 C 12.125 -12.40625 12.320312 -12.578125 12.53125 -12.765625 L 12.671875 -12.90625 C 12.953125 -13.175781 13.257812 -13.390625 13.59375 -13.546875 C 13.75 -13.609375 13.894531 -13.660156 14.03125 -13.703125 C 14.164062 -13.753906 14.296875 -13.78125 14.421875 -13.78125 C 14.628906 -13.78125 14.84375 -13.703125 15.0625 -13.546875 C 15.3125 -13.328125 15.425781 -13.109375 15.40625 -12.890625 C 15.394531 -12.679688 15.328125 -12.457031 15.203125 -12.21875 C 14.679688 -11.082031 14.160156 -9.96875 13.640625 -8.875 C 13.117188 -7.789062 12.597656 -6.710938 12.078125 -5.640625 L 11.25 -3.90625 C 11.0625 -3.5625 10.898438 -3.207031 10.765625 -2.84375 C 10.628906 -2.476562 10.5 -2.128906 10.375 -1.796875 L 10.15625 -1.109375 C 10.03125 -0.796875 10.015625 -0.5625 10.109375 -0.40625 C 10.160156 -0.320312 10.25 -0.25 10.375 -0.1875 C 10.46875 -0.15625 10.578125 -0.140625 10.703125 -0.140625 C 11.003906 -0.140625 11.351562 -0.226562 11.75 -0.40625 C 12.15625 -0.59375 12.429688 -0.734375 12.578125 -0.828125 C 13.554688 -1.503906 14.519531 -2.1875 15.46875 -2.875 C 16.425781 -3.5625 17.347656 -4.238281 18.234375 -4.90625 C 18.535156 -5.125 18.820312 -5.347656 19.09375 -5.578125 C 19.375 -5.804688 19.664062 -6.03125 19.96875 -6.25 C 20.15625 -6.394531 20.347656 -6.550781 20.546875 -6.71875 C 20.742188 -6.894531 20.953125 -7.054688 21.171875 -7.203125 C 21.265625 -7.296875 21.351562 -7.378906 21.4375 -7.453125 C 21.53125 -7.535156 21.640625 -7.609375 21.765625 -7.671875 C 21.921875 -7.828125 22.085938 -7.972656 22.265625 -8.109375 C 22.453125 -8.242188 22.640625 -8.390625 22.828125 -8.546875 L 23 -8.640625 C 23.09375 -8.691406 23.191406 -8.753906 23.296875 -8.828125 C 23.410156 -8.910156 23.515625 -8.953125 23.609375 -8.953125 Z M 10.1875 -10.703125 C 10.5 -11.035156 10.488281 -11.429688 10.15625 -11.890625 C 9.75 -12.410156 9.269531 -12.671875 8.71875 -12.671875 C 8.664062 -12.671875 8.609375 -12.671875 8.546875 -12.671875 C 7.773438 -12.515625 7.097656 -12.269531 6.515625 -11.9375 C 5.171875 -11.144531 4.082031 -10.148438 3.25 -8.953125 C 2.425781 -7.753906 1.710938 -6.578125 1.109375 -5.421875 C 1.046875 -5.296875 0.972656 -5.171875 0.890625 -5.046875 C 0.816406 -4.929688 0.75 -4.8125 0.6875 -4.6875 C 0.5 -4.40625 0.328125 -4.113281 0.171875 -3.8125 C 0.0234375 -3.507812 -0.09375 -3.171875 -0.1875 -2.796875 C -0.21875 -2.648438 -0.234375 -2.375 -0.234375 -1.96875 C -0.234375 -1.570312 -0.125 -1.285156 0.09375 -1.109375 C 0.1875 -0.984375 0.304688 -0.921875 0.453125 -0.921875 C 0.578125 -0.921875 0.734375 -0.96875 0.921875 -1.0625 C 2.234375 -1.882812 3.398438 -2.859375 4.421875 -3.984375 C 5.453125 -5.117188 6.441406 -6.269531 7.390625 -7.4375 C 7.847656 -7.988281 8.304688 -8.539062 8.765625 -9.09375 C 9.222656 -9.644531 9.695312 -10.179688 10.1875 -10.703125 Z M 10.1875 -10.703125 "/></g></g></g><g fill="#000000" fill-opacity="1"><g transform="translate(201.291562, 47.316634)"><g><path d="M 18.5 -6.84375 C 18.5625 -6.75 18.566406 -6.617188 18.515625 -6.453125 C 18.472656 -6.285156 18.378906 -6.140625 18.234375 -6.015625 C 16.941406 -4.972656 15.566406 -3.945312 14.109375 -2.9375 C 12.660156 -1.925781 11.09375 -1.003906 9.40625 -0.171875 C 7.726562 0.648438 5.910156 1.273438 3.953125 1.703125 C 3.398438 1.816406 2.878906 1.875 2.390625 1.875 C 1.160156 1.875 0.0859375 1.445312 -0.828125 0.59375 C -2.140625 -0.625 -2.460938 -2.125 -1.796875 -3.90625 C -0.015625 -8.5625 3.382812 -12.113281 8.40625 -14.5625 C 8.988281 -14.863281 9.570312 -15.015625 10.15625 -15.015625 C 11.070312 -15.015625 11.863281 -14.617188 12.53125 -13.828125 C 13.019531 -13.304688 13.28125 -12.773438 13.3125 -12.234375 C 13.34375 -11.703125 13.273438 -11.207031 13.109375 -10.75 C 12.941406 -10.289062 12.75 -9.921875 12.53125 -9.640625 C 12.289062 -9.242188 12.007812 -8.898438 11.6875 -8.609375 C 11.363281 -8.316406 11.066406 -8.082031 10.796875 -7.90625 L 10.703125 -7.8125 C 10.609375 -7.75 10.492188 -7.660156 10.359375 -7.546875 C 10.222656 -7.441406 10.09375 -7.390625 9.96875 -7.390625 C 9.84375 -7.421875 9.75 -7.46875 9.6875 -7.53125 C 9.59375 -7.6875 9.628906 -7.929688 9.796875 -8.265625 C 9.972656 -8.597656 10.191406 -8.941406 10.453125 -9.296875 C 10.710938 -9.648438 10.929688 -9.945312 11.109375 -10.1875 C 11.484375 -10.625 11.679688 -10.882812 11.703125 -10.96875 C 11.703125 -11.0625 11.734375 -11.171875 11.796875 -11.296875 C 11.890625 -11.515625 11.953125 -11.757812 11.984375 -12.03125 C 12.015625 -12.300781 11.878906 -12.578125 11.578125 -12.859375 C 11.265625 -13.097656 10.941406 -13.21875 10.609375 -13.21875 C 10.304688 -13.21875 9.953125 -13.113281 9.546875 -12.90625 C 5.171875 -10.570312 1.957031 -7.144531 -0.09375 -2.625 C -0.582031 -1.519531 -0.425781 -0.628906 0.375 0.046875 C 0.945312 0.566406 1.695312 0.828125 2.625 0.828125 C 2.863281 0.828125 3.109375 0.8125 3.359375 0.78125 C 5.035156 0.59375 6.5625 0.1875 7.9375 -0.4375 C 9.320312 -1.0625 10.519531 -1.679688 11.53125 -2.296875 C 12.539062 -2.878906 13.671875 -3.628906 14.921875 -4.546875 C 15.109375 -4.671875 15.285156 -4.800781 15.453125 -4.9375 C 15.617188 -5.070312 15.78125 -5.203125 15.9375 -5.328125 C 16.238281 -5.597656 16.554688 -5.851562 16.890625 -6.09375 C 17.234375 -6.34375 17.585938 -6.5625 17.953125 -6.75 C 18.109375 -6.84375 18.25 -6.890625 18.375 -6.890625 C 18.425781 -6.890625 18.46875 -6.875 18.5 -6.84375 Z M 18.5 -6.84375 "/></g></g></g><g fill="#000000" fill-opacity="1"><g transform="translate(218.82857, 47.316634)"><g><path d="M 24.34375 -7.71875 C 24.40625 -7.65625 24.378906 -7.539062 24.265625 -7.375 C 24.160156 -7.207031 24.0625 -7.078125 23.96875 -6.984375 C 23.664062 -6.734375 23.320312 -6.507812 22.9375 -6.3125 C 22.550781 -6.113281 22.160156 -5.921875 21.765625 -5.734375 C 21.578125 -5.648438 21.390625 -5.550781 21.203125 -5.4375 C 21.023438 -5.332031 20.859375 -5.234375 20.703125 -5.140625 C 20.097656 -4.804688 19.492188 -4.46875 18.890625 -4.125 C 18.296875 -3.789062 17.707031 -3.441406 17.125 -3.078125 C 14.582031 -1.515625 12.363281 0.046875 10.46875 1.609375 C 9.789062 2.191406 9.269531 2.863281 8.90625 3.625 L 7.8125 5.96875 C 6.832031 7.988281 5.835938 10.039062 4.828125 12.125 C 3.816406 14.207031 2.710938 16.226562 1.515625 18.1875 C 1.023438 18.945312 0.4375 19.796875 -0.25 20.734375 C -0.9375 21.671875 -1.769531 22.535156 -2.75 23.328125 C -2.96875 23.484375 -3.207031 23.644531 -3.46875 23.8125 C -3.726562 23.976562 -4.023438 24.09375 -4.359375 24.15625 C -4.640625 24.25 -4.867188 24.296875 -5.046875 24.296875 C -5.503906 24.296875 -5.90625 24.125 -6.25 23.78125 C -6.519531 23.539062 -6.671875 23.289062 -6.703125 23.03125 C -6.734375 22.769531 -6.734375 22.472656 -6.703125 22.140625 C -6.609375 21.429688 -6.429688 20.773438 -6.171875 20.171875 C -5.910156 19.578125 -5.644531 19.003906 -5.375 18.453125 C -3.019531 13.984375 0.40625 9.65625 4.90625 5.46875 C 6.351562 4.113281 7.472656 2.582031 8.265625 0.875 C 8.785156 -0.195312 9.320312 -1.269531 9.875 -2.34375 C 10.425781 -3.414062 10.976562 -4.488281 11.53125 -5.5625 L 13.046875 -8.59375 L 12.625 -8.453125 C 11.613281 -8.054688 10.703125 -7.554688 9.890625 -6.953125 C 9.078125 -6.359375 8.304688 -5.738281 7.578125 -5.09375 C 7.273438 -4.820312 6.960938 -4.554688 6.640625 -4.296875 C 6.316406 -4.035156 5.984375 -3.78125 5.640625 -3.53125 L 4.90625 -2.984375 C 4.300781 -2.492188 3.660156 -2.023438 2.984375 -1.578125 C 2.304688 -1.140625 1.570312 -0.78125 0.78125 -0.5 C 0.445312 -0.414062 0.140625 -0.375 -0.140625 -0.375 C -0.597656 -0.375 -1.039062 -0.539062 -1.46875 -0.875 C -2.175781 -1.394531 -2.484375 -2.113281 -2.390625 -3.03125 C -2.203125 -4.4375 -1.722656 -5.628906 -0.953125 -6.609375 C -0.191406 -7.585938 0.644531 -8.476562 1.5625 -9.28125 C 1.71875 -9.425781 1.898438 -9.5 2.109375 -9.5 C 2.328125 -9.5 2.539062 -9.410156 2.75 -9.234375 C 2.96875 -9.015625 3.066406 -8.820312 3.046875 -8.65625 C 3.035156 -8.488281 2.953125 -8.296875 2.796875 -8.078125 C 2.648438 -7.867188 2.503906 -7.65625 2.359375 -7.4375 C 2.222656 -7.226562 2.078125 -7.015625 1.921875 -6.796875 C 1.710938 -6.492188 1.5 -6.195312 1.28125 -5.90625 C 1.070312 -5.613281 0.875 -5.3125 0.6875 -5 C 0.625 -4.914062 0.554688 -4.816406 0.484375 -4.703125 C 0.410156 -4.597656 0.328125 -4.5 0.234375 -4.40625 C 0.046875 -4.164062 -0.132812 -3.90625 -0.3125 -3.625 C -0.5 -3.351562 -0.625 -3.046875 -0.6875 -2.703125 C -0.78125 -2.304688 -0.734375 -2.003906 -0.546875 -1.796875 C -0.335938 -1.578125 -0.0195312 -1.46875 0.40625 -1.46875 C 0.625 -1.46875 0.851562 -1.488281 1.09375 -1.53125 C 1.34375 -1.582031 1.546875 -1.640625 1.703125 -1.703125 C 2.066406 -1.847656 2.398438 -2.019531 2.703125 -2.21875 C 3.015625 -2.425781 3.320312 -2.632812 3.625 -2.84375 C 4.332031 -3.363281 5.035156 -3.890625 5.734375 -4.421875 C 6.441406 -4.960938 7.132812 -5.492188 7.8125 -6.015625 C 8.363281 -6.441406 8.921875 -6.875 9.484375 -7.3125 C 10.046875 -7.757812 10.601562 -8.1875 11.15625 -8.59375 C 11.25 -8.644531 11.359375 -8.734375 11.484375 -8.859375 C 11.660156 -9.015625 11.847656 -9.160156 12.046875 -9.296875 C 12.253906 -9.429688 12.476562 -9.5 12.71875 -9.5 C 12.96875 -9.5 13.242188 -9.378906 13.546875 -9.140625 C 13.878906 -8.828125 14.015625 -8.503906 13.953125 -8.171875 C 13.898438 -7.835938 13.796875 -7.5 13.640625 -7.15625 C 13.546875 -6.976562 13.484375 -6.84375 13.453125 -6.75 C 13.328125 -6.382812 13.203125 -6.023438 13.078125 -5.671875 C 12.960938 -5.316406 12.828125 -4.972656 12.671875 -4.640625 C 12.460938 -4.054688 12.25 -3.460938 12.03125 -2.859375 C 11.8125 -2.265625 11.613281 -1.648438 11.4375 -1.015625 L 11.703125 -0.875 C 11.734375 -1 11.863281 -1.117188 12.09375 -1.234375 C 12.320312 -1.359375 12.53125 -1.453125 12.71875 -1.515625 C 12.9375 -1.640625 13.078125 -1.71875 13.140625 -1.75 L 14.6875 -2.703125 C 16.21875 -3.679688 17.78125 -4.585938 19.375 -5.421875 C 20.207031 -5.847656 21.019531 -6.242188 21.8125 -6.609375 C 21.90625 -6.671875 22.007812 -6.734375 22.125 -6.796875 C 22.25 -6.859375 22.359375 -6.921875 22.453125 -6.984375 C 22.765625 -7.097656 23.054688 -7.222656 23.328125 -7.359375 C 23.597656 -7.503906 23.890625 -7.625 24.203125 -7.71875 C 24.265625 -7.71875 24.3125 -7.71875 24.34375 -7.71875 Z M -3.859375 22.359375 C -1.835938 20.273438 -0.171875 17.929688 1.140625 15.328125 C 2.460938 12.734375 3.707031 10.117188 4.875 7.484375 L 4.640625 7.203125 C 1.703125 9.679688 -0.851562 12.4375 -3.03125 15.46875 C -3.582031 16.269531 -4.117188 17.101562 -4.640625 17.96875 C -5.160156 18.84375 -5.554688 19.816406 -5.828125 20.890625 C -5.859375 20.984375 -5.890625 21.109375 -5.921875 21.265625 C -6.015625 21.535156 -6.078125 21.820312 -6.109375 22.125 C -6.140625 22.4375 -5.984375 22.726562 -5.640625 23 C -5.429688 23.15625 -5.21875 23.234375 -5 23.234375 C -4.789062 23.234375 -4.609375 23.164062 -4.453125 23.03125 C -4.296875 22.894531 -4.160156 22.75 -4.046875 22.59375 C -3.953125 22.46875 -3.890625 22.390625 -3.859375 22.359375 Z M -3.859375 22.359375 "/></g></g></g><g fill="#000000" fill-opacity="1"><g transform="translate(241.782766, 47.316634)"><g/></g></g><g fill="#000000" fill-opacity="1"><g transform="translate(255.555292, 47.316634)"><g><path d="M 19.421875 10.1875 C 15.378906 10.1875 11.875 8.921875 8.90625 6.390625 C 7.3125 5.003906 5.988281 3.304688 4.9375 1.296875 C 3.882812 -0.703125 3.171875 -2.878906 2.796875 -5.234375 C 2.128906 -9.492188 2.585938 -13.828125 4.171875 -18.234375 C 7.640625 -27.753906 13.382812 -35.175781 21.40625 -40.5 C 23.601562 -41.96875 25.820312 -42.703125 28.0625 -42.703125 L 28.46875 -42.703125 C 30.425781 -42.640625 32.140625 -41.921875 33.609375 -40.546875 C 35.023438 -39.203125 35.804688 -37.609375 35.953125 -35.765625 C 36.203125 -32.523438 35.390625 -29.328125 33.515625 -26.171875 C 31.742188 -23.140625 29.679688 -20.429688 27.328125 -18.046875 C 27.265625 -18.015625 27.207031 -17.96875 27.15625 -17.90625 C 27.113281 -17.84375 27.078125 -17.796875 27.046875 -17.765625 C 26.859375 -17.554688 26.664062 -17.363281 26.46875 -17.1875 C 26.269531 -17.019531 26.066406 -16.9375 25.859375 -16.9375 C 25.578125 -16.9375 25.285156 -17.09375 24.984375 -17.40625 C 24.671875 -17.707031 24.5 -17.96875 24.46875 -18.1875 C 24.46875 -18.394531 24.566406 -18.582031 24.765625 -18.75 C 24.972656 -18.925781 25.179688 -19.085938 25.390625 -19.234375 C 25.609375 -19.359375 25.75 -19.4375 25.8125 -19.46875 C 29.664062 -22.3125 32.476562 -25.738281 34.25 -29.75 C 34.59375 -30.519531 34.894531 -31.425781 35.15625 -32.46875 C 35.414062 -33.507812 35.40625 -34.703125 35.125 -36.046875 C 34.726562 -37.859375 33.90625 -39.28125 32.65625 -40.3125 C 31.582031 -41.207031 30.359375 -41.65625 28.984375 -41.65625 C 28.398438 -41.65625 27.800781 -41.5625 27.1875 -41.375 C 25.101562 -40.789062 23.296875 -39.867188 21.765625 -38.609375 C 20.234375 -37.359375 18.78125 -36 17.40625 -34.53125 C 14.28125 -31.257812 11.753906 -27.992188 9.828125 -24.734375 C 7.898438 -21.472656 6.476562 -18.066406 5.5625 -14.515625 C 5.1875 -13.078125 4.90625 -11.519531 4.71875 -9.84375 C 4.539062 -8.175781 4.585938 -6.425781 4.859375 -4.59375 C 5.140625 -2.757812 5.800781 -0.847656 6.84375 1.140625 C 7.976562 3.285156 9.539062 5.039062 11.53125 6.40625 C 13.519531 7.769531 15.660156 8.570312 17.953125 8.8125 C 18.722656 8.875 19.488281 8.90625 20.25 8.90625 C 22.664062 8.90625 24.847656 8.566406 26.796875 7.890625 C 28.742188 7.222656 30.472656 6.382812 31.984375 5.375 C 33.492188 4.363281 34.847656 3.351562 36.046875 2.34375 C 37.972656 0.65625 39.875 -1.503906 41.75 -4.140625 C 41.957031 -4.410156 42.164062 -4.679688 42.375 -4.953125 C 42.59375 -5.234375 42.828125 -5.507812 43.078125 -5.78125 L 43.265625 -6.0625 C 43.347656 -6.15625 43.425781 -6.242188 43.5 -6.328125 C 43.582031 -6.421875 43.671875 -6.515625 43.765625 -6.609375 C 43.859375 -6.671875 43.9375 -6.703125 44 -6.703125 C 44.019531 -6.703125 44.050781 -6.691406 44.09375 -6.671875 C 44.144531 -6.660156 44.1875 -6.59375 44.21875 -6.46875 C 44.25 -6.320312 44.222656 -6.160156 44.140625 -5.984375 C 44.066406 -5.816406 43.988281 -5.675781 43.90625 -5.5625 L 43.8125 -5.375 C 43.5625 -4.945312 43.285156 -4.523438 42.984375 -4.109375 C 42.679688 -3.691406 42.375 -3.285156 42.0625 -2.890625 L 41.75 -2.484375 C 41.375 -2.023438 40.992188 -1.5625 40.609375 -1.09375 C 40.234375 -0.632812 39.863281 -0.175781 39.5 0.28125 C 37.476562 2.632812 35.347656 4.5625 33.109375 6.0625 C 29.460938 8.445312 25.34375 9.8125 20.75 10.15625 C 20.320312 10.175781 19.878906 10.1875 19.421875 10.1875 Z M 19.421875 10.1875 "/></g></g></g><g fill="#000000" fill-opacity="1"><g transform="translate(298.800998, 47.316634)"><g><path d="M 20.0625 -7.125 C 20.25 -7.09375 20.359375 -7.046875 20.390625 -6.984375 C 20.421875 -6.890625 20.359375 -6.78125 20.203125 -6.65625 C 19.648438 -6.351562 19.023438 -6.203125 18.328125 -6.203125 C 17.460938 -6.203125 16.570312 -6.429688 15.65625 -6.890625 C 14.738281 -7.347656 13.957031 -7.941406 13.3125 -8.671875 C 12.726562 -9.316406 12.285156 -9.789062 11.984375 -10.09375 C 11.679688 -10.40625 11.359375 -10.5625 11.015625 -10.5625 C 10.804688 -10.5625 10.5625 -10.476562 10.28125 -10.3125 C 10.007812 -10.144531 9.675781 -9.921875 9.28125 -9.640625 C 7.8125 -8.597656 6.429688 -7.457031 5.140625 -6.21875 C 3.859375 -4.976562 2.617188 -3.734375 1.421875 -2.484375 L 0.28125 -1.328125 C 0.25 -1.265625 0.171875 -1.160156 0.046875 -1.015625 C -0.046875 -0.890625 -0.144531 -0.769531 -0.25 -0.65625 C -0.351562 -0.550781 -0.484375 -0.5 -0.640625 -0.5 C -0.828125 -0.5 -1.054688 -0.59375 -1.328125 -0.78125 C -1.671875 -1.019531 -1.828125 -1.269531 -1.796875 -1.53125 C -1.765625 -1.789062 -1.71875 -2.046875 -1.65625 -2.296875 L -1.5625 -2.484375 C -0.332031 -6.367188 1.164062 -9.796875 2.9375 -12.765625 L 3.03125 -12.859375 C 3.125 -13.046875 3.242188 -13.226562 3.390625 -13.40625 C 3.546875 -13.59375 3.71875 -13.6875 3.90625 -13.6875 C 4.03125 -13.6875 4.164062 -13.640625 4.3125 -13.546875 C 4.53125 -13.390625 4.671875 -13.238281 4.734375 -13.09375 C 4.796875 -12.9375 4.796875 -12.773438 4.734375 -12.609375 C 4.671875 -12.441406 4.59375 -12.28125 4.5 -12.125 C 4.4375 -11.9375 4.390625 -11.8125 4.359375 -11.75 L 4 -10.890625 C 3.8125 -10.421875 3.617188 -9.945312 3.421875 -9.46875 C 3.222656 -9 3.015625 -8.535156 2.796875 -8.078125 C 2.679688 -7.773438 2.546875 -7.46875 2.390625 -7.15625 C 2.234375 -6.851562 2.09375 -6.550781 1.96875 -6.25 C 1.9375 -6.25 1.875 -6.125 1.78125 -5.875 C 1.695312 -5.632812 1.613281 -5.375 1.53125 -5.09375 C 1.457031 -4.820312 1.453125 -4.640625 1.515625 -4.546875 L 1.703125 -4.453125 C 2.003906 -4.515625 2.257812 -4.632812 2.46875 -4.8125 C 2.6875 -5 2.890625 -5.203125 3.078125 -5.421875 C 3.140625 -5.484375 3.207031 -5.550781 3.28125 -5.625 C 3.351562 -5.695312 3.4375 -5.78125 3.53125 -5.875 L 5.46875 -7.484375 C 6.082031 -8.003906 6.691406 -8.515625 7.296875 -9.015625 C 7.910156 -9.523438 8.523438 -10.023438 9.140625 -10.515625 C 9.960938 -11.128906 10.585938 -11.4375 11.015625 -11.4375 C 11.421875 -11.4375 11.8125 -11.257812 12.1875 -10.90625 C 12.570312 -10.550781 13.054688 -10.023438 13.640625 -9.328125 C 14.285156 -8.523438 15.023438 -7.898438 15.859375 -7.453125 C 16.703125 -7.015625 17.554688 -6.796875 18.421875 -6.796875 C 18.691406 -6.796875 18.960938 -6.828125 19.234375 -6.890625 C 19.328125 -6.890625 19.453125 -6.921875 19.609375 -6.984375 C 19.828125 -7.078125 19.976562 -7.125 20.0625 -7.125 Z M 20.0625 -7.125 "/></g></g></g><g fill="#000000" fill-opacity="1"><g transform="translate(318.220264, 47.316634)"><g><path d="M 15.703125 -6.796875 C 15.921875 -6.921875 16.164062 -6.984375 16.4375 -6.984375 C 16.46875 -6.828125 16.40625 -6.679688 16.25 -6.546875 C 16.101562 -6.410156 15.96875 -6.28125 15.84375 -6.15625 L 15.5625 -5.921875 C 14.46875 -5.097656 13.351562 -4.296875 12.21875 -3.515625 C 11.082031 -2.734375 9.863281 -2.085938 8.5625 -1.578125 C 7.257812 -1.078125 5.8125 -0.828125 4.21875 -0.828125 L 4.046875 -0.828125 C 2.484375 -0.828125 1.269531 -1.300781 0.40625 -2.25 C -0.351562 -3.132812 -0.613281 -4.207031 -0.375 -5.46875 C 0.488281 -9.65625 3.21875 -12.363281 7.8125 -13.59375 C 8.050781 -13.65625 8.296875 -13.6875 8.546875 -13.6875 C 9.273438 -13.6875 9.867188 -13.363281 10.328125 -12.71875 C 10.703125 -12.226562 10.816406 -11.804688 10.671875 -11.453125 C 10.535156 -11.097656 10.332031 -10.738281 10.0625 -10.375 C 8.832031 -8.875 6.8125 -7.910156 4 -7.484375 C 2.988281 -7.328125 2.328125 -6.925781 2.015625 -6.28125 C 1.710938 -5.644531 1.484375 -4.957031 1.328125 -4.21875 L 1.28125 -3.90625 C 1.1875 -3.476562 1.265625 -3.078125 1.515625 -2.703125 C 1.847656 -2.242188 2.382812 -1.910156 3.125 -1.703125 C 3.675781 -1.546875 4.257812 -1.46875 4.875 -1.46875 C 5.363281 -1.46875 5.835938 -1.515625 6.296875 -1.609375 C 6.753906 -1.703125 7.242188 -1.820312 7.765625 -1.96875 C 9.378906 -2.425781 11 -3.207031 12.625 -4.3125 C 13.332031 -4.769531 14.035156 -5.320312 14.734375 -5.96875 C 14.796875 -6 14.859375 -6.046875 14.921875 -6.109375 C 14.984375 -6.171875 15.046875 -6.234375 15.109375 -6.296875 C 15.203125 -6.378906 15.289062 -6.457031 15.375 -6.53125 C 15.46875 -6.613281 15.578125 -6.703125 15.703125 -6.796875 Z M 4.546875 -9.140625 L 4.21875 -8.765625 L 4.734375 -8.90625 C 5.804688 -9.15625 6.71875 -9.476562 7.46875 -9.875 C 8.21875 -10.269531 8.863281 -10.910156 9.40625 -11.796875 L 9.59375 -12.171875 L 9.1875 -12.03125 C 8.300781 -11.757812 7.472656 -11.414062 6.703125 -11 C 5.941406 -10.582031 5.222656 -9.960938 4.546875 -9.140625 Z M 4.546875 -9.140625 "/></g></g></g><g fill="#000000" fill-opacity="1"><g transform="translate(333.875047, 47.316634)"><g><path d="M 23.609375 -8.953125 C 23.753906 -8.921875 23.84375 -8.890625 23.875 -8.859375 C 23.96875 -8.710938 23.910156 -8.515625 23.703125 -8.265625 C 20.546875 -4.960938 16.703125 -2.054688 12.171875 0.453125 L 11.84375 0.59375 C 11.695312 0.71875 11.519531 0.828125 11.3125 0.921875 C 11.113281 1.015625 10.910156 1.0625 10.703125 1.0625 C 10.390625 1.0625 10.066406 0.921875 9.734375 0.640625 C 9.335938 0.273438 9.144531 -0.0664062 9.15625 -0.390625 C 9.175781 -0.710938 9.25 -1.054688 9.375 -1.421875 C 9.394531 -1.484375 9.421875 -1.546875 9.453125 -1.609375 C 9.484375 -1.671875 9.5 -1.734375 9.5 -1.796875 C 9.78125 -2.773438 10.125 -3.710938 10.53125 -4.609375 C 10.945312 -5.515625 11.367188 -6.378906 11.796875 -7.203125 C 11.796875 -7.203125 11.894531 -7.382812 12.09375 -7.75 C 12.300781 -8.125 12.519531 -8.515625 12.75 -8.921875 C 12.976562 -9.335938 13.132812 -9.625 13.21875 -9.78125 C 13.21875 -9.8125 13.28125 -9.90625 13.40625 -10.0625 C 13.6875 -10.457031 13.925781 -10.867188 14.125 -11.296875 C 14.320312 -11.722656 14.375 -12.0625 14.28125 -12.3125 C 14.21875 -12.457031 14.125 -12.5625 14 -12.625 C 13.914062 -12.65625 13.84375 -12.671875 13.78125 -12.671875 C 13.46875 -12.671875 13.128906 -12.503906 12.765625 -12.171875 C 12.398438 -11.835938 12.21875 -11.671875 12.21875 -11.671875 C 12 -11.421875 11.78125 -11.109375 11.5625 -10.734375 C 11.351562 -10.367188 11.234375 -9.957031 11.203125 -9.5 L 11.203125 -9.328125 C 11.203125 -9.203125 11.191406 -9.0625 11.171875 -8.90625 C 11.160156 -8.75 11.109375 -8.671875 11.015625 -8.671875 C 10.984375 -8.671875 10.914062 -8.691406 10.8125 -8.734375 C 10.707031 -8.785156 10.5625 -8.90625 10.375 -9.09375 L 10.234375 -9.234375 L 9.96875 -8.90625 C 9.875 -8.84375 9.785156 -8.765625 9.703125 -8.671875 C 9.628906 -8.585938 9.5625 -8.515625 9.5 -8.453125 C 9.132812 -8.054688 8.789062 -7.664062 8.46875 -7.28125 C 8.144531 -6.894531 7.816406 -6.519531 7.484375 -6.15625 C 6.753906 -5.300781 6.003906 -4.453125 5.234375 -3.609375 C 4.472656 -2.765625 3.644531 -1.972656 2.75 -1.234375 L 2.4375 -0.96875 C 2.15625 -0.71875 1.863281 -0.484375 1.5625 -0.265625 C 1.257812 -0.0546875 0.921875 0.046875 0.546875 0.046875 C 0.242188 0.046875 -0.0703125 -0.0625 -0.40625 -0.28125 C -1.050781 -0.738281 -1.359375 -1.269531 -1.328125 -1.875 C -1.296875 -2.488281 -1.207031 -3.085938 -1.0625 -3.671875 L -1.015625 -3.953125 C -0.273438 -6.890625 1.039062 -9.414062 2.9375 -11.53125 C 4.25 -13 5.8125 -13.734375 7.625 -13.734375 L 7.765625 -13.734375 C 8.160156 -13.734375 8.539062 -13.707031 8.90625 -13.65625 C 9.269531 -13.613281 9.546875 -13.46875 9.734375 -13.21875 C 10.285156 -12.425781 10.804688 -12.03125 11.296875 -12.03125 C 11.546875 -12.03125 11.757812 -12.101562 11.9375 -12.25 C 12.125 -12.40625 12.320312 -12.578125 12.53125 -12.765625 L 12.671875 -12.90625 C 12.953125 -13.175781 13.257812 -13.390625 13.59375 -13.546875 C 13.75 -13.609375 13.894531 -13.660156 14.03125 -13.703125 C 14.164062 -13.753906 14.296875 -13.78125 14.421875 -13.78125 C 14.628906 -13.78125 14.84375 -13.703125 15.0625 -13.546875 C 15.3125 -13.328125 15.425781 -13.109375 15.40625 -12.890625 C 15.394531 -12.679688 15.328125 -12.457031 15.203125 -12.21875 C 14.679688 -11.082031 14.160156 -9.96875 13.640625 -8.875 C 13.117188 -7.789062 12.597656 -6.710938 12.078125 -5.640625 L 11.25 -3.90625 C 11.0625 -3.5625 10.898438 -3.207031 10.765625 -2.84375 C 10.628906 -2.476562 10.5 -2.128906 10.375 -1.796875 L 10.15625 -1.109375 C 10.03125 -0.796875 10.015625 -0.5625 10.109375 -0.40625 C 10.160156 -0.320312 10.25 -0.25 10.375 -0.1875 C 10.46875 -0.15625 10.578125 -0.140625 10.703125 -0.140625 C 11.003906 -0.140625 11.351562 -0.226562 11.75 -0.40625 C 12.15625 -0.59375 12.429688 -0.734375 12.578125 -0.828125 C 13.554688 -1.503906 14.519531 -2.1875 15.46875 -2.875 C 16.425781 -3.5625 17.347656 -4.238281 18.234375 -4.90625 C 18.535156 -5.125 18.820312 -5.347656 19.09375 -5.578125 C 19.375 -5.804688 19.664062 -6.03125 19.96875 -6.25 C 20.15625 -6.394531 20.347656 -6.550781 20.546875 -6.71875 C 20.742188 -6.894531 20.953125 -7.054688 21.171875 -7.203125 C 21.265625 -7.296875 21.351562 -7.378906 21.4375 -7.453125 C 21.53125 -7.535156 21.640625 -7.609375 21.765625 -7.671875 C 21.921875 -7.828125 22.085938 -7.972656 22.265625 -8.109375 C 22.453125 -8.242188 22.640625 -8.390625 22.828125 -8.546875 L 23 -8.640625 C 23.09375 -8.691406 23.191406 -8.753906 23.296875 -8.828125 C 23.410156 -8.910156 23.515625 -8.953125 23.609375 -8.953125 Z M 10.1875 -10.703125 C 10.5 -11.035156 10.488281 -11.429688 10.15625 -11.890625 C 9.75 -12.410156 9.269531 -12.671875 8.71875 -12.671875 C 8.664062 -12.671875 8.609375 -12.671875 8.546875 -12.671875 C 7.773438 -12.515625 7.097656 -12.269531 6.515625 -11.9375 C 5.171875 -11.144531 4.082031 -10.148438 3.25 -8.953125 C 2.425781 -7.753906 1.710938 -6.578125 1.109375 -5.421875 C 1.046875 -5.296875 0.972656 -5.171875 0.890625 -5.046875 C 0.816406 -4.929688 0.75 -4.8125 0.6875 -4.6875 C 0.5 -4.40625 0.328125 -4.113281 0.171875 -3.8125 C 0.0234375 -3.507812 -0.09375 -3.171875 -0.1875 -2.796875 C -0.21875 -2.648438 -0.234375 -2.375 -0.234375 -1.96875 C -0.234375 -1.570312 -0.125 -1.285156 0.09375 -1.109375 C 0.1875 -0.984375 0.304688 -0.921875 0.453125 -0.921875 C 0.578125 -0.921875 0.734375 -0.96875 0.921875 -1.0625 C 2.234375 -1.882812 3.398438 -2.859375 4.421875 -3.984375 C 5.453125 -5.117188 6.441406 -6.269531 7.390625 -7.4375 C 7.847656 -7.988281 8.304688 -8.539062 8.765625 -9.09375 C 9.222656 -9.644531 9.695312 -10.179688 10.1875 -10.703125 Z M 10.1875 -10.703125 "/></g></g></g><g fill="#000000" fill-opacity="1"><g transform="translate(356.232419, 47.316634)"><g><path d="M 26.5 -22.546875 C 26.59375 -22.453125 26.65625 -22.316406 26.6875 -22.140625 C 26.6875 -22.046875 26.660156 -21.957031 26.609375 -21.875 C 26.566406 -21.800781 26.4375 -21.765625 26.21875 -21.765625 C 26.125 -21.765625 26.023438 -21.769531 25.921875 -21.78125 C 25.816406 -21.800781 25.71875 -21.8125 25.625 -21.8125 L 25.390625 -21.859375 C 23.710938 -22.078125 22.050781 -22.210938 20.40625 -22.265625 C 18.769531 -22.328125 17.1875 -22.359375 15.65625 -22.359375 L 13.3125 -22.3125 C 12.914062 -22.3125 12.507812 -22.316406 12.09375 -22.328125 C 11.6875 -22.347656 11.285156 -22.359375 10.890625 -22.359375 C 10.398438 -22.359375 9.984375 -22.296875 9.640625 -22.171875 C 9.304688 -22.054688 9.046875 -21.800781 8.859375 -21.40625 L 8.03125 -19.84375 C 6.039062 -15.976562 4.097656 -12.007812 2.203125 -7.9375 C 0.304688 -3.875 -1.207031 0.394531 -2.34375 4.875 C -3.226562 8.363281 -3.640625 11.5625 -3.578125 14.46875 C -3.578125 14.59375 -3.578125 14.710938 -3.578125 14.828125 C -3.578125 15.109375 -3.566406 15.367188 -3.546875 15.609375 C -3.535156 15.859375 -3.441406 16.085938 -3.265625 16.296875 C -2.984375 16.578125 -2.566406 16.75 -2.015625 16.8125 C -1.898438 16.8125 -1.8125 16.851562 -1.75 16.9375 C -1.625 17.0625 -1.546875 17.21875 -1.515625 17.40625 C -1.484375 17.613281 -1.53125 17.753906 -1.65625 17.828125 C -1.78125 17.910156 -1.898438 17.953125 -2.015625 17.953125 L -2.0625 17.953125 C -3.414062 17.953125 -4.273438 17.3125 -4.640625 16.03125 C -4.847656 15.351562 -4.941406 14.703125 -4.921875 14.078125 C -4.910156 13.453125 -4.878906 12.832031 -4.828125 12.21875 L -4.78125 11.84375 C -4.53125 9.09375 -4.066406 6.429688 -3.390625 3.859375 C -2.722656 1.285156 -1.921875 -1.207031 -0.984375 -3.625 C -0.0546875 -6.039062 0.882812 -8.429688 1.84375 -10.796875 L 2.109375 -11.390625 C 2.566406 -12.554688 3.070312 -13.695312 3.625 -14.8125 C 4.175781 -15.925781 4.710938 -17.035156 5.234375 -18.140625 C 5.503906 -18.660156 5.769531 -19.179688 6.03125 -19.703125 C 6.289062 -20.222656 6.546875 -20.742188 6.796875 -21.265625 C 6.859375 -21.410156 6.894531 -21.582031 6.90625 -21.78125 C 6.925781 -21.988281 6.8125 -22.304688 6.5625 -22.734375 L 6.46875 -22.828125 L 6.390625 -22.828125 C 5.710938 -22.828125 5.019531 -22.828125 4.3125 -22.828125 C 3.613281 -22.828125 2.910156 -22.828125 2.203125 -22.828125 C 1.492188 -22.859375 0.78125 -22.875 0.0625 -22.875 C -0.65625 -22.875 -1.378906 -22.875 -2.109375 -22.875 C -4.378906 -22.875 -6.382812 -22.84375 -8.125 -22.78125 C -8.488281 -22.75 -8.851562 -22.734375 -9.21875 -22.734375 C -9.59375 -22.734375 -9.960938 -22.734375 -10.328125 -22.734375 C -11.273438 -22.703125 -12.234375 -22.660156 -13.203125 -22.609375 C -14.171875 -22.566406 -15.097656 -22.4375 -15.984375 -22.21875 C -16.253906 -22.164062 -16.484375 -22.140625 -16.671875 -22.140625 C -16.878906 -22.140625 -17.0625 -22.179688 -17.21875 -22.265625 C -17.3125 -22.359375 -17.390625 -22.515625 -17.453125 -22.734375 C -17.515625 -23.003906 -17.375 -23.140625 -17.03125 -23.140625 C -16.96875 -23.140625 -16.84375 -23.128906 -16.65625 -23.109375 C -16.476562 -23.097656 -16.390625 -23.09375 -16.390625 -23.09375 L -16.25 -23.09375 C -14.539062 -23.25 -12.847656 -23.347656 -11.171875 -23.390625 C -9.503906 -23.441406 -8.015625 -23.46875 -6.703125 -23.46875 C -5.992188 -23.46875 -5.28125 -23.46875 -4.5625 -23.46875 C -3.84375 -23.46875 -3.132812 -23.46875 -2.4375 -23.46875 C -1.726562 -23.4375 -1.015625 -23.421875 -0.296875 -23.421875 C 0.421875 -23.421875 1.132812 -23.421875 1.84375 -23.421875 C 2.507812 -23.421875 3.179688 -23.421875 3.859375 -23.421875 C 4.535156 -23.421875 5.207031 -23.4375 5.875 -23.46875 C 6.519531 -23.5 7.09375 -23.613281 7.59375 -23.8125 C 8.101562 -24.007812 8.507812 -24.414062 8.8125 -25.03125 C 10.101562 -27.71875 11.878906 -30.289062 14.140625 -32.75 C 14.171875 -32.800781 14.234375 -32.875 14.328125 -32.96875 C 14.421875 -33.09375 14.519531 -33.210938 14.625 -33.328125 C 14.726562 -33.453125 14.859375 -33.515625 15.015625 -33.515625 C 15.171875 -33.515625 15.351562 -33.425781 15.5625 -33.25 C 15.84375 -33 15.953125 -32.75 15.890625 -32.5 C 15.828125 -32.257812 15.703125 -32.003906 15.515625 -31.734375 C 15.273438 -31.398438 15.046875 -31.078125 14.828125 -30.765625 C 14.617188 -30.460938 14.40625 -30.171875 14.1875 -29.890625 C 13.507812 -28.972656 12.832031 -28.015625 12.15625 -27.015625 C 11.488281 -26.023438 10.863281 -24.929688 10.28125 -23.734375 L 10.15625 -23.515625 L 14.234375 -23.515625 C 17.484375 -23.515625 21.15625 -23.269531 25.25 -22.78125 C 25.3125 -22.78125 25.421875 -22.78125 25.578125 -22.78125 C 25.734375 -22.78125 25.894531 -22.765625 26.0625 -22.734375 C 26.226562 -22.703125 26.375 -22.640625 26.5 -22.546875 Z M 26.5 -22.546875 "/></g></g></g><g fill="#000000" fill-opacity="1"><g transform="translate(364.128686, 47.316634)"><g><path d="M 15.984375 -7.296875 C 16.078125 -7.234375 16.125 -7.097656 16.125 -6.890625 C 16.125 -6.671875 15.992188 -6.46875 15.734375 -6.28125 C 15.472656 -6.101562 15.265625 -5.953125 15.109375 -5.828125 C 14.585938 -5.367188 14.050781 -4.925781 13.5 -4.5 C 12.945312 -4.070312 12.394531 -3.660156 11.84375 -3.265625 C 10.6875 -2.429688 9.457031 -1.691406 8.15625 -1.046875 C 6.851562 -0.410156 5.46875 0.101562 4 0.5 C 3.382812 0.65625 2.738281 0.734375 2.0625 0.734375 C 1.394531 0.734375 0.722656 0.425781 0.046875 -0.1875 C -0.628906 -0.769531 -1.003906 -1.390625 -1.078125 -2.046875 C -1.148438 -2.703125 -1.097656 -3.335938 -0.921875 -3.953125 C -0.367188 -6.035156 0.410156 -7.976562 1.421875 -9.78125 C 2.429688 -11.582031 3.640625 -13.25 5.046875 -14.78125 C 5.203125 -15 5.394531 -15.195312 5.625 -15.375 C 5.851562 -15.5625 6.164062 -15.503906 6.5625 -15.203125 C 6.988281 -14.859375 7.125 -14.554688 6.96875 -14.296875 C 6.820312 -14.046875 6.6875 -13.8125 6.5625 -13.59375 C 5.582031 -12.03125 4.632812 -10.46875 3.71875 -8.90625 C 2.800781 -7.34375 1.988281 -5.707031 1.28125 -4 C 1.164062 -3.6875 1.015625 -3.363281 0.828125 -3.03125 C 0.640625 -2.695312 0.546875 -2.351562 0.546875 -2 C 0.546875 -1.644531 0.71875 -1.300781 1.0625 -0.96875 C 1.601562 -0.382812 2.210938 -0.140625 2.890625 -0.234375 C 3.566406 -0.328125 4.179688 -0.429688 4.734375 -0.546875 C 5.921875 -0.828125 7.019531 -1.242188 8.03125 -1.796875 C 9.039062 -2.347656 10.003906 -2.957031 10.921875 -3.625 C 11.046875 -3.71875 11.351562 -3.976562 11.84375 -4.40625 C 12.332031 -4.832031 12.867188 -5.289062 13.453125 -5.78125 C 14.035156 -6.269531 14.570312 -6.664062 15.0625 -6.96875 C 15.550781 -7.28125 15.859375 -7.390625 15.984375 -7.296875 Z M 8.59375 -17.359375 C 7.882812 -17.296875 7.4375 -17.617188 7.25 -18.328125 C 7.101562 -18.929688 7.164062 -19.363281 7.4375 -19.625 C 7.71875 -19.882812 8.117188 -20.03125 8.640625 -20.0625 C 9.003906 -20.09375 9.320312 -20.015625 9.59375 -19.828125 C 9.875 -19.648438 10.070312 -19.332031 10.1875 -18.875 C 10.21875 -18.351562 10.082031 -17.984375 9.78125 -17.765625 C 9.476562 -17.554688 9.082031 -17.421875 8.59375 -17.359375 Z M 8.59375 -17.359375 "/></g></g></g><g fill="#000000" fill-opacity="1"><g transform="translate(379.278448, 47.316634)"><g><path d="M 16.484375 -7.4375 C 16.734375 -7.40625 16.875 -7.359375 16.90625 -7.296875 C 16.925781 -7.117188 16.8125 -6.953125 16.5625 -6.796875 C 16.320312 -6.640625 16.050781 -6.507812 15.75 -6.40625 C 15.445312 -6.300781 15.21875 -6.234375 15.0625 -6.203125 C 14.269531 -5.953125 13.472656 -5.828125 12.671875 -5.828125 C 11.941406 -5.828125 11.222656 -5.90625 10.515625 -6.0625 C 10.148438 -6.15625 9.828125 -6.203125 9.546875 -6.203125 C 8.816406 -6.203125 8.28125 -5.816406 7.9375 -5.046875 C 7.050781 -3.085938 5.644531 -1.484375 3.71875 -0.234375 C 3.476562 -0.078125 3.195312 0.0664062 2.875 0.203125 C 2.550781 0.335938 2.207031 0.40625 1.84375 0.40625 C 1.375 0.40625 0.925781 0.269531 0.5 0 C -0.101562 -0.394531 -0.453125 -0.882812 -0.546875 -1.46875 C -0.640625 -2.050781 -0.671875 -2.648438 -0.640625 -3.265625 C -0.460938 -6.378906 0.757812 -9.101562 3.03125 -11.4375 C 3.300781 -11.707031 3.570312 -11.976562 3.84375 -12.25 C 4.125 -12.53125 4.40625 -12.8125 4.6875 -13.09375 C 5.144531 -13.488281 5.648438 -13.6875 6.203125 -13.6875 C 6.566406 -13.6875 6.929688 -13.609375 7.296875 -13.453125 C 8.160156 -13.054688 8.742188 -12.273438 9.046875 -11.109375 C 9.316406 -10.128906 9.332031 -9.179688 9.09375 -8.265625 C 8.96875 -7.742188 9.015625 -7.363281 9.234375 -7.125 C 9.472656 -6.84375 9.914062 -6.6875 10.5625 -6.65625 C 10.957031 -6.65625 11.335938 -6.65625 11.703125 -6.65625 C 12.597656 -6.65625 13.410156 -6.71875 14.140625 -6.84375 C 14.296875 -6.84375 14.445312 -6.875 14.59375 -6.9375 C 14.75 -7 14.90625 -7.070312 15.0625 -7.15625 C 15.25 -7.21875 15.441406 -7.285156 15.640625 -7.359375 C 15.835938 -7.441406 16.039062 -7.484375 16.25 -7.484375 C 16.34375 -7.484375 16.421875 -7.46875 16.484375 -7.4375 Z M 6.984375 -6.984375 C 6.984375 -7.078125 6.984375 -7.164062 6.984375 -7.25 C 6.890625 -7.40625 6.796875 -7.53125 6.703125 -7.625 C 6.609375 -7.71875 6.515625 -7.8125 6.421875 -7.90625 C 6.210938 -8.113281 6 -8.316406 5.78125 -8.515625 C 5.570312 -8.710938 5.34375 -8.921875 5.09375 -9.140625 C 5.03125 -9.171875 4.941406 -9.257812 4.828125 -9.40625 C 4.703125 -9.5625 4.566406 -9.703125 4.421875 -9.828125 C 4.285156 -9.953125 4.144531 -10.015625 4 -10.015625 C 3.8125 -10.015625 3.640625 -9.921875 3.484375 -9.734375 C 2.597656 -8.484375 1.867188 -7.242188 1.296875 -6.015625 C 0.734375 -4.785156 0.4375 -3.4375 0.40625 -1.96875 C 0.40625 -1.476562 0.546875 -1.097656 0.828125 -0.828125 C 1.015625 -0.671875 1.242188 -0.59375 1.515625 -0.59375 C 1.734375 -0.59375 1.960938 -0.65625 2.203125 -0.78125 C 3.515625 -1.425781 4.523438 -2.296875 5.234375 -3.390625 C 5.941406 -4.492188 6.507812 -5.550781 6.9375 -6.5625 C 6.96875 -6.625 6.984375 -6.765625 6.984375 -6.984375 Z M 7.34375 -8.8125 C 7.4375 -9.207031 7.484375 -9.613281 7.484375 -10.03125 C 7.484375 -10.445312 7.269531 -10.851562 6.84375 -11.25 C 6.71875 -11.40625 6.566406 -11.484375 6.390625 -11.484375 C 6.140625 -11.484375 5.914062 -11.390625 5.71875 -11.203125 C 5.519531 -11.015625 5.390625 -10.847656 5.328125 -10.703125 C 5.171875 -10.242188 5.226562 -9.851562 5.5 -9.53125 C 5.78125 -9.207031 6.085938 -8.910156 6.421875 -8.640625 C 6.515625 -8.578125 6.613281 -8.503906 6.71875 -8.421875 C 6.832031 -8.347656 6.9375 -8.265625 7.03125 -8.171875 L 7.203125 -7.984375 L 7.25 -8.171875 C 7.25 -8.296875 7.265625 -8.410156 7.296875 -8.515625 C 7.328125 -8.617188 7.34375 -8.71875 7.34375 -8.8125 Z M 7.34375 -8.8125 "/></g></g></g><g fill="#000000" fill-opacity="1"><g transform="translate(394.841398, 47.316634)"><g><path d="M 25.296875 -7.71875 C 25.484375 -7.59375 25.59375 -7.46875 25.625 -7.34375 C 25.65625 -7.21875 25.628906 -7.101562 25.546875 -7 C 25.472656 -6.894531 25.390625 -6.796875 25.296875 -6.703125 C 25.179688 -6.578125 25.109375 -6.484375 25.078125 -6.421875 C 22.535156 -2.503906 18.9375 0.765625 14.28125 3.390625 C 13.789062 3.671875 13.164062 3.8125 12.40625 3.8125 L 12.3125 3.8125 C 11.539062 3.8125 10.957031 3.613281 10.5625 3.21875 C 10.132812 2.820312 9.921875 2.222656 9.921875 1.421875 C 9.921875 0.722656 10.054688 0.09375 10.328125 -0.46875 C 10.609375 -1.039062 10.898438 -1.585938 11.203125 -2.109375 L 11.671875 -2.84375 C 11.753906 -3.03125 11.847656 -3.210938 11.953125 -3.390625 C 12.066406 -3.578125 12.171875 -3.765625 12.265625 -3.953125 L 12.3125 -4.09375 C 12.375 -4.207031 12.425781 -4.359375 12.46875 -4.546875 C 12.507812 -4.734375 12.425781 -4.929688 12.21875 -5.140625 C 11.96875 -5.390625 11.675781 -5.515625 11.34375 -5.515625 C 11.21875 -5.515625 11.078125 -5.484375 10.921875 -5.421875 C 10.316406 -5.296875 9.710938 -5.148438 9.109375 -4.984375 C 8.515625 -4.816406 7.910156 -4.640625 7.296875 -4.453125 C 6.535156 -4.179688 5.796875 -3.859375 5.078125 -3.484375 C 4.359375 -3.117188 3.660156 -2.738281 2.984375 -2.34375 C 2.679688 -2.1875 2.382812 -2.023438 2.09375 -1.859375 C 1.800781 -1.691406 1.5 -1.53125 1.1875 -1.375 L 1.015625 -1.28125 C 0.890625 -1.1875 0.75 -1.109375 0.59375 -1.046875 C 0.445312 -0.992188 0.296875 -0.96875 0.140625 -0.96875 C -0.140625 -0.96875 -0.429688 -1.085938 -0.734375 -1.328125 C -1.066406 -1.640625 -1.234375 -1.925781 -1.234375 -2.1875 C -1.234375 -2.445312 -1.203125 -2.710938 -1.140625 -2.984375 L -1.109375 -3.171875 C -0.554688 -5.679688 0.378906 -7.914062 1.703125 -9.875 L 1.796875 -10.015625 C 1.847656 -10.128906 1.921875 -10.238281 2.015625 -10.34375 C 2.109375 -10.457031 2.21875 -10.515625 2.34375 -10.515625 C 2.4375 -10.515625 2.53125 -10.484375 2.625 -10.421875 C 2.832031 -10.328125 2.96875 -10.207031 3.03125 -10.0625 C 3.1875 -9.75 3.191406 -9.382812 3.046875 -8.96875 C 2.910156 -8.5625 2.769531 -8.21875 2.625 -7.9375 C 2.53125 -7.757812 2.484375 -7.640625 2.484375 -7.578125 L 0.875 -3.390625 C 0.84375 -3.335938 0.8125 -3.238281 0.78125 -3.09375 C 0.75 -2.957031 0.796875 -2.84375 0.921875 -2.75 C 1.046875 -2.664062 1.195312 -2.625 1.375 -2.625 C 1.5625 -2.625 1.773438 -2.660156 2.015625 -2.734375 C 2.265625 -2.804688 2.4375 -2.875 2.53125 -2.9375 C 2.675781 -3 2.8125 -3.066406 2.9375 -3.140625 C 3.0625 -3.222656 3.1875 -3.304688 3.3125 -3.390625 C 3.457031 -3.515625 3.597656 -3.625 3.734375 -3.71875 C 3.878906 -3.8125 4.023438 -3.890625 4.171875 -3.953125 C 4.660156 -4.191406 5.15625 -4.414062 5.65625 -4.625 C 6.164062 -4.84375 6.679688 -5.0625 7.203125 -5.28125 C 8.460938 -5.800781 9.644531 -6.140625 10.75 -6.296875 C 10.925781 -6.328125 11.09375 -6.34375 11.25 -6.34375 C 12.039062 -6.34375 12.671875 -6.082031 13.140625 -5.5625 C 13.660156 -4.976562 13.796875 -4.253906 13.546875 -3.390625 C 13.421875 -2.878906 13.257812 -2.375 13.0625 -1.875 C 12.863281 -1.382812 12.671875 -0.894531 12.484375 -0.40625 C 12.367188 -0.132812 12.253906 0.132812 12.140625 0.40625 C 12.035156 0.6875 11.921875 0.960938 11.796875 1.234375 L 11.75 1.421875 C 11.664062 1.578125 11.609375 1.757812 11.578125 1.96875 C 11.546875 2.1875 11.617188 2.390625 11.796875 2.578125 C 12.046875 2.816406 12.320312 2.9375 12.625 2.9375 C 12.75 2.9375 12.867188 2.921875 12.984375 2.890625 C 13.109375 2.859375 13.234375 2.828125 13.359375 2.796875 C 14.796875 2.367188 16.050781 1.734375 17.125 0.890625 C 18.195312 0.046875 19.160156 -0.800781 20.015625 -1.65625 C 20.722656 -2.351562 21.484375 -3.140625 22.296875 -4.015625 C 23.109375 -4.890625 23.789062 -5.878906 24.34375 -6.984375 L 24.4375 -7.078125 C 24.488281 -7.222656 24.566406 -7.378906 24.671875 -7.546875 C 24.785156 -7.722656 24.921875 -7.8125 25.078125 -7.8125 C 25.140625 -7.8125 25.210938 -7.78125 25.296875 -7.71875 Z M 25.296875 -7.71875 "/></g></g></g><g fill="#000000" fill-opacity="1"><g transform="translate(419.126959, 47.316634)"><g><path d="M 15.609375 -8.125 L 15.703125 -7.9375 C 15.703125 -7.820312 15.554688 -7.734375 15.265625 -7.671875 C 14.972656 -7.609375 14.738281 -7.5625 14.5625 -7.53125 C 14.375 -7.5 14.265625 -7.484375 14.234375 -7.484375 C 13.804688 -7.359375 13.378906 -7.242188 12.953125 -7.140625 C 12.523438 -7.035156 12.097656 -6.90625 11.671875 -6.75 C 10.046875 -6.257812 8.648438 -5.722656 7.484375 -5.140625 C 6.597656 -4.679688 5.769531 -4.144531 5 -3.53125 C 4.238281 -2.925781 3.75 -1.992188 3.53125 -0.734375 C 3.101562 1.554688 1.742188 3.695312 -0.546875 5.6875 C -1.429688 6.457031 -2.335938 6.84375 -3.265625 6.84375 C -3.898438 6.84375 -4.445312 6.644531 -4.90625 6.25 C -5.519531 5.726562 -5.828125 5.035156 -5.828125 4.171875 C -5.828125 3.316406 -5.507812 2.507812 -4.875 1.75 C -4.070312 0.738281 -3.125 -0.128906 -2.03125 -0.859375 C -0.945312 -1.597656 0.15625 -2.257812 1.28125 -2.84375 C 1.988281 -3.207031 2.375 -3.648438 2.4375 -4.171875 C 2.5 -4.691406 2.253906 -5.367188 1.703125 -6.203125 C 1.484375 -6.472656 1.28125 -6.753906 1.09375 -7.046875 C 0.914062 -7.335938 0.734375 -7.632812 0.546875 -7.9375 L 0.234375 -8.5 C -0.472656 -9.625 -0.472656 -10.539062 0.234375 -11.25 C 2.585938 -13.632812 5.539062 -14.9375 9.09375 -15.15625 L 9.328125 -15.15625 C 10.117188 -15.15625 10.726562 -14.910156 11.15625 -14.421875 C 11.613281 -13.898438 11.753906 -13.195312 11.578125 -12.3125 C 11.359375 -11.382812 10.789062 -10.585938 9.875 -9.921875 C 9.8125 -9.859375 9.722656 -9.796875 9.609375 -9.734375 C 9.503906 -9.671875 9.394531 -9.640625 9.28125 -9.640625 C 9.15625 -9.640625 9.015625 -9.703125 8.859375 -9.828125 C 8.679688 -9.953125 8.601562 -10.085938 8.625 -10.234375 C 8.65625 -10.390625 8.71875 -10.578125 8.8125 -10.796875 C 9 -11.128906 9.175781 -11.457031 9.34375 -11.78125 C 9.507812 -12.101562 9.6875 -12.414062 9.875 -12.71875 C 9.96875 -12.90625 10.035156 -13.085938 10.078125 -13.265625 C 10.128906 -13.453125 10.078125 -13.671875 9.921875 -13.921875 C 9.734375 -14.191406 9.472656 -14.328125 9.140625 -14.328125 C 9.078125 -14.328125 8.96875 -14.3125 8.8125 -14.28125 L 8.671875 -14.28125 C 5.734375 -13.976562 3.378906 -12.859375 1.609375 -10.921875 C 1.023438 -10.285156 1.101562 -9.535156 1.84375 -8.671875 C 2.238281 -8.210938 2.601562 -7.707031 2.9375 -7.15625 C 3.269531 -6.582031 3.585938 -6.101562 3.890625 -5.71875 C 4.203125 -5.332031 4.601562 -5.140625 5.09375 -5.140625 C 5.375 -5.140625 5.710938 -5.234375 6.109375 -5.421875 C 7.273438 -5.941406 8.460938 -6.398438 9.671875 -6.796875 C 10.878906 -7.191406 12.019531 -7.546875 13.09375 -7.859375 C 13.269531 -7.910156 13.550781 -7.984375 13.9375 -8.078125 C 14.320312 -8.171875 14.679688 -8.21875 15.015625 -8.21875 C 15.203125 -8.21875 15.335938 -8.203125 15.421875 -8.171875 C 15.515625 -8.140625 15.578125 -8.125 15.609375 -8.125 Z M -2.015625 5.609375 C 0.429688 4.316406 1.929688 1.925781 2.484375 -1.5625 L 2.203125 -1.703125 C 2.171875 -1.578125 2 -1.429688 1.6875 -1.265625 C 1.382812 -1.097656 1.113281 -0.953125 0.875 -0.828125 C 0.5625 -0.671875 0.378906 -0.5625 0.328125 -0.5 C -0.410156 0.0195312 -1.070312 0.523438 -1.65625 1.015625 L -1.96875 1.28125 C -2.457031 1.707031 -2.96875 2.203125 -3.5 2.765625 C -4.039062 3.335938 -4.34375 3.945312 -4.40625 4.59375 C -4.4375 4.988281 -4.347656 5.3125 -4.140625 5.5625 C -3.921875 5.769531 -3.597656 5.875 -3.171875 5.875 C -2.921875 5.875 -2.695312 5.84375 -2.5 5.78125 C -2.300781 5.71875 -2.140625 5.660156 -2.015625 5.609375 Z M -2.015625 5.609375 "/></g></g></g></g></g><g fill="#000000" fill-opacity="1"><g transform="translate(86.399585, 270.643308)"><g><path d="M 1.8125 0 L 0.9375 0 L 0.9375 -8.5 L 1.8125 -8.5 Z M 1.8125 0 "/></g></g></g><g fill="#000000" fill-opacity="1"><g transform="translate(92.835352, 270.643308)"><g><path d="M 1.8125 -6.265625 L 1.8125 0 L 0.9375 0 L 0.9375 -9.03125 L 5.71875 -2.25 L 5.71875 -8.5 L 6.59375 -8.5 L 6.59375 0.53125 Z M 1.8125 -6.265625 "/></g></g></g><g fill="#000000" fill-opacity="1"><g transform="translate(104.043111, 270.643308)"><g><path d="M 0.25 -7.71875 L 0.25 -8.53125 L 5.25 -8.53125 L 5.25 -7.71875 L 3.1875 -7.71875 L 3.1875 -0.03125 L 2.3125 -0.03125 L 2.3125 -7.71875 Z M 0.25 -7.71875 "/></g></g></g><g fill="#000000" fill-opacity="1"><g transform="translate(113.227143, 270.643308)"><g><path d="M 5.984375 0 L 0.9375 0 L 0.9375 -8.5 L 5.984375 -8.5 L 5.984375 -7.6875 L 1.8125 -7.6875 L 1.8125 -4.65625 L 5.859375 -4.65625 L 5.859375 -3.84375 L 1.8125 -3.84375 L 1.8125 -0.8125 L 5.984375 -0.8125 Z M 5.984375 0 "/></g></g></g><g fill="#000000" fill-opacity="1"><g transform="translate(123.835277, 270.643308)"><g><path d="M 1.8125 -4.203125 L 3.78125 -4.203125 C 4.28125 -4.203125 4.6875 -4.367188 5 -4.703125 C 5.320312 -5.046875 5.484375 -5.46875 5.484375 -5.96875 C 5.484375 -6.457031 5.332031 -6.863281 5.03125 -7.1875 C 4.71875 -7.5 4.300781 -7.65625 3.78125 -7.65625 L 1.8125 -7.65625 Z M 6.359375 -5.9375 C 6.359375 -5.195312 6.097656 -4.582031 5.578125 -4.09375 C 5.109375 -3.65625 4.546875 -3.414062 3.890625 -3.375 L 6.5 0 L 5.328125 0 L 2.84375 -3.359375 L 1.8125 -3.359375 L 1.8125 0 L 0.9375 0 L 0.9375 -8.5 L 3.65625 -8.5 C 4.414062 -8.5 5.054688 -8.257812 5.578125 -7.78125 C 6.097656 -7.28125 6.359375 -6.664062 6.359375 -5.9375 Z M 6.359375 -5.9375 "/></g></g></g><g fill="#000000" fill-opacity="1"><g transform="translate(134.3185, 270.643308)"><g><path d="M 1.8125 0 L 0.9375 0 L 0.9375 -8.5 L 1.8125 -8.5 Z M 1.8125 0 "/></g></g></g><g fill="#000000" fill-opacity="1"><g transform="translate(140.754267, 270.643308)"><g><path d="M 8.421875 -4.28125 C 8.421875 -5.238281 8.082031 -6.054688 7.40625 -6.734375 C 6.71875 -7.421875 5.890625 -7.765625 4.921875 -7.765625 C 3.960938 -7.765625 3.144531 -7.421875 2.46875 -6.734375 C 1.78125 -6.054688 1.4375 -5.238281 1.4375 -4.28125 C 1.4375 -3.3125 1.78125 -2.484375 2.46875 -1.796875 C 3.144531 -1.117188 3.960938 -0.78125 4.921875 -0.78125 C 5.890625 -0.78125 6.71875 -1.117188 7.40625 -1.796875 C 8.082031 -2.484375 8.421875 -3.3125 8.421875 -4.28125 Z M 9.296875 -4.28125 C 9.296875 -3.675781 9.1875 -3.109375 8.96875 -2.578125 C 8.726562 -2.046875 8.414062 -1.582031 8.03125 -1.1875 C 7.625 -0.789062 7.15625 -0.476562 6.625 -0.25 C 6.09375 -0.0195312 5.523438 0.09375 4.921875 0.09375 C 4.328125 0.09375 3.765625 -0.0195312 3.234375 -0.25 C 2.703125 -0.476562 2.238281 -0.789062 1.84375 -1.1875 C 1.445312 -1.582031 1.132812 -2.046875 0.90625 -2.578125 C 0.675781 -3.109375 0.5625 -3.675781 0.5625 -4.28125 C 0.5625 -4.875 0.675781 -5.4375 0.90625 -5.96875 C 1.132812 -6.507812 1.445312 -6.972656 1.84375 -7.359375 C 2.238281 -7.753906 2.703125 -8.066406 3.234375 -8.296875 C 3.765625 -8.523438 4.328125 -8.640625 4.921875 -8.640625 C 5.523438 -8.640625 6.09375 -8.523438 6.625 -8.296875 C 7.15625 -8.066406 7.625 -7.753906 8.03125 -7.359375 C 8.414062 -6.972656 8.726562 -6.507812 8.96875 -5.96875 C 9.1875 -5.4375 9.296875 -4.875 9.296875 -4.28125 Z M 9.296875 -4.28125 "/></g></g></g><g fill="#000000" fill-opacity="1"><g transform="translate(154.298051, 270.643308)"><g><path d="M 1.8125 -4.203125 L 3.78125 -4.203125 C 4.28125 -4.203125 4.6875 -4.367188 5 -4.703125 C 5.320312 -5.046875 5.484375 -5.46875 5.484375 -5.96875 C 5.484375 -6.457031 5.332031 -6.863281 5.03125 -7.1875 C 4.71875 -7.5 4.300781 -7.65625 3.78125 -7.65625 L 1.8125 -7.65625 Z M 6.359375 -5.9375 C 6.359375 -5.195312 6.097656 -4.582031 5.578125 -4.09375 C 5.109375 -3.65625 4.546875 -3.414062 3.890625 -3.375 L 6.5 0 L 5.328125 0 L 2.84375 -3.359375 L 1.8125 -3.359375 L 1.8125 0 L 0.9375 0 L 0.9375 -8.5 L 3.65625 -8.5 C 4.414062 -8.5 5.054688 -8.257812 5.578125 -7.78125 C 6.097656 -7.28125 6.359375 -6.664062 6.359375 -5.9375 Z M 6.359375 -5.9375 "/></g></g></g><g fill="#000000" fill-opacity="1"><g transform="translate(164.781273, 270.643308)"><g><path d="M 3.296875 -4.015625 C 1.566406 -4.410156 0.703125 -5.148438 0.703125 -6.234375 C 0.703125 -7.035156 0.976562 -7.632812 1.53125 -8.03125 C 2.09375 -8.425781 2.75 -8.625 3.5 -8.625 C 5.15625 -8.625 6.140625 -8.007812 6.453125 -6.78125 L 5.5 -6.78125 C 5.332031 -7.507812 4.664062 -7.875 3.5 -7.875 C 2.6875 -7.875 2.113281 -7.632812 1.78125 -7.15625 C 1.65625 -6.96875 1.59375 -6.738281 1.59375 -6.46875 C 1.59375 -5.9375 1.878906 -5.53125 2.453125 -5.25 C 2.710938 -5.101562 3.28125 -4.921875 4.15625 -4.703125 C 5.019531 -4.472656 5.644531 -4.222656 6.03125 -3.953125 C 6.570312 -3.566406 6.84375 -3.03125 6.84375 -2.34375 C 6.84375 -1.476562 6.507812 -0.828125 5.84375 -0.390625 C 5.269531 -0.0234375 4.566406 0.15625 3.734375 0.15625 C 1.847656 0.15625 0.757812 -0.554688 0.46875 -1.984375 L 1.5 -1.984375 C 1.65625 -1.085938 2.398438 -0.640625 3.734375 -0.640625 C 4.679688 -0.640625 5.34375 -0.898438 5.71875 -1.421875 C 5.875 -1.628906 5.953125 -1.914062 5.953125 -2.28125 C 5.953125 -2.625 5.8125 -2.910156 5.53125 -3.140625 C 5.144531 -3.453125 4.398438 -3.742188 3.296875 -4.015625 Z M 3.296875 -4.015625 "/></g></g></g><g fill="#000000" fill-opacity="1"><g transform="translate(175.639255, 270.643308)"><g/></g></g><g fill="#000000" fill-opacity="1"><g transform="translate(182.69963, 270.643308)"><g><path d="M 4.65625 -2.421875 L 0.46875 -2.421875 L 0.46875 -3.140625 L 4.65625 -3.140625 Z M 4.65625 -2.421875 "/></g></g></g><g fill="#000000" fill-opacity="1"><g transform="translate(191.508902, 270.643308)"><g/></g></g><g fill="#000000" fill-opacity="1"><g transform="translate(198.569276, 270.643308)"><g><path d="M 8.734375 -2.59375 C 8.421875 -1.78125 7.90625 -1.128906 7.1875 -0.640625 C 6.457031 -0.128906 5.660156 0.125 4.796875 0.125 C 3.617188 0.125 2.613281 -0.304688 1.78125 -1.171875 C 0.96875 -2.023438 0.5625 -3.046875 0.5625 -4.234375 C 0.5625 -4.828125 0.671875 -5.390625 0.890625 -5.921875 C 1.109375 -6.453125 1.40625 -6.914062 1.78125 -7.3125 C 2.613281 -8.175781 3.617188 -8.609375 4.796875 -8.609375 C 5.660156 -8.609375 6.453125 -8.363281 7.171875 -7.875 C 7.890625 -7.375 8.40625 -6.71875 8.71875 -5.90625 L 7.765625 -5.90625 C 7.304688 -6.75 6.625 -7.3125 5.71875 -7.59375 C 5.414062 -7.675781 5.066406 -7.71875 4.671875 -7.71875 C 4.285156 -7.71875 3.882812 -7.625 3.46875 -7.4375 C 3.0625 -7.25 2.707031 -6.992188 2.40625 -6.671875 C 1.757812 -5.992188 1.4375 -5.179688 1.4375 -4.234375 C 1.4375 -3.296875 1.757812 -2.488281 2.40625 -1.8125 C 3.070312 -1.125 3.867188 -0.78125 4.796875 -0.78125 C 5.429688 -0.78125 6.015625 -0.945312 6.546875 -1.28125 C 7.078125 -1.613281 7.488281 -2.050781 7.78125 -2.59375 Z M 8.734375 -2.59375 "/></g></g></g><g fill="#000000" fill-opacity="1"><g transform="translate(211.36353, 270.643308)"><g><path d="M 7.09375 -2.8125 C 7.09375 -1.894531 6.789062 -1.171875 6.1875 -0.640625 C 5.625 -0.140625 4.867188 0.109375 3.921875 0.109375 C 2.972656 0.109375 2.21875 -0.140625 1.65625 -0.640625 C 1.050781 -1.171875 0.75 -1.894531 0.75 -2.8125 L 0.75 -8.5 L 1.625 -8.5 L 1.625 -2.6875 C 1.625 -2.039062 1.859375 -1.550781 2.328125 -1.21875 C 2.722656 -0.914062 3.253906 -0.765625 3.921875 -0.765625 C 4.960938 -0.765625 5.664062 -1.113281 6.03125 -1.8125 C 6.15625 -2.050781 6.21875 -2.34375 6.21875 -2.6875 L 6.21875 -8.5 L 7.09375 -8.5 Z M 7.09375 -2.8125 "/></g></g></g><g fill="#000000" fill-opacity="1"><g transform="translate(222.883587, 270.643308)"><g><path d="M 3.296875 -4.015625 C 1.566406 -4.410156 0.703125 -5.148438 0.703125 -6.234375 C 0.703125 -7.035156 0.976562 -7.632812 1.53125 -8.03125 C 2.09375 -8.425781 2.75 -8.625 3.5 -8.625 C 5.15625 -8.625 6.140625 -8.007812 6.453125 -6.78125 L 5.5 -6.78125 C 5.332031 -7.507812 4.664062 -7.875 3.5 -7.875 C 2.6875 -7.875 2.113281 -7.632812 1.78125 -7.15625 C 1.65625 -6.96875 1.59375 -6.738281 1.59375 -6.46875 C 1.59375 -5.9375 1.878906 -5.53125 2.453125 -5.25 C 2.710938 -5.101562 3.28125 -4.921875 4.15625 -4.703125 C 5.019531 -4.472656 5.644531 -4.222656 6.03125 -3.953125 C 6.570312 -3.566406 6.84375 -3.03125 6.84375 -2.34375 C 6.84375 -1.476562 6.507812 -0.828125 5.84375 -0.390625 C 5.269531 -0.0234375 4.566406 0.15625 3.734375 0.15625 C 1.847656 0.15625 0.757812 -0.554688 0.46875 -1.984375 L 1.5 -1.984375 C 1.65625 -1.085938 2.398438 -0.640625 3.734375 -0.640625 C 4.679688 -0.640625 5.34375 -0.898438 5.71875 -1.421875 C 5.875 -1.628906 5.953125 -1.914062 5.953125 -2.28125 C 5.953125 -2.625 5.8125 -2.910156 5.53125 -3.140625 C 5.144531 -3.453125 4.398438 -3.742188 3.296875 -4.015625 Z M 3.296875 -4.015625 "/></g></g></g><g fill="#000000" fill-opacity="1"><g transform="translate(233.741568, 270.643308)"><g><path d="M 0.25 -7.71875 L 0.25 -8.53125 L 5.25 -8.53125 L 5.25 -7.71875 L 3.1875 -7.71875 L 3.1875 -0.03125 L 2.3125 -0.03125 L 2.3125 -7.71875 Z M 0.25 -7.71875 "/></g></g></g><g fill="#000000" fill-opacity="1"><g transform="translate(242.9256, 270.643308)"><g><path d="M 8.421875 -4.28125 C 8.421875 -5.238281 8.082031 -6.054688 7.40625 -6.734375 C 6.71875 -7.421875 5.890625 -7.765625 4.921875 -7.765625 C 3.960938 -7.765625 3.144531 -7.421875 2.46875 -6.734375 C 1.78125 -6.054688 1.4375 -5.238281 1.4375 -4.28125 C 1.4375 -3.3125 1.78125 -2.484375 2.46875 -1.796875 C 3.144531 -1.117188 3.960938 -0.78125 4.921875 -0.78125 C 5.890625 -0.78125 6.71875 -1.117188 7.40625 -1.796875 C 8.082031 -2.484375 8.421875 -3.3125 8.421875 -4.28125 Z M 9.296875 -4.28125 C 9.296875 -3.675781 9.1875 -3.109375 8.96875 -2.578125 C 8.726562 -2.046875 8.414062 -1.582031 8.03125 -1.1875 C 7.625 -0.789062 7.15625 -0.476562 6.625 -0.25 C 6.09375 -0.0195312 5.523438 0.09375 4.921875 0.09375 C 4.328125 0.09375 3.765625 -0.0195312 3.234375 -0.25 C 2.703125 -0.476562 2.238281 -0.789062 1.84375 -1.1875 C 1.445312 -1.582031 1.132812 -2.046875 0.90625 -2.578125 C 0.675781 -3.109375 0.5625 -3.675781 0.5625 -4.28125 C 0.5625 -4.875 0.675781 -5.4375 0.90625 -5.96875 C 1.132812 -6.507812 1.445312 -6.972656 1.84375 -7.359375 C 2.238281 -7.753906 2.703125 -8.066406 3.234375 -8.296875 C 3.765625 -8.523438 4.328125 -8.640625 4.921875 -8.640625 C 5.523438 -8.640625 6.09375 -8.523438 6.625 -8.296875 C 7.15625 -8.066406 7.625 -7.753906 8.03125 -7.359375 C 8.414062 -6.972656 8.726562 -6.507812 8.96875 -5.96875 C 9.1875 -5.4375 9.296875 -4.875 9.296875 -4.28125 Z M 9.296875 -4.28125 "/></g></g></g><g fill="#000000" fill-opacity="1"><g transform="translate(256.469384, 270.643308)"><g><path d="M 8.78125 0 L 7.453125 -6.046875 L 4.90625 0.5 L 2.34375 -6.046875 L 1.03125 0 L 0.125 0 L 2.109375 -9.0625 L 4.90625 -1.78125 L 7.6875 -9.0625 L 9.65625 0 Z M 8.78125 0 "/></g></g></g><g fill="#000000" fill-opacity="1"><g transform="translate(269.93822, 270.643308)"><g/></g></g><g fill="#000000" fill-opacity="1"><g transform="translate(276.998595, 270.643308)"><g><path d="M 1.8125 0 L 0.9375 0 L 0.9375 -8.5 L 1.8125 -8.5 L 1.8125 -4.671875 L 5.671875 -4.671875 L 5.671875 -8.5 L 6.546875 -8.5 L 6.546875 0 L 5.671875 0 L 5.671875 -3.796875 L 1.8125 -3.796875 Z M 1.8125 0 "/></g></g></g><g fill="#000000" fill-opacity="1"><g transform="translate(288.168886, 270.643308)"><g><path d="M 8.421875 -4.28125 C 8.421875 -5.238281 8.082031 -6.054688 7.40625 -6.734375 C 6.71875 -7.421875 5.890625 -7.765625 4.921875 -7.765625 C 3.960938 -7.765625 3.144531 -7.421875 2.46875 -6.734375 C 1.78125 -6.054688 1.4375 -5.238281 1.4375 -4.28125 C 1.4375 -3.3125 1.78125 -2.484375 2.46875 -1.796875 C 3.144531 -1.117188 3.960938 -0.78125 4.921875 -0.78125 C 5.890625 -0.78125 6.71875 -1.117188 7.40625 -1.796875 C 8.082031 -2.484375 8.421875 -3.3125 8.421875 -4.28125 Z M 9.296875 -4.28125 C 9.296875 -3.675781 9.1875 -3.109375 8.96875 -2.578125 C 8.726562 -2.046875 8.414062 -1.582031 8.03125 -1.1875 C 7.625 -0.789062 7.15625 -0.476562 6.625 -0.25 C 6.09375 -0.0195312 5.523438 0.09375 4.921875 0.09375 C 4.328125 0.09375 3.765625 -0.0195312 3.234375 -0.25 C 2.703125 -0.476562 2.238281 -0.789062 1.84375 -1.1875 C 1.445312 -1.582031 1.132812 -2.046875 0.90625 -2.578125 C 0.675781 -3.109375 0.5625 -3.675781 0.5625 -4.28125 C 0.5625 -4.875 0.675781 -5.4375 0.90625 -5.96875 C 1.132812 -6.507812 1.445312 -6.972656 1.84375 -7.359375 C 2.238281 -7.753906 2.703125 -8.066406 3.234375 -8.296875 C 3.765625 -8.523438 4.328125 -8.640625 4.921875 -8.640625 C 5.523438 -8.640625 6.09375 -8.523438 6.625 -8.296875 C 7.15625 -8.066406 7.625 -7.753906 8.03125 -7.359375 C 8.414062 -6.972656 8.726562 -6.507812 8.96875 -5.96875 C 9.1875 -5.4375 9.296875 -4.875 9.296875 -4.28125 Z M 9.296875 -4.28125 "/></g></g></g><g fill="#000000" fill-opacity="1"><g transform="translate(301.712648, 270.643308)"><g><path d="M 8.78125 0 L 7.453125 -6.046875 L 4.90625 0.5 L 2.34375 -6.046875 L 1.03125 0 L 0.125 0 L 2.109375 -9.0625 L 4.90625 -1.78125 L 7.6875 -9.0625 L 9.65625 0 Z M 8.78125 0 "/></g></g></g><g fill="#000000" fill-opacity="1"><g transform="translate(315.181496, 270.643308)"><g><path d="M 5.984375 0 L 0.9375 0 L 0.9375 -8.5 L 5.984375 -8.5 L 5.984375 -7.6875 L 1.8125 -7.6875 L 1.8125 -4.65625 L 5.859375 -4.65625 L 5.859375 -3.84375 L 1.8125 -3.84375 L 1.8125 -0.8125 L 5.984375 -0.8125 Z M 5.984375 0 "/></g></g></g><g fill="#000000" fill-opacity="1"><g transform="translate(325.789642, 270.643308)"><g><path d="M 3.296875 -4.015625 C 1.566406 -4.410156 0.703125 -5.148438 0.703125 -6.234375 C 0.703125 -7.035156 0.976562 -7.632812 1.53125 -8.03125 C 2.09375 -8.425781 2.75 -8.625 3.5 -8.625 C 5.15625 -8.625 6.140625 -8.007812 6.453125 -6.78125 L 5.5 -6.78125 C 5.332031 -7.507812 4.664062 -7.875 3.5 -7.875 C 2.6875 -7.875 2.113281 -7.632812 1.78125 -7.15625 C 1.65625 -6.96875 1.59375 -6.738281 1.59375 -6.46875 C 1.59375 -5.9375 1.878906 -5.53125 2.453125 -5.25 C 2.710938 -5.101562 3.28125 -4.921875 4.15625 -4.703125 C 5.019531 -4.472656 5.644531 -4.222656 6.03125 -3.953125 C 6.570312 -3.566406 6.84375 -3.03125 6.84375 -2.34375 C 6.84375 -1.476562 6.507812 -0.828125 5.84375 -0.390625 C 5.269531 -0.0234375 4.566406 0.15625 3.734375 0.15625 C 1.847656 0.15625 0.757812 -0.554688 0.46875 -1.984375 L 1.5 -1.984375 C 1.65625 -1.085938 2.398438 -0.640625 3.734375 -0.640625 C 4.679688 -0.640625 5.34375 -0.898438 5.71875 -1.421875 C 5.875 -1.628906 5.953125 -1.914062 5.953125 -2.28125 C 5.953125 -2.625 5.8125 -2.910156 5.53125 -3.140625 C 5.144531 -3.453125 4.398438 -3.742188 3.296875 -4.015625 Z M 3.296875 -4.015625 "/></g></g></g><g fill="#000000" fill-opacity="1"><g transform="translate(336.647612, 270.643308)"><g/></g></g><g fill="#000000" fill-opacity="1"><g transform="translate(343.707975, 270.643308)"><g><path d="M 4.65625 -2.421875 L 0.46875 -2.421875 L 0.46875 -3.140625 L 4.65625 -3.140625 Z M 4.65625 -2.421875 "/></g></g></g><g fill="#000000" fill-opacity="1"><g transform="translate(352.51727, 270.643308)"><g/></g></g><g fill="#000000" fill-opacity="1"><g transform="translate(359.577634, 270.643308)"><g><path d="M 1.8125 -4.203125 L 3.78125 -4.203125 C 4.28125 -4.203125 4.6875 -4.367188 5 -4.703125 C 5.320312 -5.046875 5.484375 -5.46875 5.484375 -5.96875 C 5.484375 -6.457031 5.332031 -6.863281 5.03125 -7.1875 C 4.71875 -7.5 4.300781 -7.65625 3.78125 -7.65625 L 1.8125 -7.65625 Z M 6.359375 -5.9375 C 6.359375 -5.195312 6.097656 -4.582031 5.578125 -4.09375 C 5.109375 -3.65625 4.546875 -3.414062 3.890625 -3.375 L 6.5 0 L 5.328125 0 L 2.84375 -3.359375 L 1.8125 -3.359375 L 1.8125 0 L 0.9375 0 L 0.9375 -8.5 L 3.65625 -8.5 C 4.414062 -8.5 5.054688 -8.257812 5.578125 -7.78125 C 6.097656 -7.28125 6.359375 -6.664062 6.359375 -5.9375 Z M 6.359375 -5.9375 "/></g></g></g><g fill="#000000" fill-opacity="1"><g transform="translate(370.060856, 270.643308)"><g><path d="M 5.984375 0 L 0.9375 0 L 0.9375 -8.5 L 5.984375 -8.5 L 5.984375 -7.6875 L 1.8125 -7.6875 L 1.8125 -4.65625 L 5.859375 -4.65625 L 5.859375 -3.84375 L 1.8125 -3.84375 L 1.8125 -0.8125 L 5.984375 -0.8125 Z M 5.984375 0 "/></g></g></g><g fill="#000000" fill-opacity="1"><g transform="translate(380.669002, 270.643308)"><g><path d="M 2.3125 -3.125 L 5.40625 -3.125 L 3.859375 -7.03125 Z M 7.59375 0 L 6.640625 0 L 5.71875 -2.3125 L 1.984375 -2.3125 L 1.078125 0 L 0.125 0 L 3.859375 -9.09375 Z M 7.59375 0 "/></g></g></g><g fill="#000000" fill-opacity="1"><g transform="translate(392.064135, 270.643308)"><g><path d="M 1.8125 -0.875 L 4.84375 -0.875 L 4.84375 0 L 0.9375 0 L 0.9375 -8.5 L 1.8125 -8.5 Z M 1.8125 -0.875 "/></g></g></g><g fill="#000000" fill-opacity="1"><g transform="translate(400.848413, 270.643308)"><g><path d="M 0.25 -7.71875 L 0.25 -8.53125 L 5.25 -8.53125 L 5.25 -7.71875 L 3.1875 -7.71875 L 3.1875 -0.03125 L 2.3125 -0.03125 L 2.3125 -7.71875 Z M 0.25 -7.71875 "/></g></g></g><g fill="#000000" fill-opacity="1"><g transform="translate(410.032456, 270.643308)"><g><path d="M 4.21875 -4 L 4.21875 0 L 3.34375 0 L 3.34375 -4 L 0.125 -8.5 L 1.25 -8.5 L 3.78125 -4.859375 L 6.328125 -8.5 L 7.4375 -8.5 Z M 4.21875 -4 "/></g></g></g></svg>