<svg xmlns="http://www.w3.org/2000/svg" xmlns:xlink="http://www.w3.org/1999/xlink" width="500" zoomAndPan="magnify" viewBox="0 0 375 374.999991" height="500" preserveAspectRatio="xMidYMid meet" version="1.0"><defs><clipPath id="7a5ee9761a"><path d="M 159.167969 230.171875 L 219.125 230.171875 L 219.125 258.847656 L 159.167969 258.847656 Z M 159.167969 230.171875 " clip-rule="nonzero"/></clipPath><clipPath id="72b482443e"><path d="M 0.167969 0.171875 L 60.125 0.171875 L 60.125 28.847656 L 0.167969 28.847656 Z M 0.167969 0.171875 " clip-rule="nonzero"/></clipPath><clipPath id="7de8a92afd"><rect x="0" width="61" y="0" height="29"/></clipPath><clipPath id="d50a576d13"><path d="M 159.167969 230.171875 L 219.121094 230.171875 L 219.121094 258.671875 L 159.167969 258.671875 Z M 159.167969 230.171875 " clip-rule="nonzero"/></clipPath><clipPath id="d7e949226f"><path d="M 159.167969 260.546875 L 219.125 260.546875 L 219.125 289.222656 L 159.167969 289.222656 Z M 159.167969 260.546875 " clip-rule="nonzero"/></clipPath><clipPath id="daf1da77fd"><path d="M 0.167969 0.546875 L 60.125 0.546875 L 60.125 29.222656 L 0.167969 29.222656 Z M 0.167969 0.546875 " clip-rule="nonzero"/></clipPath><clipPath id="a6b50b4c15"><rect x="0" width="61" y="0" height="30"/></clipPath><clipPath id="1acacc4757"><path d="M 159.167969 260.546875 L 219.121094 260.546875 L 219.121094 289.046875 L 159.167969 289.046875 Z M 159.167969 260.546875 " clip-rule="nonzero"/></clipPath><clipPath id="d6d2001720"><path d="M 164.148438 287.089844 L 172.636719 287.089844 L 172.636719 298.777344 L 164.148438 298.777344 Z M 164.148438 287.089844 " clip-rule="nonzero"/></clipPath><clipPath id="cf9cb06f98"><path d="M 0.148438 0.0898438 L 8.636719 0.0898438 L 8.636719 11.777344 L 0.148438 11.777344 Z M 0.148438 0.0898438 " clip-rule="nonzero"/></clipPath><clipPath id="c1de3159c5"><rect x="0" width="9" y="0" height="12"/></clipPath><clipPath id="437eda31ba"><path d="M 164.148438 287.09375 L 172.398438 287.09375 L 172.398438 298.773438 L 164.148438 298.773438 Z M 164.148438 287.09375 " clip-rule="nonzero"/></clipPath><clipPath id="b32411463b"><path d="M 202.03125 287.089844 L 210.519531 287.089844 L 210.519531 298.777344 L 202.03125 298.777344 Z M 202.03125 287.089844 " clip-rule="nonzero"/></clipPath><clipPath id="bc51e4ade1"><path d="M 0.03125 0.0898438 L 8.519531 0.0898438 L 8.519531 11.777344 L 0.03125 11.777344 Z M 0.03125 0.0898438 " clip-rule="nonzero"/></clipPath><clipPath id="0ec05c3fc5"><rect x="0" width="9" y="0" height="12"/></clipPath><clipPath id="13cf00075c"><path d="M 202.03125 287.09375 L 210.28125 287.09375 L 210.28125 298.773438 L 202.03125 298.773438 Z M 202.03125 287.09375 " clip-rule="nonzero"/></clipPath><clipPath id="0752f077e9"><path d="M 178.152344 271.738281 L 200.140625 271.738281 L 200.140625 274.886719 L 178.152344 274.886719 Z M 178.152344 271.738281 " clip-rule="nonzero"/></clipPath><clipPath id="a08dd2f87a"><path d="M 0.152344 0.738281 L 22.140625 0.738281 L 22.140625 3.886719 L 0.152344 3.886719 Z M 0.152344 0.738281 " clip-rule="nonzero"/></clipPath><clipPath id="54e2c5c0f1"><rect x="0" width="23" y="0" height="4"/></clipPath><clipPath id="da870a2cde"><path d="M 178.171875 271.738281 L 199.902344 271.738281 L 199.902344 274.738281 L 178.171875 274.738281 Z M 178.171875 271.738281 " clip-rule="nonzero"/></clipPath><clipPath id="277344386f"><path d="M 178.152344 242.9375 L 200.140625 242.9375 L 200.140625 246.082031 L 178.152344 246.082031 Z M 178.152344 242.9375 " clip-rule="nonzero"/></clipPath><clipPath id="f32b8ab10b"><path d="M 0.152344 0.9375 L 22.140625 0.9375 L 22.140625 4.082031 L 0.152344 4.082031 Z M 0.152344 0.9375 " clip-rule="nonzero"/></clipPath><clipPath id="a0521a7e03"><rect x="0" width="23" y="0" height="5"/></clipPath><clipPath id="0afc787d41"><path d="M 178.171875 242.9375 L 199.902344 242.9375 L 199.902344 245.9375 L 178.171875 245.9375 Z M 178.171875 242.9375 " clip-rule="nonzero"/></clipPath><clipPath id="51fbceadbd"><path d="M 166.429688 154.378906 L 211.953125 154.378906 L 211.953125 188.453125 L 166.429688 188.453125 Z M 166.429688 154.378906 " clip-rule="nonzero"/></clipPath><clipPath id="bcbc2dfa8d"><path d="M 177.789062 154.378906 L 200.503906 154.378906 L 211.863281 188.453125 L 166.429688 188.453125 Z M 177.789062 154.378906 " clip-rule="nonzero"/></clipPath><clipPath id="888ce558d6"><path d="M 0.429688 0.378906 L 45.921875 0.378906 L 45.921875 34.453125 L 0.429688 34.453125 Z M 0.429688 0.378906 " clip-rule="nonzero"/></clipPath><clipPath id="2b34c3484a"><path d="M 11.789062 0.378906 L 34.503906 0.378906 L 45.863281 34.453125 L 0.429688 34.453125 Z M 11.789062 0.378906 " clip-rule="nonzero"/></clipPath><clipPath id="174154566f"><rect x="0" width="46" y="0" height="35"/></clipPath><clipPath id="fda5917fb5"><path d="M 166.4375 154.378906 L 211.859375 154.378906 L 211.859375 188.128906 L 166.4375 188.128906 Z M 166.4375 154.378906 " clip-rule="nonzero"/></clipPath><clipPath id="295b12fa04"><path d="M 177.792969 154.378906 L 200.503906 154.378906 L 211.859375 188.445312 L 166.4375 188.445312 Z M 177.792969 154.378906 " clip-rule="nonzero"/></clipPath><clipPath id="71281c8b42"><path d="M 179.671875 193.445312 L 198.625 193.445312 L 198.625 223.875 L 179.671875 223.875 Z M 179.671875 193.445312 " clip-rule="nonzero"/></clipPath><clipPath id="55f6206a12"><path d="M 189.148438 193.445312 C 194.378906 193.445312 198.625 197.6875 198.625 202.921875 L 198.625 214.394531 C 198.625 219.628906 194.378906 223.871094 189.148438 223.871094 C 183.914062 223.871094 179.671875 219.628906 179.671875 214.394531 L 179.671875 202.921875 C 179.671875 197.6875 183.914062 193.445312 189.148438 193.445312 Z M 189.148438 193.445312 " clip-rule="nonzero"/></clipPath><clipPath id="9e607da760"><path d="M 0.671875 0.445312 L 19.625 0.445312 L 19.625 30.875 L 0.671875 30.875 Z M 0.671875 0.445312 " clip-rule="nonzero"/></clipPath><clipPath id="cb9de5397d"><path d="M 10.148438 0.445312 C 15.378906 0.445312 19.625 4.6875 19.625 9.921875 L 19.625 21.394531 C 19.625 26.628906 15.378906 30.871094 10.148438 30.871094 C 4.914062 30.871094 0.671875 26.628906 0.671875 21.394531 L 0.671875 9.921875 C 0.671875 4.6875 4.914062 0.445312 10.148438 0.445312 Z M 10.148438 0.445312 " clip-rule="nonzero"/></clipPath><clipPath id="cd4373bf73"><rect x="0" width="20" y="0" height="31"/></clipPath><clipPath id="0094969592"><path d="M 179.671875 193.445312 L 198.421875 193.445312 L 198.421875 224 L 179.671875 224 Z M 179.671875 193.445312 " clip-rule="nonzero"/></clipPath><clipPath id="a5c6a0cf1c"><path d="M 189.144531 193.445312 C 194.378906 193.445312 198.621094 197.6875 198.621094 202.917969 L 198.621094 214.390625 C 198.621094 219.625 194.378906 223.867188 189.144531 223.867188 C 183.910156 223.867188 179.671875 219.625 179.671875 214.390625 L 179.671875 202.917969 C 179.671875 197.6875 183.910156 193.445312 189.144531 193.445312 Z M 189.144531 193.445312 " clip-rule="nonzero"/></clipPath></defs><rect x="-37.5" width="450" fill="#ffffff" y="-37.499999" height="449.999989" fill-opacity="1"/><rect x="-37.5" width="450" fill="#ffffff" y="-37.499999" height="449.999989" fill-opacity="1"/><path stroke-linecap="butt" transform="matrix(-0.00742815, -0.749963, 0.749963, -0.00742815, 74.564678, 340.148123)" fill="none" stroke-linejoin="miter" d="M -0.00227061 6.497393 L 252.843441 6.501629 " stroke="#000000" stroke-width="13" stroke-opacity="1" stroke-miterlimit="4"/><path stroke-linecap="butt" transform="matrix(-0.749993, -0.00329617, 0.00329617, -0.749993, 302.67898, 342.050133)" fill="none" stroke-linejoin="miter" d="M 0.00157804 6.499192 L 303.71287 6.497746 " stroke="#000000" stroke-width="13" stroke-opacity="1" stroke-miterlimit="4"/><path stroke-linecap="butt" transform="matrix(0.53033, -0.53033, 0.53033, 0.53033, 72.268073, 150.927352)" fill="none" stroke-linejoin="miter" d="M -0.000826198 6.500121 L 213.884257 6.500121 " stroke="#000000" stroke-width="13" stroke-opacity="1" stroke-miterlimit="4"/><path stroke-linecap="butt" transform="matrix(0.53033, 0.53033, -0.53033, 0.53033, 184.963308, 37.52865)" fill="none" stroke-linejoin="miter" d="M 0.000216856 6.50123 L 213.837423 6.497547 " stroke="#000000" stroke-width="13" stroke-opacity="1" stroke-miterlimit="4"/><g clip-path="url(#7a5ee9761a)"><g transform="matrix(1, 0, 0, 1, 159, 230)"><g clip-path="url(#7de8a92afd)"><g clip-path="url(#72b482443e)"><path fill="#ffffff" d="M 0.167969 0.171875 L 60.097656 0.171875 L 60.097656 28.847656 L 0.167969 28.847656 Z M 0.167969 0.171875 " fill-opacity="1" fill-rule="nonzero"/></g></g></g></g><g clip-path="url(#d50a576d13)"><path stroke-linecap="butt" transform="matrix(0.75, 0, 0, 0.75, 159.166825, 230.1727)" fill="none" stroke-linejoin="miter" d="M 0.00152467 -0.00110011 L 79.93903 -0.00110011 L 79.93903 38.233277 L 0.00152467 38.233277 Z M 0.00152467 -0.00110011 " stroke="#000000" stroke-width="12" stroke-opacity="1" stroke-miterlimit="4"/></g><g clip-path="url(#d7e949226f)"><g transform="matrix(1, 0, 0, 1, 159, 260)"><g clip-path="url(#a6b50b4c15)"><g clip-path="url(#daf1da77fd)"><path fill="#ffffff" d="M 0.167969 0.546875 L 60.097656 0.546875 L 60.097656 29.222656 L 0.167969 29.222656 Z M 0.167969 0.546875 " fill-opacity="1" fill-rule="nonzero"/></g></g></g></g><g clip-path="url(#1acacc4757)"><path stroke-linecap="butt" transform="matrix(0.75, 0, 0, 0.75, 159.166825, 260.547991)" fill="none" stroke-linejoin="miter" d="M 0.00152467 -0.00148785 L 79.93903 -0.00148785 L 79.93903 38.23289 L 0.00152467 38.23289 Z M 0.00152467 -0.00148785 " stroke="#000000" stroke-width="12" stroke-opacity="1" stroke-miterlimit="4"/></g><g clip-path="url(#d6d2001720)"><g transform="matrix(1, 0, 0, 1, 164, 287)"><g clip-path="url(#c1de3159c5)"><g clip-path="url(#cf9cb06f98)"><path fill="#ffffff" d="M 0.148438 0.0898438 L 8.636719 0.0898438 L 8.636719 11.761719 L 0.148438 11.761719 Z M 0.148438 0.0898438 " fill-opacity="1" fill-rule="nonzero"/></g></g></g></g><g clip-path="url(#437eda31ba)"><path stroke-linecap="butt" transform="matrix(0.75, 0, 0, 0.75, 164.148582, 287.092131)" fill="none" stroke-linejoin="miter" d="M -0.000192295 0.002159 L 11.312308 0.002159 L 11.312308 15.575077 L -0.000192295 15.575077 Z M -0.000192295 0.002159 " stroke="#000000" stroke-width="12" stroke-opacity="1" stroke-miterlimit="4"/></g><g clip-path="url(#b32411463b)"><g transform="matrix(1, 0, 0, 1, 202, 287)"><g clip-path="url(#0ec05c3fc5)"><g clip-path="url(#bc51e4ade1)"><path fill="#ffffff" d="M 0.03125 0.0898438 L 8.519531 0.0898438 L 8.519531 11.761719 L 0.03125 11.761719 Z M 0.03125 0.0898438 " fill-opacity="1" fill-rule="nonzero"/></g></g></g></g><g clip-path="url(#13cf00075c)"><path stroke-linecap="butt" transform="matrix(0.75, 0, 0, 0.75, 202.030993, 287.092131)" fill="none" stroke-linejoin="miter" d="M 0.000342889 0.002159 L 11.312844 0.002159 L 11.312844 15.575077 L 0.000342889 15.575077 Z M 0.000342889 0.002159 " stroke="#000000" stroke-width="12" stroke-opacity="1" stroke-miterlimit="4"/></g><g clip-path="url(#0752f077e9)"><g transform="matrix(1, 0, 0, 1, 178, 271)"><g clip-path="url(#54e2c5c0f1)"><g clip-path="url(#a08dd2f87a)"><path fill="#000000" d="M 0.152344 0.738281 L 22.140625 0.738281 L 22.140625 3.886719 L 0.152344 3.886719 Z M 0.152344 0.738281 " fill-opacity="1" fill-rule="nonzero"/></g></g></g></g><g clip-path="url(#da870a2cde)"><path stroke-linecap="butt" transform="matrix(0.75, 0, 0, 0.75, 178.171003, 271.739221)" fill="none" stroke-linejoin="miter" d="M 0.0011624 -0.00125347 L 29.261581 -0.00125347 L 29.261581 4.186247 L 0.0011624 4.186247 Z M 0.0011624 -0.00125347 " stroke="#000000" stroke-width="12" stroke-opacity="1" stroke-miterlimit="4"/></g><g clip-path="url(#277344386f)"><g transform="matrix(1, 0, 0, 1, 178, 242)"><g clip-path="url(#a0521a7e03)"><g clip-path="url(#f32b8ab10b)"><path fill="#000000" d="M 0.152344 0.9375 L 22.140625 0.9375 L 22.140625 4.082031 L 0.152344 4.082031 Z M 0.152344 0.9375 " fill-opacity="1" fill-rule="nonzero"/></g></g></g></g><g clip-path="url(#0afc787d41)"><path stroke-linecap="butt" transform="matrix(0.75, 0, 0, 0.75, 178.171003, 242.937289)" fill="none" stroke-linejoin="miter" d="M 0.0011624 0.000281537 L 29.261581 0.000281537 L 29.261581 4.187782 L 0.0011624 4.187782 Z M 0.0011624 0.000281537 " stroke="#000000" stroke-width="12" stroke-opacity="1" stroke-miterlimit="4"/></g><g clip-path="url(#51fbceadbd)"><g clip-path="url(#bcbc2dfa8d)"><g transform="matrix(1, 0, 0, 1, 166, 154)"><g clip-path="url(#174154566f)"><g clip-path="url(#888ce558d6)"><g clip-path="url(#2b34c3484a)"><path fill="#ffffff" d="M 0.429688 0.378906 L 45.820312 0.378906 L 45.820312 34.453125 L 0.429688 34.453125 Z M 0.429688 0.378906 " fill-opacity="1" fill-rule="nonzero"/></g></g></g></g></g></g><g clip-path="url(#fda5917fb5)"><g clip-path="url(#295b12fa04)"><path stroke-linecap="butt" transform="matrix(0.75, 0, 0, 0.75, 166.435746, 154.37747)" fill="none" stroke-linejoin="miter" d="M 15.142964 0.00191518 L 45.424214 0.00191518 L 60.564839 45.42379 L 0.00233924 45.42379 Z M 15.142964 0.00191518 " stroke="#000000" stroke-width="12" stroke-opacity="1" stroke-miterlimit="4"/></g></g><g clip-path="url(#71281c8b42)"><g clip-path="url(#55f6206a12)"><g transform="matrix(1, 0, 0, 1, 179, 193)"><g clip-path="url(#cd4373bf73)"><g clip-path="url(#9e607da760)"><g clip-path="url(#cb9de5397d)"><path fill="#ffffff" d="M 0.671875 0.445312 L 19.625 0.445312 L 19.625 30.875 L 0.671875 30.875 Z M 0.671875 0.445312 " fill-opacity="1" fill-rule="nonzero"/></g></g></g></g></g></g><g clip-path="url(#0094969592)"><g clip-path="url(#a5c6a0cf1c)"><path stroke-linecap="butt" transform="matrix(0.75, 0, 0, 0.75, 179.670007, 193.444982)" fill="none" stroke-linejoin="miter" d="M 12.632699 0.000441071 C 19.611866 0.000441071 25.268116 5.656691 25.268116 12.630649 L 25.268116 27.927524 C 25.268116 34.906691 19.611866 40.562941 12.632699 40.562941 C 5.653532 40.562941 0.00249053 34.906691 0.00249053 27.927524 L 0.00249053 12.630649 C 0.00249053 5.656691 5.653532 0.000441071 12.632699 0.000441071 Z M 12.632699 0.000441071 " stroke="#000000" stroke-width="12" stroke-opacity="1" stroke-miterlimit="4"/></g></g></svg>