<svg xmlns="http://www.w3.org/2000/svg" width="500" height="500" viewBox="0 0 375 375"><defs><clipPath id="a"><path d="M91 139.902h41v189H91Zm0 0"/></clipPath></defs><path fill="#fff" fill-rule="evenodd" d="M273.512 194.598q-2.748 3.486-4.29 7.3v69.594c.946 2.438 2.196 4.551 3.75 6.352 3.5 3.015 5.731 6.344 6.934 9.804v.012c1.516 4.371 1.371 8.883.055 13.211-1.27 4.184-3.637 8.184-6.633 11.695-4.601 5.403-10.762 9.73-16.742 11.84a2.77 2.77 0 0 1-1.914.074 2.79 2.79 0 0 1-1.793-3.511l6.793-20.73-9.125-3.282-7.172 19.848a2.84 2.84 0 0 1-.937 1.261 2.78 2.78 0 0 1-3.895-.53c-3.762-4.962-6.23-10.22-7.395-15.77-1.168-5.563-1.027-11.383.415-17.454l.007.004a2.74 2.74 0 0 1 1.004-1.558c2.91-2.25 5.363-4.633 7.348-7.153 1.832-2.32 3.258-4.757 4.285-7.296V198.71c-.46-1.2-.992-2.3-1.582-3.316a20.5 20.5 0 0 0-2.168-3.032c-3.496-3.02-5.73-6.347-6.93-9.812v-.008c-1.52-4.375-1.375-8.883-.058-13.215 1.273-4.18 3.636-8.18 6.633-11.691 4.601-5.403 10.765-9.735 16.738-11.844a2.786 2.786 0 0 1 3.707 3.441l-6.79 20.73 9.126 3.282 7.176-19.848c.18-.484.496-.925.937-1.261a2.777 2.777 0 0 1 3.89.531c3.766 4.957 6.231 10.219 7.4 15.77q1.743 8.343-.415 17.449h-.012a2.77 2.77 0 0 1-1.007 1.562c-2.86 2.211-5.27 4.54-7.22 6.977Zm-81.356-.356h-.601l3.578 99.29c.285 8.046-3.438 13.316-8.352 15.777a15 15 0 0 1-6.687 1.582v-.012c-2.293 0-4.594-.524-6.684-1.57-4.922-2.465-8.652-7.739-8.367-15.778l3.578-99.289h-.598a2.79 2.79 0 0 1-2.601-1.777l-5.2-10.93c-7.66.43-15.702 5.274-24.117 14.535a2.785 2.785 0 0 1-3.933.184 2.76 2.76 0 0 1-.899-2.32c.329-9.512 3.73-18.817 9.84-25.739 5.61-6.355 13.465-10.707 23.301-11.398l27.742-.008c.953 0 1.793.477 2.297 1.207l4.254 5.281h4.898l4.372-4.03a2.8 2.8 0 0 1 1.89-.735l11.828-.004c1.54 0 2.793 1.25 2.793 2.793l-.015.262-.075 13.957.079 14.207a2.78 2.78 0 0 1-2.77 2.789h-.012v.011h-11.828a2.78 2.78 0 0 1-2.02-.863l-4.238-3.91h-4.902l-4.383 5.441a2.77 2.77 0 0 1-2.168 1.04Zm0 0"/><g clip-path="url(#a)"><path fill="#fff" fill-rule="evenodd" d="M102.813 238.418v-63.3l-4.95-9.161a2.8 2.8 0 0 1-.207-2.144l5.64-21.778a2.784 2.784 0 0 1 2.786-2.086l3.727-.023c.113-.02.234-.024.355-.024l.266.012h1.148l.254.012 3.938.027a2.78 2.78 0 0 1 2.68 2.082l5.675 21.91a2.8 2.8 0 0 1-.242 2.016l-4.942 9.156v63.305h9.32a2.79 2.79 0 0 1 2.794 2.789v10.68a2.8 2.8 0 0 1-1.235 2.312 8.594 8.594 0 0 0-.093 14.164 2.79 2.79 0 0 1 1.328 2.375v38.653c0 5.449-2.23 10.402-5.817 13.992l-.008-.004c-3.593 3.59-8.546 5.82-13.988 5.82-5.36 0-10.246-2.164-13.828-5.664l-.16-.152c-3.59-3.59-5.817-8.543-5.817-13.992v-38.653a2.8 2.8 0 0 1 1.231-2.312 8.54 8.54 0 0 0 2.773-3.086 8.6 8.6 0 0 0 .004-8.059 8.6 8.6 0 0 0-2.68-3.02 2.79 2.79 0 0 1-1.328-2.378V241.21a2.795 2.795 0 0 1 2.793-2.793Zm0 0"/></g><path fill="#fff" fill-rule="evenodd" d="m263.645 271.992-.004-70.613c0-.402.086-.79.242-1.137 1.234-3.187 2.988-6.222 5.246-9.086l.152-.18c2.051-2.566 4.508-5 7.367-7.292q1.584-7.419.184-14.11c-.656-3.117-1.797-6.14-3.43-9.058l-6.23 17.238a2.786 2.786 0 0 1-3.567 1.668l-14.273-5.133a2.783 2.783 0 0 1-1.707-3.476l5.61-17.141c-3.239 1.96-6.34 4.582-8.907 7.594-2.523 2.96-4.504 6.28-5.539 9.687-.988 3.25-1.113 6.598-.012 9.777.907 2.606 2.657 5.157 5.442 7.528.136.117.254.242.363.375a26.4 26.4 0 0 1 2.84 3.953 29 29 0 0 1 2.195 4.676c.117.312.172.636.172.957v70.61c0 .405-.086.788-.242 1.14q-1.853 4.786-5.242 9.086c-2.075 2.62-4.578 5.113-7.524 7.472q-1.58 7.414-.18 14.106.98 4.68 3.43 9.062l6.23-17.238a2.786 2.786 0 0 1 3.567-1.668l14.274 5.137a2.77 2.77 0 0 1 1.703 3.472l-5.606 17.145a37.3 37.3 0 0 0 8.903-7.594c2.527-2.965 4.507-6.285 5.543-9.691.988-3.25 1.113-6.598.011-9.778-.91-2.601-2.656-5.152-5.441-7.527a2.7 2.7 0 0 1-.363-.375c-2.153-2.465-3.829-5.34-5.036-8.625a2.8 2.8 0 0 1-.171-.96m-72.817-83.333 4.258-5.285a2.79 2.79 0 0 1 2.293-1.203h7.309a2.84 2.84 0 0 1 1.89.742l4.371 4.027h7.953c-.043-7.64-.043-15.214 0-22.855h-7.953l-4.238 3.906a2.78 2.78 0 0 1-2.02.863l-7.308-.007a2.79 2.79 0 0 1-2.172-1.04l-4.383-5.44h-26.191c-8.172.612-14.703 4.234-19.356 9.51-3.601 4.083-6.105 9.153-7.414 14.595q12.147-10.782 24.012-10.524a2.79 2.79 0 0 1 2.613 1.598l5.285 11.113Zm-1.254 105.07-3.586-99.488h-11.797l-3.582 99.488c-.199 5.52 2.164 9.043 5.286 10.61a9.4 9.4 0 0 0 4.203.98v-.011c1.464 0 2.906-.32 4.199-.965 3.117-1.563 5.473-5.086 5.277-10.614M113.7 173.105l4.769-8.832-4.867-18.777-1.782-.012-.23.008-.324-.015-3.121.02-4.86 18.776 4.676 8.665c.273.43.434.94.434 1.488v63.996h4.964v-63.996c.004-.45.11-.903.34-1.32m2.453 70.898H97.023v6.512a14.1 14.1 0 0 1 3.348 4.156 14.15 14.15 0 0 1 1.656 6.644 14.15 14.15 0 0 1-1.656 6.645 14.1 14.1 0 0 1-3.348 4.156v37.278c0 3.91 1.598 7.464 4.18 10.046l.129.133a14.17 14.17 0 0 0 9.918 4.047c3.918 0 7.473-1.598 10.047-4.172v-.008c2.578-2.582 4.18-6.136 4.18-10.046v-37.278a14.1 14.1 0 0 1-3.348-4.156 14.15 14.15 0 0 1-1.656-6.645c0-2.347.582-4.625 1.656-6.644a14.1 14.1 0 0 1 3.348-4.156v-6.512Zm-2.41 30.66a2.792 2.792 0 1 1 5.582 0v37.883a2.792 2.792 0 1 1-5.582 0Zm-10.574 0a2.795 2.795 0 0 1 2.793-2.793 2.79 2.79 0 0 1 2.789 2.793v37.883a2.79 2.79 0 0 1-2.79 2.793 2.795 2.795 0 0 1-2.792-2.793Zm0 0"/><path fill="none" stroke="#fff" stroke-width="10.5" d="m73.562 346.04-1.98-200.009m237.461 196.922-240.254-1.055m.844-191.75 119.64-119.64m-8.046.032L300.84 150.151"/></svg>