<svg xmlns="http://www.w3.org/2000/svg" width="500" height="500" viewBox="0 0 375 375"><defs><clipPath id="a"><path d="M127.43 151.07h55.004v66.09H127.43Zm0 0"/></clipPath><clipPath id="c"><path d="M.43.07h55.004v66.09H.43Zm0 0"/></clipPath><clipPath id="b"><path d="M0 0h56v67H0z"/></clipPath><clipPath id="d"><path d="M127.43 151.074h54.75v65.996h-54.75Zm0 0"/></clipPath><clipPath id="e"><path d="M195.605 151.07h55.004v66.09h-55.004Zm0 0"/></clipPath><clipPath id="g"><path d="M.605.07H55.61v66.09H.605Zm0 0"/></clipPath><clipPath id="f"><path d="M0 0h56v67H0z"/></clipPath><clipPath id="h"><path d="M195.605 151.074h54.75v65.996h-54.75Zm0 0"/></clipPath><clipPath id="i"><path d="M194.66 229.383h55.004v66.09H194.66Zm0 0"/></clipPath><clipPath id="k"><path d="M.66.383h55.004v66.09H.66Zm0 0"/></clipPath><clipPath id="j"><path d="M0 0h56v67H0z"/></clipPath><clipPath id="l"><path d="M194.66 229.387h54.75v65.996h-54.75Zm0 0"/></clipPath><clipPath id="m"><path d="M127.43 229.383h55.004v66.09H127.43Zm0 0"/></clipPath><clipPath id="o"><path d="M.43.383h55.004v66.09H.43Zm0 0"/></clipPath><clipPath id="n"><path d="M0 0h56v67H0z"/></clipPath><clipPath id="p"><path d="M127.43 229.387h54.75v65.996h-54.75Zm0 0"/></clipPath></defs><path fill="none" stroke="#fff" stroke-width="9" d="M87.312 326.86 85.57 151.065m208.72 173.083-211.169-.925m.742-168.536L189.02 49.531m-7.075.028 105.133 105.128"/><g clip-path="url(#a)"><g clip-path="url(#b)" transform="translate(127 151)"><g clip-path="url(#c)"><path fill="#fff" d="M.43.07h55.004v66.18H.43Zm0 0"/></g></g></g><g clip-path="url(#d)"><path fill="none" stroke="#fff" stroke-width="9" d="M127.43 151.074h54.996v66.074H127.43Zm0 0"/></g><g clip-path="url(#e)"><g clip-path="url(#f)" transform="translate(195 151)"><g clip-path="url(#g)"><path fill="#fff" d="M.605.07H55.61v66.18H.605Zm0 0"/></g></g></g><g clip-path="url(#h)"><path fill="none" stroke="#fff" stroke-width="9" d="M195.605 151.074h54.997v66.074h-54.997Zm0 0"/></g><g clip-path="url(#i)"><g clip-path="url(#j)" transform="translate(194 229)"><g clip-path="url(#k)"><path fill="#fff" d="M.66.383h55.004v66.18H.66Zm0 0"/></g></g></g><g clip-path="url(#l)"><path fill="none" stroke="#fff" stroke-width="9" d="M194.66 229.387h54.996v66.074H194.66Zm0 0"/></g><g clip-path="url(#m)"><g clip-path="url(#n)" transform="translate(127 229)"><g clip-path="url(#o)"><path fill="#fff" d="M.43.383h55.004v66.18H.43Zm0 0"/></g></g></g><g clip-path="url(#p)"><path fill="none" stroke="#fff" stroke-width="9" d="M127.43 229.387h54.996v66.074H127.43Zm0 0"/></g></svg>