<svg xmlns="http://www.w3.org/2000/svg" width="500" height="500" viewBox="0 0 375 375"><defs><clipPath id="a"><path d="M159.168 230.172h59.957v28.676h-59.957Zm0 0"/></clipPath><clipPath id="c"><path d="M.168.172h59.957v28.676H.168Zm0 0"/></clipPath><clipPath id="b"><path d="M0 0h61v29H0z"/></clipPath><clipPath id="d"><path d="M159.168 230.172h59.953v28.5h-59.953Zm0 0"/></clipPath><clipPath id="e"><path d="M159.168 260.547h59.957v28.676h-59.957Zm0 0"/></clipPath><clipPath id="g"><path d="M.168.547h59.957v28.676H.168Zm0 0"/></clipPath><clipPath id="f"><path d="M0 0h61v30H0z"/></clipPath><clipPath id="h"><path d="M159.168 260.547h59.953v28.5h-59.953Zm0 0"/></clipPath><clipPath id="i"><path d="M164.148 287.09h8.489v11.687h-8.489Zm0 0"/></clipPath><clipPath id="k"><path d="M.148.09h8.489v11.687H.148Zm0 0"/></clipPath><clipPath id="j"><path d="M0 0h9v12H0z"/></clipPath><clipPath id="l"><path d="M164.148 287.094h8.25v11.68h-8.25Zm0 0"/></clipPath><clipPath id="m"><path d="M202.031 287.09h8.489v11.687h-8.489Zm0 0"/></clipPath><clipPath id="o"><path d="M.031.09H8.52v11.687H.03Zm0 0"/></clipPath><clipPath id="n"><path d="M0 0h9v12H0z"/></clipPath><clipPath id="p"><path d="M202.031 287.094h8.25v11.68h-8.25Zm0 0"/></clipPath><clipPath id="q"><path d="M178.152 271.738h21.989v3.149h-21.989Zm0 0"/></clipPath><clipPath id="s"><path d="M.152.738h21.989v3.149H.152Zm0 0"/></clipPath><clipPath id="r"><path d="M0 0h23v4H0z"/></clipPath><clipPath id="t"><path d="M178.172 271.738h21.73v3h-21.73Zm0 0"/></clipPath><clipPath id="u"><path d="M178.152 242.938h21.989v3.144h-21.989Zm0 0"/></clipPath><clipPath id="w"><path d="M.152.938h21.989v3.144H.152Zm0 0"/></clipPath><clipPath id="v"><path d="M0 0h23v5H0z"/></clipPath><clipPath id="x"><path d="M178.172 242.938h21.73v3h-21.73Zm0 0"/></clipPath><clipPath id="y"><path d="M166.43 154.379h45.523v34.074H166.43Zm0 0"/></clipPath><clipPath id="z"><path d="M177.79 154.379h22.714l11.36 34.074H166.43Zm0 0"/></clipPath><clipPath id="B"><path d="M.43.379h45.492v34.074H.43Zm0 0"/></clipPath><clipPath id="C"><path d="M11.79.379h22.714l11.36 34.074H.43Zm0 0"/></clipPath><clipPath id="A"><path d="M0 0h46v35H0z"/></clipPath><clipPath id="D"><path d="M166.438 154.379h45.421v33.75h-45.422Zm0 0"/></clipPath><clipPath id="E"><path d="M177.793 154.379h22.71l11.356 34.066h-45.422Zm0 0"/></clipPath><clipPath id="F"><path d="M179.672 193.445h18.953v30.43h-18.953Zm0 0"/></clipPath><clipPath id="G"><path d="M189.148 193.445c5.23 0 9.477 4.243 9.477 9.477v11.473c0 5.234-4.246 9.476-9.477 9.476a9.476 9.476 0 0 1-9.476-9.476v-11.473a9.476 9.476 0 0 1 9.476-9.477m0 0"/></clipPath><clipPath id="I"><path d="M.672.445h18.953v30.43H.672Zm0 0"/></clipPath><clipPath id="J"><path d="M10.148.445c5.23 0 9.477 4.243 9.477 9.477v11.473c0 5.234-4.246 9.476-9.477 9.476a9.476 9.476 0 0 1-9.476-9.476V9.922A9.476 9.476 0 0 1 10.148.445m0 0"/></clipPath><clipPath id="H"><path d="M0 0h20v31H0z"/></clipPath><clipPath id="K"><path d="M179.672 193.445h18.75V224h-18.75Zm0 0"/></clipPath><clipPath id="L"><path d="M189.145 193.445c5.234 0 9.476 4.243 9.476 9.473v11.473a9.476 9.476 0 0 1-9.476 9.476c-5.235 0-9.473-4.242-9.473-9.476v-11.473a9.47 9.47 0 0 1 9.473-9.473m0 0"/></clipPath></defs><path fill="none" stroke="#fff" stroke-width="9.75" d="m79.437 340.102-1.874-189.625M302.7 337.176l-227.782-1m.797-181.801 113.43-113.43m-7.629.032 113.406 113.402"/><g clip-path="url(#a)"><g clip-path="url(#b)" transform="translate(159 230)"><g clip-path="url(#c)"><path fill="#fff" d="M.168.172h59.93v28.676H.168Zm0 0"/></g></g></g><g clip-path="url(#d)"><path fill="none" stroke="#fff" stroke-width="9" d="M159.168 230.172h59.953v28.676h-59.953Zm0 0"/></g><g clip-path="url(#e)"><g clip-path="url(#f)" transform="translate(159 260)"><g clip-path="url(#g)"><path fill="#fff" d="M.168.547h59.93v28.676H.168Zm0 0"/></g></g></g><g clip-path="url(#h)"><path fill="none" stroke="#fff" stroke-width="9" d="M159.168 260.547h59.953v28.676h-59.953Zm0 0"/></g><g clip-path="url(#i)"><g clip-path="url(#j)" transform="translate(164 287)"><g clip-path="url(#k)"><path fill="#fff" d="M.148.09h8.489v11.672H.148Zm0 0"/></g></g></g><g clip-path="url(#l)"><path fill="none" stroke="#fff" stroke-width="9" d="M164.148 287.094h8.485v11.68h-8.485Zm0 0"/></g><g clip-path="url(#m)"><g clip-path="url(#n)" transform="translate(202 287)"><g clip-path="url(#o)"><path fill="#fff" d="M.031.09H8.52v11.672H.03Zm0 0"/></g></g></g><g clip-path="url(#p)"><path fill="none" stroke="#fff" stroke-width="9" d="M202.031 287.094h8.485v11.68h-8.485Zm0 0"/></g><g clip-path="url(#q)"><g clip-path="url(#r)" transform="translate(178 271)"><g clip-path="url(#s)"><path fill="#fff" d="M.152.738h21.989v3.149H.152Zm0 0"/></g></g></g><g clip-path="url(#t)"><path fill="none" stroke="#fff" stroke-width="9" d="M178.172 271.738h21.945v3.14h-21.945Zm0 0"/></g><g clip-path="url(#u)"><g clip-path="url(#v)" transform="translate(178 242)"><g clip-path="url(#w)"><path fill="#fff" d="M.152.938h21.989v3.144H.152Zm0 0"/></g></g></g><g clip-path="url(#x)"><path fill="none" stroke="#fff" stroke-width="9" d="M178.172 242.938h21.945v3.14h-21.945Zm0 0"/></g><g clip-path="url(#y)"><g clip-path="url(#z)"><g clip-path="url(#A)" transform="translate(166 154)"><g clip-path="url(#B)"><g clip-path="url(#C)"><path fill="#fff" d="M.43.379h45.39v34.074H.43Zm0 0"/></g></g></g></g></g><g clip-path="url(#D)"><g clip-path="url(#E)"><path fill="none" stroke="#fff" stroke-width="9" d="M177.793 154.379h22.71l11.356 34.066h-45.421Zm0 0"/></g></g><g clip-path="url(#F)"><g clip-path="url(#G)"><g clip-path="url(#H)" transform="translate(179 193)"><g clip-path="url(#I)"><g clip-path="url(#J)"><path fill="#fff" d="M.672.445h18.953v30.43H.672Zm0 0"/></g></g></g></g></g><g clip-path="url(#K)"><g clip-path="url(#L)"><path fill="none" stroke="#fff" stroke-width="9" d="M189.145 193.445c5.234 0 9.476 4.243 9.476 9.473v11.473a9.476 9.476 0 0 1-9.476 9.476c-5.235 0-9.473-4.242-9.473-9.476v-11.473a9.47 9.47 0 0 1 9.473-9.473Zm0 0"/></g></g></svg>