<svg xmlns="http://www.w3.org/2000/svg" xmlns:xlink="http://www.w3.org/1999/xlink" width="500" zoomAndPan="magnify" viewBox="0 0 375 374.999991" height="500" preserveAspectRatio="xMidYMid meet" version="1.0"><defs><clipPath id="d3654afe9d"><path d="M 91 139.902344 L 132 139.902344 L 132 328.902344 L 91 328.902344 Z M 91 139.902344 " clip-rule="nonzero"/></clipPath></defs><path fill="#ffffff" d="M 273.511719 194.597656 C 271.679688 196.921875 270.25 199.355469 269.222656 201.898438 L 269.222656 271.492188 C 270.167969 273.929688 271.417969 276.042969 272.972656 277.84375 C 276.472656 280.859375 278.703125 284.1875 279.90625 287.648438 L 279.90625 287.660156 C 281.421875 292.03125 281.277344 296.542969 279.960938 300.871094 C 278.691406 305.054688 276.324219 309.054688 273.328125 312.566406 C 268.726562 317.96875 262.566406 322.296875 256.585938 324.40625 C 256 324.648438 255.324219 324.691406 254.671875 324.480469 C 253.207031 324.003906 252.40625 322.429688 252.878906 320.96875 L 259.671875 300.238281 L 250.546875 296.957031 L 243.375 316.804688 C 243.191406 317.289062 242.878906 317.730469 242.4375 318.066406 C 241.214844 318.992188 239.472656 318.757812 238.542969 317.535156 C 234.78125 312.574219 232.3125 307.316406 231.148438 301.765625 C 229.980469 296.203125 230.121094 290.382812 231.5625 284.3125 L 231.570312 284.316406 C 231.710938 283.714844 232.050781 283.160156 232.574219 282.757812 C 235.484375 280.507812 237.9375 278.125 239.921875 275.605469 C 241.753906 273.285156 243.179688 270.847656 244.207031 268.308594 L 244.207031 198.710938 C 243.746094 197.511719 243.214844 196.410156 242.625 195.394531 C 241.984375 194.304688 241.261719 193.292969 240.457031 192.363281 C 236.960938 189.34375 234.726562 186.015625 233.527344 182.550781 L 233.527344 182.542969 C 232.007812 178.167969 232.152344 173.660156 233.46875 169.328125 C 234.742188 165.148438 237.105469 161.148438 240.101562 157.636719 C 244.703125 152.234375 250.867188 147.902344 256.839844 145.792969 C 257.433594 145.550781 258.105469 145.511719 258.761719 145.722656 C 260.222656 146.199219 261.023438 147.769531 260.546875 149.234375 L 253.757812 169.964844 L 262.882812 173.246094 L 270.058594 153.398438 C 270.238281 152.914062 270.554688 152.472656 270.996094 152.136719 C 272.214844 151.207031 273.957031 151.449219 274.886719 152.667969 C 278.652344 157.625 281.117188 162.886719 282.285156 168.4375 C 283.449219 174 283.308594 179.816406 281.871094 185.886719 L 281.859375 185.886719 C 281.71875 186.484375 281.378906 187.042969 280.851562 187.449219 C 277.992188 189.660156 275.582031 191.988281 273.632812 194.425781 Z M 273.511719 194.597656 " fill-opacity="1" fill-rule="evenodd"/><path fill="#ffffff" d="M 192.15625 194.242188 L 191.554688 194.242188 L 195.132812 293.53125 C 195.417969 301.578125 191.695312 306.847656 186.78125 309.308594 C 184.675781 310.363281 182.371094 310.890625 180.09375 310.890625 L 180.09375 310.878906 C 177.800781 310.878906 175.5 310.355469 173.410156 309.308594 C 168.488281 306.84375 164.757812 301.570312 165.042969 293.53125 L 168.621094 194.242188 L 168.023438 194.242188 C 166.839844 194.242188 165.828125 193.507812 165.421875 192.464844 L 160.222656 181.535156 C 152.5625 181.964844 144.519531 186.808594 136.105469 196.070312 C 135.074219 197.207031 133.308594 197.289062 132.171875 196.253906 C 131.496094 195.640625 131.191406 194.773438 131.273438 193.933594 C 131.601562 184.421875 135.003906 175.117188 141.113281 168.195312 C 146.722656 161.839844 154.578125 157.488281 164.414062 156.796875 L 192.15625 156.789062 C 193.109375 156.789062 193.949219 157.265625 194.453125 157.996094 L 198.707031 163.277344 L 203.605469 163.277344 L 207.976562 159.246094 C 208.511719 158.753906 209.191406 158.511719 209.867188 158.511719 L 221.695312 158.507812 C 223.234375 158.507812 224.488281 159.757812 224.488281 161.300781 L 224.472656 161.5625 L 224.398438 175.519531 L 224.476562 189.726562 C 224.480469 191.261719 223.242188 192.511719 221.707031 192.515625 L 221.695312 192.515625 L 221.695312 192.527344 L 209.867188 192.527344 C 209.070312 192.527344 208.355469 192.195312 207.847656 191.664062 L 203.609375 187.753906 L 198.707031 187.753906 L 194.324219 193.195312 C 193.777344 193.878906 192.96875 194.234375 192.15625 194.234375 Z M 192.15625 194.242188 " fill-opacity="1" fill-rule="evenodd"/><g clip-path="url(#d3654afe9d)"><path fill="#ffffff" d="M 102.8125 238.417969 L 102.8125 175.117188 L 97.863281 165.957031 C 97.496094 165.269531 97.445312 164.5 97.65625 163.8125 L 103.296875 142.035156 C 103.632812 140.746094 104.808594 139.90625 106.082031 139.949219 L 109.808594 139.925781 C 109.921875 139.90625 110.042969 139.902344 110.164062 139.902344 L 110.429688 139.914062 L 111.578125 139.914062 L 111.832031 139.925781 L 115.769531 139.953125 C 117.058594 139.957031 118.144531 140.84375 118.449219 142.035156 L 124.125 163.945312 C 124.308594 164.652344 124.199219 165.363281 123.882812 165.960938 L 118.941406 175.117188 L 118.941406 238.421875 L 128.261719 238.421875 C 129.804688 238.421875 131.054688 239.667969 131.054688 241.210938 L 131.054688 251.890625 C 131.050781 252.785156 130.617188 253.664062 129.820312 254.203125 C 128.644531 255 127.699219 256.066406 127.050781 257.289062 C 126.402344 258.507812 126.050781 259.886719 126.050781 261.316406 C 126.050781 262.746094 126.398438 264.125 127.050781 265.34375 C 127.679688 266.535156 128.59375 267.578125 129.726562 268.367188 C 130.523438 268.859375 131.054688 269.738281 131.054688 270.742188 L 131.054688 309.394531 C 131.054688 314.84375 128.824219 319.796875 125.238281 323.386719 L 125.230469 323.382812 C 121.636719 326.972656 116.683594 329.203125 111.242188 329.203125 C 105.882812 329.203125 100.996094 327.039062 97.414062 323.539062 L 97.253906 323.386719 C 93.664062 319.796875 91.4375 314.84375 91.4375 309.394531 L 91.4375 270.742188 C 91.441406 269.847656 91.871094 268.96875 92.667969 268.429688 C 93.847656 267.636719 94.792969 266.566406 95.441406 265.34375 C 96.089844 264.125 96.445312 262.746094 96.445312 261.316406 C 96.445312 259.886719 96.09375 258.507812 95.445312 257.285156 C 94.8125 256.09375 93.898438 255.054688 92.765625 254.265625 C 91.96875 253.773438 91.4375 252.894531 91.4375 251.886719 L 91.4375 241.210938 C 91.4375 239.667969 92.691406 238.417969 94.230469 238.417969 Z M 102.8125 238.417969 " fill-opacity="1" fill-rule="evenodd"/></g><path fill="#ffffff" d="M 263.644531 271.992188 L 263.640625 201.378906 C 263.640625 200.976562 263.726562 200.589844 263.882812 200.242188 C 265.117188 197.054688 266.871094 194.019531 269.128906 191.15625 L 269.28125 190.976562 C 271.332031 188.410156 273.789062 185.976562 276.648438 183.683594 C 277.703125 178.738281 277.765625 174.035156 276.832031 169.574219 C 276.175781 166.457031 275.035156 163.433594 273.402344 160.515625 L 267.171875 177.753906 C 266.644531 179.199219 265.050781 179.945312 263.605469 179.421875 L 249.332031 174.289062 C 247.914062 173.777344 247.160156 172.234375 247.625 170.8125 L 253.234375 153.671875 C 249.996094 155.632812 246.894531 158.253906 244.328125 161.265625 C 241.804688 164.226562 239.824219 167.546875 238.789062 170.953125 C 237.800781 174.203125 237.675781 177.550781 238.777344 180.730469 C 239.683594 183.335938 241.433594 185.886719 244.21875 188.257812 C 244.355469 188.375 244.472656 188.5 244.582031 188.632812 C 245.640625 189.847656 246.585938 191.167969 247.421875 192.585938 C 248.28125 194.0625 249.019531 195.621094 249.617188 197.261719 C 249.734375 197.574219 249.789062 197.898438 249.789062 198.21875 L 249.789062 268.828125 C 249.789062 269.234375 249.703125 269.617188 249.546875 269.96875 C 248.3125 273.160156 246.5625 276.1875 244.304688 279.054688 C 242.230469 281.675781 239.726562 284.167969 236.78125 286.527344 C 235.726562 291.46875 235.667969 296.171875 236.601562 300.632812 C 237.253906 303.753906 238.398438 306.773438 240.03125 309.695312 L 246.261719 292.457031 C 246.785156 291.011719 248.378906 290.269531 249.828125 290.789062 L 264.101562 295.925781 C 265.519531 296.433594 266.273438 297.976562 265.804688 299.398438 L 260.199219 316.542969 C 263.4375 314.578125 266.539062 311.957031 269.101562 308.949219 C 271.628906 305.984375 273.609375 302.664062 274.644531 299.257812 C 275.632812 296.007812 275.757812 292.660156 274.65625 289.480469 C 273.746094 286.878906 272 284.328125 269.214844 281.953125 C 269.078125 281.835938 268.957031 281.710938 268.851562 281.578125 C 266.699219 279.113281 265.023438 276.238281 263.816406 272.953125 C 263.699219 272.632812 263.644531 272.308594 263.644531 271.992188 Z M 263.644531 271.992188 " fill-opacity="1" fill-rule="evenodd"/><path fill="#ffffff" d="M 190.828125 188.660156 L 195.085938 183.375 C 195.589844 182.648438 196.429688 182.171875 197.378906 182.171875 L 204.6875 182.171875 C 205.363281 182.179688 206.039062 182.421875 206.578125 182.914062 L 210.949219 186.941406 L 218.902344 186.941406 C 218.859375 179.300781 218.859375 171.726562 218.902344 164.085938 L 210.949219 164.085938 L 206.710938 167.992188 C 206.203125 168.523438 205.488281 168.855469 204.691406 168.855469 L 197.382812 168.847656 C 196.570312 168.847656 195.765625 168.492188 195.210938 167.808594 L 190.828125 162.367188 L 164.636719 162.367188 C 156.464844 162.980469 149.933594 166.601562 145.28125 171.878906 C 141.679688 175.960938 139.175781 181.03125 137.867188 186.472656 C 145.964844 179.285156 153.96875 175.777344 161.878906 175.949219 C 162.957031 175.914062 164 176.507812 164.492188 177.546875 L 169.777344 188.660156 Z M 190.828125 188.660156 " fill-opacity="1" fill-rule="evenodd"/><path fill="#ffffff" d="M 189.574219 293.730469 L 185.988281 194.242188 L 174.191406 194.242188 L 170.609375 293.730469 C 170.410156 299.25 172.773438 302.773438 175.894531 304.339844 C 177.203125 304.992188 178.648438 305.320312 180.097656 305.320312 L 180.097656 305.308594 C 181.5625 305.308594 183.003906 304.988281 184.296875 304.34375 C 187.414062 302.78125 189.769531 299.257812 189.574219 293.730469 Z M 189.574219 293.730469 " fill-opacity="1" fill-rule="evenodd"/><path fill="#ffffff" d="M 113.699219 173.105469 L 118.46875 164.273438 L 113.601562 145.496094 L 111.820312 145.484375 L 111.589844 145.492188 L 111.265625 145.476562 L 108.144531 145.496094 L 103.285156 164.273438 L 107.960938 172.9375 C 108.234375 173.367188 108.394531 173.878906 108.394531 174.425781 L 108.394531 238.421875 L 113.359375 238.421875 L 113.359375 174.425781 C 113.363281 173.976562 113.46875 173.523438 113.699219 173.105469 Z M 113.699219 173.105469 " fill-opacity="1" fill-rule="evenodd"/><path fill="#ffffff" d="M 116.152344 244.003906 L 97.023438 244.003906 L 97.023438 250.515625 C 98.40625 251.6875 99.539062 253.101562 100.371094 254.671875 C 101.445312 256.691406 102.027344 258.96875 102.027344 261.316406 C 102.027344 263.664062 101.445312 265.941406 100.371094 267.960938 C 99.539062 269.53125 98.40625 270.945312 97.023438 272.117188 L 97.023438 309.394531 C 97.023438 313.304688 98.621094 316.859375 101.203125 319.441406 L 101.332031 319.574219 C 103.894531 322.074219 107.398438 323.621094 111.25 323.621094 C 115.167969 323.621094 118.722656 322.023438 121.296875 319.449219 L 121.296875 319.441406 C 123.875 316.859375 125.476562 313.304688 125.476562 309.394531 L 125.476562 272.117188 C 124.09375 270.945312 122.960938 269.53125 122.128906 267.960938 C 121.054688 265.941406 120.472656 263.664062 120.472656 261.316406 C 120.472656 258.96875 121.054688 256.691406 122.128906 254.671875 C 122.960938 253.101562 124.09375 251.6875 125.476562 250.515625 L 125.476562 244.003906 Z M 113.742188 274.664062 C 113.742188 273.121094 114.992188 271.871094 116.535156 271.871094 C 118.074219 271.871094 119.324219 273.121094 119.324219 274.664062 L 119.324219 312.546875 C 119.324219 314.089844 118.074219 315.339844 116.535156 315.339844 C 114.992188 315.339844 113.742188 314.089844 113.742188 312.546875 Z M 103.167969 274.664062 C 103.167969 273.121094 104.421875 271.871094 105.960938 271.871094 C 107.503906 271.871094 108.75 273.121094 108.75 274.664062 L 108.75 312.546875 C 108.75 314.089844 107.503906 315.339844 105.960938 315.339844 C 104.421875 315.339844 103.167969 314.089844 103.167969 312.546875 Z M 103.167969 274.664062 " fill-opacity="1" fill-rule="evenodd"/><path stroke-linecap="butt" transform="matrix(-0.00742815, -0.749963, 0.749963, -0.00742815, 68.311867, 346.091228)" fill="none" stroke-linejoin="miter" d="M 0.000213413 7.00119 L 266.69039 7.001919 " stroke="#ffffff" stroke-width="14" stroke-opacity="1" stroke-miterlimit="4"/><path stroke-linecap="butt" transform="matrix(-0.749993, -0.00329617, 0.00329617, -0.749993, 309.020639, 348.204119)" fill="none" stroke-linejoin="miter" d="M 0.000996846 7.001389 L 320.342658 6.999771 " stroke="#ffffff" stroke-width="14" stroke-opacity="1" stroke-miterlimit="4"/><path stroke-linecap="butt" transform="matrix(0.53033, -0.53033, 0.53033, 0.53033, 65.921873, 146.435616)" fill="none" stroke-linejoin="miter" d="M -0.00177435 6.999189 L 225.594766 6.999189 " stroke="#ffffff" stroke-width="14" stroke-opacity="1" stroke-miterlimit="4"/><path stroke-linecap="butt" transform="matrix(0.53033, 0.53033, -0.53033, 0.53033, 184.938434, 26.82703)" fill="none" stroke-linejoin="miter" d="M 0.000152288 6.999325 L 225.545132 6.999325 " stroke="#ffffff" stroke-width="14" stroke-opacity="1" stroke-miterlimit="4"/></svg>